Mirza-Medium - Without Production Names.ufo
<glyph name="number-ar" format="1">
  <advance width="466"/>
  <unicode hex="0600"/>
  <outline>
    <contour>
      <point x="637" y="-58" type="line"/>
      <point x="589" y="-37"/>
      <point x="557" y="1"/>
      <point x="550" y="37" type="curve"/>
      <point x="574" y="55"/>
      <point x="609" y="67"/>
      <point x="656" y="67" type="curve" smooth="yes"/>
      <point x="696" y="67"/>
      <point x="725" y="58"/>
      <point x="744" y="49" type="curve"/>
      <point x="771" y="74" type="line"/>
      <point x="754" y="98"/>
      <point x="704" y="147"/>
      <point x="645" y="147" type="curve" smooth="yes"/>
      <point x="611" y="147"/>
      <point x="570" y="126"/>
      <point x="541" y="99" type="curve" smooth="yes"/>
      <point x="508" y="69"/>
      <point x="486" y="29"/>
      <point x="486" y="-9" type="curve" smooth="yes"/>
      <point x="486" y="-30"/>
      <point x="493" y="-43"/>
      <point x="514" y="-57" type="curve"/>
      <point x="-32" y="-57" type="line"/>
      <point x="-53" y="-57"/>
      <point x="-148" y="-51"/>
      <point x="-186" y="-45" type="curve"/>
      <point x="-159" y="-99"/>
      <point x="-125" y="-141"/>
      <point x="-85" y="-172" type="curve"/>
      <point x="-63" y="-171"/>
      <point x="-43" y="-169"/>
      <point x="-19" y="-169" type="curve"/>
      <point x="753" y="-169" type="line"/>
      <point x="771" y="-133"/>
      <point x="787" y="-97"/>
      <point x="797" y="-57" type="curve"/>
    </contour>
  </outline>
</glyph>
<glyph name="year-ar" format="1">
  <advance width="477"/>
  <unicode hex="0601"/>
  <outline>
    <contour>
      <point x="900" y="93"/>
      <point x="884" y="72"/>
      <point x="870" y="49" type="curve"/>
      <point x="916" y="-15" type="line"/>
      <point x="904" y="-47"/>
      <point x="887" y="-60"/>
      <point x="853" y="-60" type="curve" smooth="yes"/>
      <point x="827" y="-60"/>
      <point x="810" y="-54"/>
      <point x="798" y="-40" type="curve" smooth="yes"/>
      <point x="785" y="-26"/>
      <point x="782" y="-7"/>
      <point x="783" y="13" type="curve" smooth="yes"/>
      <point x="783" y="22"/>
      <point x="784" y="31"/>
      <point x="785" y="39" type="curve"/>
      <point x="754" y="25" type="line"/>
      <point x="753" y="16"/>
      <point x="752" y="7"/>
      <point x="749" y="-3" type="curve"/>
      <point x="742" y="-33"/>
      <point x="724" y="-60"/>
      <point x="682" y="-60" type="curve" smooth="yes"/>
      <point x="630" y="-60"/>
      <point x="618" y="-29"/>
      <point x="615" y="-1" type="curve"/>
      <point x="615" y="11"/>
      <point x="616" y="25"/>
      <point x="618" y="39" type="curve"/>
      <point x="586" y="25" type="line"/>
      <point x="582" y="7"/>
      <point x="581" y="-7"/>
      <point x="570" y="-24" type="curve"/>
      <point x="557" y="-44"/>
      <point x="537" y="-56"/>
      <point x="510" y="-56" type="curve" smooth="yes"/>
      <point x="-39" y="-56" type="line" smooth="yes"/>
      <point x="-72" y="-56"/>
      <point x="-96" y="-48"/>
      <point x="-110" y="-31" type="curve"/>
      <point x="-127" y="-12"/>
      <point x="-127" y="24"/>
      <point x="-126" y="44" type="curve"/>
      <point x="-157" y="30" type="line"/>
      <point x="-161" y="-7"/>
      <point x="-176" y="-56"/>
      <point x="-247" y="-56" type="curve" smooth="yes"/>
      <point x="-254" y="-56"/>
      <point x="-271" y="-56"/>
      <point x="-280" y="-57" type="curve" smooth="yes"/>
      <point x="-309" y="-55"/>
      <point x="-331" y="-38"/>
      <point x="-347" y="-13" type="curve" smooth="yes"/>
      <point x="-365" y="12"/>
      <point x="-391" y="49"/>
      <point x="-431" y="49" type="curve" smooth="yes"/>
      <point x="-470" y="49"/>
      <point x="-507" y="17"/>
      <point x="-546" y="-54" type="curve" smooth="yes"/>
      <point x="-572" y="-100"/>
      <point x="-590" y="-148"/>
      <point x="-604" y="-191" type="curve"/>
      <point x="-571" y="-182" type="line"/>
      <point x="-565" y="-169"/>
      <point x="-551" y="-138"/>
      <point x="-533" y="-109" type="curve" smooth="yes"/>
      <point x="-509" y="-68"/>
      <point x="-481" y="-35"/>
      <point x="-446" y="-35" type="curve" smooth="yes"/>
      <point x="-416" y="-35"/>
      <point x="-402" y="-59"/>
      <point x="-386" y="-89" type="curve" smooth="yes"/>
      <point x="-375" y="-111"/>
      <point x="-367" y="-125"/>
      <point x="-355" y="-138" type="curve" smooth="yes"/>
      <point x="-337" y="-156"/>
      <point x="-315" y="-168"/>
      <point x="-279" y="-168" type="curve" smooth="yes"/>
      <point x="-232" y="-168" type="line" smooth="yes"/>
      <point x="-200" y="-168"/>
      <point x="-174" y="-157"/>
      <point x="-156" y="-139" type="curve" smooth="yes"/>
      <point x="-138" y="-122"/>
      <point x="-133" y="-106"/>
      <point x="-131" y="-100" type="curve"/>
      <point x="-130" y="-106"/>
      <point x="-125" y="-122"/>
      <point x="-109" y="-138" type="curve" smooth="yes"/>
      <point x="-92" y="-154"/>
      <point x="-68" y="-168"/>
      <point x="-25" y="-168" type="curve" smooth="yes"/>
      <point x="503" y="-168" type="line" smooth="yes"/>
      <point x="535" y="-168"/>
      <point x="556" y="-156"/>
      <point x="569" y="-143" type="curve" smooth="yes"/>
      <point x="587" y="-125"/>
      <point x="591" y="-103"/>
      <point x="593" y="-101" type="curve"/>
      <point x="598" y="-129"/>
      <point x="618" y="-166"/>
      <point x="672" y="-166" type="curve" smooth="yes"/>
      <point x="729" y="-166"/>
      <point x="756" y="-127"/>
      <point x="764" y="-100" type="curve"/>
      <point x="768" y="-124"/>
      <point x="792" y="-159"/>
      <point x="851" y="-159" type="curve" smooth="yes"/>
      <point x="888" y="-159"/>
      <point x="915" y="-140"/>
      <point x="933" y="-111" type="curve" smooth="yes"/>
      <point x="957" y="-74"/>
      <point x="962" y="-29"/>
      <point x="962" y="-22" type="curve" smooth="yes"/>
      <point x="962" y="61"/>
      <point x="925" y="102"/>
      <point x="917" y="111" type="curve"/>
    </contour>
  </outline>
</glyph>
<glyph name="footnotemarker-ar" format="1">
  <advance width="600"/>
  <unicode hex="0602"/>
  <outline>
    <contour>
      <point x="-234" y="-60"/>
      <point x="-222" y="-97"/>
      <point x="-192" y="-124" type="curve" smooth="yes"/>
      <point x="-162" y="-150"/>
      <point x="-116" y="-167"/>
      <point x="-46" y="-168" type="curve"/>
      <point x="195" y="-168" type="line"/>
      <point x="324" y="-169"/>
      <point x="538" y="-169"/>
      <point x="590" y="-171" type="curve"/>
      <point x="630" y="-140"/>
      <point x="664" y="-98"/>
      <point x="691" y="-44" type="curve"/>
      <point x="647" y="-51"/>
      <point x="515" y="-55"/>
      <point x="189" y="-56" type="curve"/>
      <point x="-24" y="-56" type="line"/>
      <point x="-18" y="-13"/>
      <point x="-23" y="27"/>
      <point x="-36" y="57" type="curve" smooth="yes"/>
      <point x="-53" y="98"/>
      <point x="-85" y="124"/>
      <point x="-129" y="124" type="curve" smooth="yes"/>
      <point x="-190" y="124"/>
      <point x="-233" y="51"/>
      <point x="-233" y="-20" type="curve" smooth="yes"/>
    </contour>
    <contour>
      <point x="-124" y="-56" type="line"/>
      <point x="-175" y="-56"/>
      <point x="-180" y="-21"/>
      <point x="-180" y="-9" type="curve" smooth="yes"/>
      <point x="-180" y="9"/>
      <point x="-167" y="42"/>
      <point x="-130" y="42" type="curve" smooth="yes"/>
      <point x="-90" y="42"/>
      <point x="-72" y="-4"/>
      <point x="-74" y="-56" type="curve"/>
    </contour>
  </outline>
</glyph>
<glyph name="ray-ar" format="1">
  <advance width="668"/>
  <unicode hex="0608"/>
  <outline>
    <contour>
      <point x="384" y="281"/>
      <point x="354" y="252"/>
      <point x="336" y="211" type="curve" smooth="yes"/>
      <point x="324" y="185"/>
      <point x="317" y="150"/>
      <point x="317" y="120" type="curve" smooth="yes"/>
      <point x="317" y="77"/>
      <point x="330" y="43"/>
      <point x="352" y="24" type="curve" smooth="yes"/>
      <point x="366" y="11"/>
      <point x="389" y="0"/>
      <point x="436" y="0" type="curve" smooth="yes"/>
      <point x="474" y="0" type="line"/>
      <point x="473" y="-10"/>
      <point x="472" y="-55"/>
      <point x="432" y="-94" type="curve" smooth="yes"/>
      <point x="399" y="-126"/>
      <point x="354" y="-142"/>
      <point x="290" y="-142" type="curve" smooth="yes"/>
      <point x="220" y="-142"/>
      <point x="169" y="-126"/>
      <point x="142" y="-89" type="curve" smooth="yes"/>
      <point x="110" y="-49"/>
      <point x="121" y="6"/>
      <point x="128" y="45" type="curve"/>
      <point x="101" y="54" type="line"/>
      <point x="91" y="27"/>
      <point x="73" y="-19"/>
      <point x="69" y="-67" type="curve" smooth="yes"/>
      <point x="67" y="-97"/>
      <point x="69" y="-126"/>
      <point x="82" y="-157" type="curve" smooth="yes"/>
      <point x="97" y="-194"/>
      <point x="123" y="-221"/>
      <point x="156" y="-239" type="curve" smooth="yes"/>
      <point x="191" y="-258"/>
      <point x="234" y="-268"/>
      <point x="283" y="-268" type="curve" smooth="yes"/>
      <point x="325" y="-268"/>
      <point x="362" y="-260"/>
      <point x="395" y="-244" type="curve" smooth="yes"/>
      <point x="424" y="-230"/>
      <point x="449" y="-209"/>
      <point x="469" y="-182" type="curve" smooth="yes"/>
      <point x="524" y="-110"/>
      <point x="528" y="-23"/>
      <point x="529" y="0" type="curve"/>
      <point x="567" y="4"/>
      <point x="611" y="7"/>
      <point x="642" y="54" type="curve"/>
      <point x="642" y="162" type="line"/>
      <point x="613" y="122"/>
      <point x="561" y="112"/>
      <point x="528" y="112" type="curve"/>
      <point x="526" y="128"/>
      <point x="520" y="188"/>
      <point x="496" y="231" type="curve" smooth="yes"/>
      <point x="480" y="259"/>
      <point x="454" y="281"/>
      <point x="422" y="281" type="curve" smooth="yes"/>
    </contour>
    <contour>
      <point x="456" y="206"/>
      <point x="465" y="123"/>
      <point x="467" y="112" type="curve"/>
      <point x="416" y="112" type="line" smooth="yes"/>
      <point x="383" y="112"/>
      <point x="357" y="120"/>
      <point x="357" y="154" type="curve" smooth="yes"/>
      <point x="357" y="183"/>
      <point x="381" y="206"/>
      <point x="406" y="206" type="curve" smooth="yes"/>
    </contour>
    <contour>
      <point x="69" y="36"/>
      <point x="35" y="18"/>
      <point x="-8" y="7" type="curve"/>
      <point x="27" y="-37" type="line"/>
      <point x="105" y="-2" type="line"/>
      <point x="101" y="54" type="line"/>
    </contour>
    <contour>
      <point x="417" y="312" type="move" name="top"/>
    </contour>
    <contour>
      <point x="282" y="-301" type="move" name="bottom"/>
    </contour>
  </outline>
</glyph>
<glyph name="verseComma-ar" format="1">
  <advance width="797"/>
  <unicode hex="060E"/>
  <outline>
    <contour>
      <point x="751" y="104"/>
      <point x="730" y="125"/>
      <point x="703" y="125" type="curve" smooth="yes"/>
      <point x="690" y="125"/>
      <point x="679" y="121"/>
      <point x="672" y="115" type="curve"/>
      <point x="639" y="156"/>
      <point x="609" y="198"/>
      <point x="604" y="208" type="curve"/>
      <point x="617" y="210"/>
      <point x="630" y="217"/>
      <point x="637" y="230" type="curve"/>
      <point x="642" y="241"/>
      <point x="644" y="253"/>
      <point x="636" y="271" type="curve" smooth="yes"/>
      <point x="623" y="291"/>
      <point x="618" y="309"/>
      <point x="633" y="329" type="curve"/>
      <point x="612" y="333"/>
      <point x="595" y="331"/>
      <point x="582" y="319" type="curve"/>
      <point x="567" y="304"/>
      <point x="561" y="280"/>
      <point x="573" y="252" type="curve"/>
      <point x="536" y="275"/>
      <point x="501" y="280"/>
      <point x="450" y="270" type="curve" smooth="yes"/>
      <point x="372" y="256"/>
      <point x="360" y="281"/>
      <point x="361" y="295" type="curve"/>
      <point x="345" y="286"/>
      <point x="334" y="274"/>
      <point x="333" y="258" type="curve" smooth="yes"/>
      <point x="332" y="245"/>
      <point x="338" y="231"/>
      <point x="353" y="223" type="curve"/>
      <point x="324" y="197"/>
      <point x="285" y="138"/>
      <point x="257" y="101" type="curve"/>
      <point x="238" y="74"/>
      <point x="195" y="30"/>
      <point x="151" y="30" type="curve"/>
      <point x="132" y="29"/>
      <point x="116" y="35"/>
      <point x="101" y="46" type="curve"/>
      <point x="122" y="49"/>
      <point x="148" y="61"/>
      <point x="148" y="92" type="curve" smooth="yes"/>
      <point x="148" y="119"/>
      <point x="126" y="141"/>
      <point x="101" y="141" type="curve" smooth="yes"/>
      <point x="69" y="141"/>
      <point x="48" y="113"/>
      <point x="47" y="81" type="curve"/>
      <point x="47" y="33"/>
      <point x="80" y="-1"/>
      <point x="144" y="-1" type="curve" smooth="yes"/>
      <point x="222" y="-1"/>
      <point x="262" y="49"/>
      <point x="311" y="104" type="curve" smooth="yes"/>
      <point x="359" y="159"/>
      <point x="408" y="217"/>
      <point x="480" y="217" type="curve" smooth="yes"/>
      <point x="535" y="218"/>
      <point x="575" y="184"/>
      <point x="616" y="136" type="curve"/>
      <point x="609" y="126"/>
      <point x="590" y="104"/>
      <point x="575" y="89" type="curve"/>
      <point x="561" y="106"/>
      <point x="542" y="122"/>
      <point x="518" y="135" type="curve"/>
      <point x="515" y="159"/>
      <point x="500" y="178"/>
      <point x="468" y="179" type="curve"/>
      <point x="466" y="164"/>
      <point x="458" y="149"/>
      <point x="442" y="141" type="curve"/>
      <point x="410" y="124"/>
      <point x="390" y="103"/>
      <point x="390" y="70" type="curve" smooth="yes"/>
      <point x="390" y="29"/>
      <point x="420" y="0"/>
      <point x="467" y="0" type="curve" smooth="yes"/>
      <point x="505" y="0"/>
      <point x="539" y="14"/>
      <point x="578" y="41" type="curve"/>
      <point x="605" y="15"/>
      <point x="641" y="-2"/>
      <point x="676" y="4" type="curve" smooth="yes"/>
      <point x="726" y="9"/>
      <point x="751" y="51"/>
      <point x="751" y="78" type="curve" smooth="yes"/>
    </contour>
    <contour>
      <point x="534" y="49"/>
      <point x="507" y="33"/>
      <point x="480" y="32" type="curve" smooth="yes"/>
      <point x="453" y="32"/>
      <point x="414" y="47"/>
      <point x="421" y="83" type="curve"/>
      <point x="424" y="99"/>
      <point x="440" y="114"/>
      <point x="465" y="114" type="curve" smooth="yes"/>
      <point x="499" y="114"/>
      <point x="526" y="95"/>
      <point x="555" y="68" type="curve"/>
    </contour>
    <contour>
      <point x="645" y="21"/>
      <point x="617" y="42"/>
      <point x="596" y="61" type="curve"/>
      <point x="607" y="75"/>
      <point x="626" y="97"/>
      <point x="636" y="112" type="curve"/>
      <point x="643" y="104"/>
      <point x="649" y="98"/>
      <point x="656" y="90" type="curve"/>
      <point x="645" y="67"/>
      <point x="658" y="43"/>
      <point x="686" y="34" type="curve"/>
    </contour>
  </outline>
</glyph>
<glyph name="misraComma-ar" format="1">
  <advance width="517"/>
  <unicode hex="060F"/>
  <outline>
    <contour>
      <point x="499" y="-67"/>
      <point x="453" y="9"/>
      <point x="366" y="9" type="curve" smooth="yes"/>
      <point x="298" y="9"/>
      <point x="256" y="-41"/>
      <point x="233" y="-96" type="curve" smooth="yes"/>
      <point x="213" y="-139"/>
      <point x="205" y="-185"/>
      <point x="203" y="-206" type="curve"/>
      <point x="192" y="-198"/>
      <point x="133" y="-157"/>
      <point x="137" y="-58" type="curve" smooth="yes"/>
      <point x="141" y="-5"/>
      <point x="166" y="51"/>
      <point x="236" y="97" type="curve" smooth="yes"/>
      <point x="278" y="125"/>
      <point x="335" y="148"/>
      <point x="406" y="166" type="curve"/>
      <point x="414" y="192"/>
      <point x="421" y="216"/>
      <point x="428" y="245" type="curve"/>
      <point x="376" y="229"/>
      <point x="298" y="203"/>
      <point x="258" y="187" type="curve"/>
      <point x="213" y="200"/>
      <point x="179" y="223"/>
      <point x="164" y="259" type="curve"/>
      <point x="184" y="280"/>
      <point x="206" y="296"/>
      <point x="247" y="307" type="curve" smooth="yes"/>
      <point x="295" y="318"/>
      <point x="327" y="312"/>
      <point x="349" y="307" type="curve"/>
      <point x="371" y="337" type="line"/>
      <point x="335" y="368"/>
      <point x="286" y="385"/>
      <point x="249" y="385" type="curve" smooth="yes"/>
      <point x="205" y="385"/>
      <point x="163" y="351"/>
      <point x="140" y="318" type="curve" smooth="yes"/>
      <point x="116" y="284"/>
      <point x="106" y="246"/>
      <point x="113" y="215" type="curve" smooth="yes"/>
      <point x="120" y="183"/>
      <point x="151" y="152"/>
      <point x="180" y="135" type="curve"/>
      <point x="140" y="96"/>
      <point x="81" y="18"/>
      <point x="69" y="-95" type="curve" smooth="yes"/>
      <point x="61" y="-172"/>
      <point x="84" y="-233"/>
      <point x="125" y="-278" type="curve" smooth="yes"/>
      <point x="144" y="-298"/>
      <point x="165" y="-315"/>
      <point x="190" y="-327" type="curve"/>
      <point x="189" y="-351"/>
      <point x="188" y="-370"/>
      <point x="188" y="-373" type="curve"/>
      <point x="230" y="-397" type="line"/>
      <point x="232" y="-381"/>
      <point x="233" y="-361"/>
      <point x="235" y="-342" type="curve"/>
      <point x="298" y="-352"/>
      <point x="372" y="-343"/>
      <point x="423" y="-304" type="curve" smooth="yes"/>
      <point x="473" y="-266"/>
      <point x="496" y="-205"/>
      <point x="498" y="-146" type="curve"/>
    </contour>
    <contour>
      <point x="439" y="-142"/>
      <point x="423" y="-185"/>
      <point x="378" y="-208" type="curve" smooth="yes"/>
      <point x="345" y="-226"/>
      <point x="301" y="-232"/>
      <point x="250" y="-223" type="curve"/>
      <point x="250" y="-223"/>
      <point x="253" y="-178"/>
      <point x="271" y="-134" type="curve" smooth="yes"/>
      <point x="288" y="-91"/>
      <point x="320" y="-47"/>
      <point x="376" y="-46" type="curve" smooth="yes"/>
      <point x="409" y="-46"/>
      <point x="435" y="-76"/>
      <point x="437" y="-111" type="curve" smooth="yes"/>
    </contour>
    <contour>
      <point x="248" y="415" type="move" name="top"/>
    </contour>
    <contour>
      <point x="294" y="-443" type="move" name="bottom"/>
    </contour>
  </outline>
</glyph>
<glyph name="sadabove-ar" format="1">
  <advance width="0"/>
  <unicode hex="0610"/>
  <outline>
    <contour>
      <point x="-91" y="782"/>
      <point x="-83" y="772"/>
      <point x="-76" y="760" type="curve"/>
      <point x="-70" y="748"/>
      <point x="-61" y="727"/>
      <point x="-58" y="703" type="curve"/>
      <point x="-54" y="705" type="line"/>
      <point x="-50" y="716"/>
      <point x="-48" y="727"/>
      <point x="-48" y="736" type="curve" smooth="yes"/>
      <point x="-48" y="744"/>
      <point x="-49" y="754"/>
      <point x="-51" y="763" type="curve"/>
      <point x="-46" y="761"/>
      <point x="-40" y="758"/>
      <point x="-35" y="757" type="curve" smooth="yes"/>
      <point x="-28" y="756"/>
      <point x="-18" y="756"/>
      <point x="-6" y="756" type="curve" smooth="yes"/>
      <point x="18" y="756"/>
      <point x="43" y="765"/>
      <point x="63" y="781" type="curve"/>
      <point x="74" y="789"/>
      <point x="82" y="798"/>
      <point x="87" y="807" type="curve"/>
      <point x="94" y="818"/>
      <point x="97" y="828"/>
      <point x="97" y="840" type="curve" smooth="yes"/>
      <point x="97" y="845"/>
      <point x="94" y="855"/>
      <point x="83" y="864" type="curve" smooth="yes"/>
      <point x="75" y="870"/>
      <point x="65" y="874"/>
      <point x="57" y="874" type="curve" smooth="yes"/>
      <point x="32" y="874"/>
      <point x="7" y="849"/>
      <point x="-5" y="836" type="curve" smooth="yes"/>
      <point x="-20" y="820"/>
      <point x="-27" y="809"/>
      <point x="-38" y="794" type="curve"/>
      <point x="-55" y="796"/>
      <point x="-65" y="803"/>
      <point x="-75" y="817" type="curve"/>
      <point x="-84" y="808"/>
      <point x="-89" y="799"/>
      <point x="-96" y="789" type="curve"/>
    </contour>
    <contour>
      <point x="-13" y="804"/>
      <point x="-6" y="813"/>
      <point x="2" y="821" type="curve"/>
      <point x="12" y="831"/>
      <point x="23" y="843"/>
      <point x="43" y="843" type="curve" smooth="yes"/>
      <point x="52" y="843"/>
      <point x="61" y="837"/>
      <point x="66" y="832" type="curve"/>
      <point x="71" y="828"/>
      <point x="72" y="823"/>
      <point x="74" y="817" type="curve"/>
      <point x="69" y="811"/>
      <point x="64" y="807"/>
      <point x="52" y="801" type="curve"/>
      <point x="44" y="798"/>
      <point x="32" y="794"/>
      <point x="18" y="794" type="curve" smooth="yes"/>
      <point x="-20" y="794" type="line"/>
    </contour>
    <contour>
      <point x="1" y="874" type="move" name="top"/>
    </contour>
    <contour>
      <point x="1" y="683" type="move" name="_top"/>
    </contour>
  </outline>
</glyph>
<glyph name="rehHahabove-ar" format="1">
  <advance width="0"/>
  <unicode hex="0612"/>
  <outline>
    <contour>
      <point x="99" y="859"/>
      <point x="95" y="863"/>
      <point x="94" y="865" type="curve"/>
      <point x="86" y="856"/>
      <point x="80" y="847"/>
      <point x="73" y="836" type="curve"/>
      <point x="77" y="832"/>
      <point x="83" y="825"/>
      <point x="89" y="817" type="curve" smooth="yes"/>
      <point x="95" y="809"/>
      <point x="99" y="802"/>
      <point x="99" y="791" type="curve" smooth="yes"/>
      <point x="99" y="775"/>
      <point x="89" y="762"/>
      <point x="75" y="751" type="curve" smooth="yes"/>
      <point x="66" y="744"/>
      <point x="52" y="736"/>
      <point x="40" y="729" type="curve" smooth="yes"/>
      <point x="28" y="723"/>
      <point x="20" y="718"/>
      <point x="3" y="709" type="curve"/>
      <point x="9" y="701" type="line"/>
      <point x="16" y="704"/>
      <point x="25" y="705"/>
      <point x="32" y="705" type="curve" smooth="yes"/>
      <point x="39" y="705"/>
      <point x="48" y="704"/>
      <point x="55" y="704" type="curve" smooth="yes"/>
      <point x="66" y="704"/>
      <point x="75" y="706"/>
      <point x="83" y="712" type="curve" smooth="yes"/>
      <point x="91" y="717"/>
      <point x="98" y="725"/>
      <point x="102" y="734" type="curve" smooth="yes"/>
      <point x="115" y="755"/>
      <point x="118" y="783"/>
      <point x="118" y="800" type="curve" smooth="yes"/>
      <point x="118" y="825"/>
      <point x="111" y="840"/>
      <point x="104" y="851" type="curve" smooth="yes"/>
    </contour>
    <contour>
      <point x="37" y="802"/>
      <point x="40" y="814"/>
      <point x="42" y="824" type="curve"/>
      <point x="39" y="824"/>
      <point x="35" y="824"/>
      <point x="30" y="824" type="curve" smooth="yes"/>
      <point x="-9" y="822"/>
      <point x="-41" y="833"/>
      <point x="-48" y="836" type="curve" smooth="yes"/>
      <point x="-59" y="839"/>
      <point x="-67" y="841"/>
      <point x="-75" y="841" type="curve" smooth="yes"/>
      <point x="-85" y="841"/>
      <point x="-93" y="837"/>
      <point x="-101" y="828" type="curve" smooth="yes"/>
      <point x="-105" y="821"/>
      <point x="-111" y="813"/>
      <point x="-115" y="802" type="curve"/>
      <point x="-108" y="795" type="line"/>
      <point x="-103" y="804"/>
      <point x="-96" y="811"/>
      <point x="-78" y="811" type="curve" smooth="yes"/>
      <point x="-63" y="811"/>
      <point x="-47" y="806"/>
      <point x="-40" y="804" type="curve"/>
      <point x="-51" y="801"/>
      <point x="-61" y="795"/>
      <point x="-71" y="790" type="curve" smooth="yes"/>
      <point x="-84" y="780"/>
      <point x="-97" y="769"/>
      <point x="-106" y="754" type="curve" smooth="yes"/>
      <point x="-112" y="744"/>
      <point x="-117" y="733"/>
      <point x="-120" y="720" type="curve"/>
      <point x="-108" y="720" type="line"/>
      <point x="-86" y="779"/>
      <point x="-16" y="797"/>
      <point x="32" y="791" type="curve"/>
    </contour>
    <contour>
      <point x="-1" y="865" type="move" name="top"/>
    </contour>
    <contour>
      <point x="-1" y="681" type="move" name="_top"/>
    </contour>
  </outline>
</glyph>
<glyph name="rehDadabove-ar" format="1">
  <advance width="0"/>
  <unicode hex="0613"/>
  <outline>
    <contour>
      <point x="-130" y="783"/>
      <point x="-123" y="773"/>
      <point x="-117" y="762" type="curve"/>
      <point x="-111" y="748"/>
      <point x="-101" y="728"/>
      <point x="-99" y="704" type="curve"/>
      <point x="-94" y="706" type="line"/>
      <point x="-90" y="718"/>
      <point x="-88" y="728"/>
      <point x="-88" y="737" type="curve" smooth="yes"/>
      <point x="-88" y="744"/>
      <point x="-89" y="754"/>
      <point x="-92" y="764" type="curve"/>
      <point x="-86" y="761"/>
      <point x="-81" y="760"/>
      <point x="-75" y="759" type="curve" smooth="yes"/>
      <point x="-68" y="757"/>
      <point x="-58" y="757"/>
      <point x="-46" y="757" type="curve" smooth="yes"/>
      <point x="-23" y="757"/>
      <point x="3" y="765"/>
      <point x="23" y="782" type="curve"/>
      <point x="33" y="790"/>
      <point x="42" y="800"/>
      <point x="47" y="808" type="curve"/>
      <point x="54" y="819"/>
      <point x="57" y="829"/>
      <point x="57" y="840" type="curve" smooth="yes"/>
      <point x="57" y="846"/>
      <point x="54" y="856"/>
      <point x="42" y="865" type="curve" smooth="yes"/>
      <point x="35" y="870"/>
      <point x="25" y="874"/>
      <point x="17" y="874" type="curve" smooth="yes"/>
      <point x="-8" y="874"/>
      <point x="-33" y="850"/>
      <point x="-45" y="837" type="curve" smooth="yes"/>
      <point x="-60" y="822"/>
      <point x="-68" y="810"/>
      <point x="-78" y="795" type="curve"/>
      <point x="-96" y="797"/>
      <point x="-104" y="804"/>
      <point x="-116" y="818" type="curve"/>
      <point x="-124" y="809"/>
      <point x="-130" y="800"/>
      <point x="-136" y="790" type="curve"/>
    </contour>
    <contour>
      <point x="-53" y="805"/>
      <point x="-45" y="814"/>
      <point x="-38" y="822" type="curve"/>
      <point x="-27" y="832"/>
      <point x="-17" y="844"/>
      <point x="3" y="844" type="curve" smooth="yes"/>
      <point x="12" y="844"/>
      <point x="21" y="838"/>
      <point x="26" y="833" type="curve"/>
      <point x="31" y="828"/>
      <point x="32" y="824"/>
      <point x="35" y="818" type="curve"/>
      <point x="29" y="812"/>
      <point x="24" y="807"/>
      <point x="12" y="802" type="curve"/>
      <point x="4" y="798"/>
      <point x="-8" y="795"/>
      <point x="-22" y="795" type="curve" smooth="yes"/>
      <point x="-60" y="795" type="line"/>
    </contour>
    <contour>
      <point x="5" y="906"/>
      <point x="13" y="900"/>
      <point x="19" y="892" type="curve"/>
      <point x="26" y="900"/>
      <point x="35" y="907"/>
      <point x="38" y="913" type="curve"/>
      <point x="35" y="919"/>
      <point x="25" y="928"/>
      <point x="17" y="934" type="curve"/>
      <point x="13" y="928"/>
      <point x="3" y="918"/>
      <point x="-3" y="913" type="curve"/>
    </contour>
    <contour>
      <point x="23" y="707" type="line"/>
      <point x="32" y="709"/>
      <point x="41" y="710"/>
      <point x="47" y="710" type="curve" smooth="yes"/>
      <point x="54" y="710"/>
      <point x="63" y="709"/>
      <point x="70" y="709" type="curve" smooth="yes"/>
      <point x="82" y="709"/>
      <point x="89" y="712"/>
      <point x="97" y="718" type="curve"/>
      <point x="106" y="723"/>
      <point x="112" y="731"/>
      <point x="118" y="740" type="curve"/>
      <point x="130" y="761"/>
      <point x="132" y="790"/>
      <point x="132" y="805" type="curve" smooth="yes"/>
      <point x="132" y="830"/>
      <point x="126" y="847"/>
      <point x="118" y="858" type="curve" smooth="yes"/>
      <point x="114" y="865"/>
      <point x="110" y="870"/>
      <point x="108" y="871" type="curve"/>
      <point x="101" y="862"/>
      <point x="94" y="853"/>
      <point x="88" y="842" type="curve"/>
      <point x="91" y="838"/>
      <point x="99" y="831"/>
      <point x="104" y="823" type="curve" smooth="yes"/>
      <point x="110" y="815"/>
      <point x="114" y="807"/>
      <point x="114" y="796" type="curve" smooth="yes"/>
      <point x="114" y="781"/>
      <point x="104" y="769"/>
      <point x="89" y="758" type="curve"/>
      <point x="81" y="750"/>
      <point x="66" y="741"/>
      <point x="55" y="735" type="curve" smooth="yes"/>
      <point x="45" y="730"/>
      <point x="36" y="724"/>
      <point x="18" y="715" type="curve"/>
    </contour>
    <contour>
      <point x="-2" y="934" type="move" name="top"/>
    </contour>
    <contour>
      <point x="-2" y="684" type="move" name="_top"/>
    </contour>
  </outline>
</glyph>
<glyph name="tahabove-ar" format="1">
  <advance width="0"/>
  <unicode hex="0615"/>
  <outline>
    <contour>
      <point x="-57" y="856" type="line"/>
      <point x="-50" y="844"/>
      <point x="-36" y="805"/>
      <point x="-34" y="757" type="curve"/>
      <point x="-43" y="741" type="line"/>
      <point x="-73" y="741" type="line"/>
      <point x="-62" y="702" type="line"/>
      <point x="-18" y="702" type="line"/>
      <point x="3" y="702"/>
      <point x="26" y="711"/>
      <point x="45" y="724" type="curve" smooth="yes"/>
      <point x="64" y="739"/>
      <point x="74" y="758"/>
      <point x="74" y="777" type="curve" smooth="yes"/>
      <point x="74" y="795"/>
      <point x="52" y="810"/>
      <point x="36" y="810" type="curve" smooth="yes"/>
      <point x="22" y="810"/>
      <point x="1" y="800"/>
      <point x="-19" y="771" type="curve"/>
      <point x="-18" y="790"/>
      <point x="-18" y="801"/>
      <point x="-24" y="825" type="curve"/>
      <point x="-25" y="843"/>
      <point x="-21" y="846"/>
      <point x="-12" y="852" type="curve"/>
      <point x="-22" y="863"/>
      <point x="-30" y="873"/>
      <point x="-36" y="884" type="curve"/>
    </contour>
    <contour>
      <point x="46" y="749"/>
      <point x="26" y="739"/>
      <point x="5" y="739" type="curve" smooth="yes"/>
      <point x="-21" y="739" type="line"/>
      <point x="-12" y="758"/>
      <point x="2" y="779"/>
      <point x="23" y="780" type="curve" smooth="yes"/>
      <point x="42" y="780"/>
      <point x="50" y="769"/>
      <point x="55" y="760" type="curve"/>
    </contour>
    <contour>
      <point x="1" y="884" type="move" name="top"/>
    </contour>
    <contour>
      <point x="1" y="679" type="move" name="_top"/>
    </contour>
  </outline>
</glyph>
<glyph name="alefLamYehabove-ar" format="1">
  <advance width="0"/>
  <unicode hex="0616"/>
  <outline>
    <contour>
      <point x="-117" y="726"/>
      <point x="-115" y="718"/>
      <point x="-106" y="711" type="curve"/>
      <point x="-96" y="704"/>
      <point x="-80" y="701"/>
      <point x="-61" y="701" type="curve" smooth="yes"/>
      <point x="21" y="701" type="line"/>
      <point x="31" y="712"/>
      <point x="37" y="719"/>
      <point x="41" y="731" type="curve"/>
      <point x="-67" y="731" type="line" smooth="yes"/>
      <point x="-82" y="731"/>
      <point x="-95" y="732"/>
      <point x="-95" y="743" type="curve" smooth="yes"/>
      <point x="-95" y="746"/>
      <point x="-91" y="750"/>
      <point x="-87" y="751" type="curve" smooth="yes"/>
      <point x="-83" y="753"/>
      <point x="-78" y="755"/>
      <point x="-73" y="757" type="curve"/>
      <point x="-65" y="762"/>
      <point x="-58" y="766"/>
      <point x="-54" y="769" type="curve" smooth="yes"/>
      <point x="-51" y="772"/>
      <point x="-44" y="778"/>
      <point x="-29" y="778" type="curve" smooth="yes"/>
      <point x="28" y="778" type="line" smooth="yes"/>
      <point x="33" y="778"/>
      <point x="38" y="779"/>
      <point x="42" y="780" type="curve" smooth="yes"/>
      <point x="49" y="782"/>
      <point x="55" y="786"/>
      <point x="60" y="793" type="curve"/>
      <point x="65" y="800"/>
      <point x="69" y="811"/>
      <point x="69" y="823" type="curve" smooth="yes"/>
      <point x="69" y="832"/>
      <point x="68" y="840"/>
      <point x="64" y="867" type="curve" smooth="yes"/>
      <point x="63" y="873"/>
      <point x="62" y="882"/>
      <point x="61" y="888" type="curve"/>
      <point x="60" y="901"/>
      <point x="64" y="905"/>
      <point x="70" y="910" type="curve"/>
      <point x="61" y="920"/>
      <point x="54" y="927"/>
      <point x="50" y="937" type="curve"/>
      <point x="34" y="913" type="line"/>
      <point x="43" y="885"/>
      <point x="49" y="853"/>
      <point x="53" y="822" type="curve"/>
      <point x="49" y="815"/>
      <point x="39" y="809"/>
      <point x="28" y="809" type="curve" smooth="yes"/>
      <point x="-6" y="809" type="line" smooth="yes"/>
      <point x="-17" y="809"/>
      <point x="-26" y="806"/>
      <point x="-34" y="802" type="curve"/>
      <point x="-40" y="798"/>
      <point x="-44" y="795"/>
      <point x="-48" y="791" type="curve"/>
      <point x="-54" y="786"/>
      <point x="-64" y="780"/>
      <point x="-73" y="776" type="curve"/>
      <point x="-82" y="771"/>
      <point x="-92" y="767"/>
      <point x="-101" y="760" type="curve"/>
      <point x="-114" y="749"/>
      <point x="-117" y="739"/>
      <point x="-117" y="731" type="curve" smooth="yes"/>
    </contour>
    <contour>
      <point x="85" y="911"/>
      <point x="86" y="894"/>
      <point x="89" y="870" type="curve"/>
      <point x="90" y="852"/>
      <point x="92" y="840"/>
      <point x="93" y="831" type="curve" smooth="yes"/>
      <point x="94" y="823"/>
      <point x="95" y="817"/>
      <point x="96" y="811" type="curve"/>
      <point x="97" y="798"/>
      <point x="96" y="784"/>
      <point x="96" y="778" type="curve"/>
      <point x="103" y="778" type="line"/>
      <point x="105" y="783"/>
      <point x="107" y="790"/>
      <point x="108" y="795" type="curve"/>
      <point x="111" y="815"/>
      <point x="114" y="836"/>
      <point x="109" y="891" type="curve"/>
      <point x="108" y="898"/>
      <point x="107" y="921"/>
      <point x="106" y="937" type="curve"/>
      <point x="100" y="937" type="line"/>
      <point x="96" y="932"/>
      <point x="91" y="924"/>
      <point x="85" y="913" type="curve"/>
    </contour>
    <contour>
      <point x="-3" y="937" type="move" name="top"/>
    </contour>
    <contour>
      <point x="-3" y="681" type="move" name="_top"/>
    </contour>
  </outline>
</glyph>
<glyph name="question-ar" format="1">
  <advance width="383"/>
  <unicode hex="061F"/>
  <outline>
    <contour>
      <point x="251" y="278" type="line"/>
      <point x="186" y="304"/>
      <point x="152" y="349"/>
      <point x="152" y="405" type="curve" smooth="yes"/>
      <point x="152" y="464"/>
      <point x="185" y="498"/>
      <point x="239" y="498" type="curve" smooth="yes"/>
      <point x="285" y="498"/>
      <point x="327" y="475"/>
      <point x="351" y="437" type="curve"/>
      <point x="361" y="464"/>
      <point x="365" y="486"/>
      <point x="365" y="517" type="curve"/>
      <point x="321" y="547"/>
      <point x="270" y="563"/>
      <point x="213" y="563" type="curve" smooth="yes"/>
      <point x="98" y="563"/>
      <point x="37" y="508"/>
      <point x="37" y="406" type="curve" smooth="yes"/>
      <point x="37" y="307"/>
      <point x="131" y="240"/>
      <point x="231" y="228" type="curve"/>
    </contour>
    <contour>
      <point x="246" y="31"/>
      <point x="271" y="56"/>
      <point x="301" y="81" type="curve"/>
      <point x="276" y="111"/>
      <point x="251" y="136"/>
      <point x="221" y="161" type="curve"/>
      <point x="196" y="131"/>
      <point x="171" y="105"/>
      <point x="141" y="81" type="curve"/>
      <point x="166" y="51"/>
      <point x="191" y="25"/>
      <point x="221" y="1" type="curve"/>
    </contour>
  </outline>
</glyph>
<glyph name="alef-ar" format="1">
  <advance width="174"/>
  <unicode hex="0627"/>
  <outline>
    <contour>
      <point x="33" y="484"/>
      <point x="35" y="425"/>
      <point x="44" y="334" type="curve" smooth="yes"/>
      <point x="50" y="272"/>
      <point x="57" y="225"/>
      <point x="61" y="195" type="curve" smooth="yes"/>
      <point x="66" y="164"/>
      <point x="69" y="139"/>
      <point x="71" y="121" type="curve" smooth="yes"/>
      <point x="75" y="73"/>
      <point x="74" y="19"/>
      <point x="73" y="0" type="curve"/>
      <point x="99" y="0" type="line"/>
      <point x="106" y="17"/>
      <point x="112" y="39"/>
      <point x="116" y="60" type="curve" smooth="yes"/>
      <point x="129" y="133"/>
      <point x="139" y="216"/>
      <point x="121" y="410" type="curve" smooth="yes"/>
      <point x="120" y="422"/>
      <point x="117" y="453"/>
      <point x="116" y="461" type="curve" smooth="yes"/>
      <point x="115" y="488"/>
      <point x="109" y="547"/>
      <point x="110" y="581" type="curve" smooth="yes"/>
      <point x="89" y="581" type="line"/>
      <point x="72" y="561"/>
      <point x="53" y="532"/>
      <point x="33" y="492" type="curve"/>
    </contour>
    <contour>
      <point x="92" y="596" type="move" name="top"/>
    </contour>
    <contour>
      <point x="86" y="-28" type="move" name="bottom"/>
    </contour>
  </outline>
</glyph>
<glyph name="hah-ar" format="1">
  <advance width="589"/>
  <unicode hex="062D"/>
  <outline>
    <contour>
      <point x="521" y="267"/>
      <point x="509" y="266"/>
      <point x="496" y="266" type="curve" smooth="yes"/>
      <point x="385" y="264"/>
      <point x="299" y="293"/>
      <point x="278" y="300" type="curve" smooth="yes"/>
      <point x="248" y="309"/>
      <point x="226" y="315"/>
      <point x="204" y="315" type="curve" smooth="yes"/>
      <point x="172" y="315"/>
      <point x="151" y="305"/>
      <point x="130" y="276" type="curve" smooth="yes"/>
      <point x="116" y="258"/>
      <point x="103" y="237"/>
      <point x="88" y="204" type="curve"/>
      <point x="110" y="187" type="line"/>
      <point x="124" y="210"/>
      <point x="145" y="232"/>
      <point x="195" y="232" type="curve" smooth="yes"/>
      <point x="236" y="232"/>
      <point x="279" y="216"/>
      <point x="299" y="209" type="curve"/>
      <point x="269" y="200"/>
      <point x="240" y="186"/>
      <point x="213" y="168" type="curve" smooth="yes"/>
      <point x="175" y="144"/>
      <point x="142" y="111"/>
      <point x="117" y="73" type="curve" smooth="yes"/>
      <point x="89" y="29"/>
      <point x="70" y="-24"/>
      <point x="67" y="-85" type="curve" smooth="yes"/>
      <point x="64" y="-153"/>
      <point x="83" y="-217"/>
      <point x="120" y="-261" type="curve" smooth="yes"/>
      <point x="161" y="-308"/>
      <point x="221" y="-336"/>
      <point x="292" y="-336" type="curve" smooth="yes"/>
      <point x="340" y="-336"/>
      <point x="365" y="-323"/>
      <point x="390" y="-309" type="curve" smooth="yes"/>
      <point x="415" y="-296"/>
      <point x="443" y="-283"/>
      <point x="487" y="-282" type="curve"/>
      <point x="496" y="-254" type="line"/>
      <point x="458" y="-248"/>
      <point x="439" y="-248"/>
      <point x="406" y="-245" type="curve" smooth="yes"/>
      <point x="376" y="-243"/>
      <point x="337" y="-239"/>
      <point x="315" y="-235" type="curve" smooth="yes"/>
      <point x="251" y="-224"/>
      <point x="204" y="-203"/>
      <point x="174" y="-171" type="curve" smooth="yes"/>
      <point x="143" y="-137"/>
      <point x="131" y="-94"/>
      <point x="135" y="-43" type="curve" smooth="yes"/>
      <point x="141" y="31"/>
      <point x="183" y="86"/>
      <point x="243" y="122" type="curve" smooth="yes"/>
      <point x="313" y="166"/>
      <point x="410" y="183"/>
      <point x="503" y="172" type="curve"/>
      <point x="516" y="205"/>
      <point x="524" y="240"/>
      <point x="532" y="267" type="curve"/>
    </contour>
    <contour>
      <point x="325" y="-32" type="move" name="center"/>
    </contour>
    <contour>
      <point x="293" y="-366" type="move" name="bottom"/>
    </contour>
    <contour>
      <point x="268" y="349" type="move" name="top"/>
    </contour>
  </outline>
</glyph>
<glyph name="seen-ar" format="1">
  <advance width="904"/>
  <unicode hex="0633"/>
  <outline>
    <contour>
      <point x="785" y="260"/>
      <point x="769" y="240"/>
      <point x="756" y="217" type="curve"/>
      <point x="801" y="154" type="line"/>
      <point x="795" y="132"/>
      <point x="771" y="108"/>
      <point x="738" y="108" type="curve" smooth="yes"/>
      <point x="680" y="108"/>
      <point x="662" y="144"/>
      <point x="671" y="207" type="curve"/>
      <point x="639" y="193" type="line"/>
      <point x="636" y="157"/>
      <point x="622" y="109"/>
      <point x="563" y="109" type="curve" smooth="yes"/>
      <point x="519" y="109"/>
      <point x="480" y="145"/>
      <point x="467" y="177" type="curve"/>
      <point x="448" y="156"/>
      <point x="427" y="128"/>
      <point x="411" y="97" type="curve"/>
      <point x="440" y="59"/>
      <point x="491" y="-14"/>
      <point x="491" y="-57" type="curve" smooth="yes"/>
      <point x="491" y="-87"/>
      <point x="464" y="-114"/>
      <point x="423" y="-132" type="curve" smooth="yes"/>
      <point x="389" y="-148"/>
      <point x="346" y="-157"/>
      <point x="296" y="-157" type="curve" smooth="yes"/>
      <point x="224" y="-157"/>
      <point x="169" y="-137"/>
      <point x="141" y="-103" type="curve" smooth="yes"/>
      <point x="115" y="-70"/>
      <point x="116" y="-26"/>
      <point x="127" y="29" type="curve"/>
      <point x="100" y="39" type="line"/>
      <point x="81" y="-3"/>
      <point x="70" y="-49"/>
      <point x="68" y="-82" type="curve" smooth="yes"/>
      <point x="66" y="-112"/>
      <point x="69" y="-143"/>
      <point x="81" y="-173" type="curve" smooth="yes"/>
      <point x="96" y="-210"/>
      <point x="122" y="-237"/>
      <point x="159" y="-256" type="curve" smooth="yes"/>
      <point x="194" y="-274"/>
      <point x="237" y="-283"/>
      <point x="288" y="-283" type="curve" smooth="yes"/>
      <point x="327" y="-283"/>
      <point x="361" y="-279"/>
      <point x="392" y="-269" type="curve" smooth="yes"/>
      <point x="426" y="-258"/>
      <point x="455" y="-241"/>
      <point x="480" y="-214" type="curve" smooth="yes"/>
      <point x="520" y="-172"/>
      <point x="542" y="-112"/>
      <point x="542" y="-39" type="curve" smooth="yes"/>
      <point x="542" y="-23"/>
      <point x="540" y="-5"/>
      <point x="539" y="10" type="curve"/>
      <point x="568" y="1"/>
      <point x="593" y="3"/>
      <point x="613" y="14" type="curve" smooth="yes"/>
      <point x="631" y="25"/>
      <point x="644" y="44"/>
      <point x="649" y="68" type="curve"/>
      <point x="650" y="66"/>
      <point x="657" y="46"/>
      <point x="675" y="29" type="curve" smooth="yes"/>
      <point x="689" y="18"/>
      <point x="708" y="9"/>
      <point x="736" y="9" type="curve" smooth="yes"/>
      <point x="772" y="9"/>
      <point x="799" y="29"/>
      <point x="817" y="54" type="curve" smooth="yes"/>
      <point x="841" y="88"/>
      <point x="847" y="133"/>
      <point x="847" y="147" type="curve" smooth="yes"/>
      <point x="847" y="229"/>
      <point x="810" y="270"/>
      <point x="802" y="279" type="curve"/>
    </contour>
    <contour>
      <point x="661" y="-108" type="move" name="center"/>
    </contour>
    <contour>
      <point x="291" y="-313" type="move" name="bottom"/>
    </contour>
    <contour>
      <point x="646" y="244" type="move" name="top"/>
    </contour>
  </outline>
</glyph>
<glyph name="tah-ar" format="1">
  <advance width="656"/>
  <unicode hex="0637"/>
  <outline>
    <contour>
      <point x="600" y="242"/>
      <point x="591" y="268"/>
      <point x="560" y="293" type="curve" smooth="yes"/>
      <point x="538" y="310"/>
      <point x="511" y="322"/>
      <point x="489" y="322" type="curve" smooth="yes"/>
      <point x="442" y="322"/>
      <point x="401" y="300"/>
      <point x="346" y="244" type="curve" smooth="yes"/>
      <point x="335" y="237"/>
      <point x="320" y="223"/>
      <point x="306" y="208" type="curve"/>
      <point x="308" y="215"/>
      <point x="314" y="243"/>
      <point x="311" y="292" type="curve" smooth="yes"/>
      <point x="310" y="317"/>
      <point x="307" y="352"/>
      <point x="301" y="397" type="curve"/>
      <point x="295" y="446"/>
      <point x="315" y="468"/>
      <point x="331" y="482" type="curve"/>
      <point x="296" y="517"/>
      <point x="272" y="561"/>
      <point x="262" y="582" type="curve"/>
      <point x="204" y="493" type="line"/>
      <point x="207" y="486"/>
      <point x="218" y="458"/>
      <point x="230" y="408" type="curve" smooth="yes"/>
      <point x="244" y="344"/>
      <point x="259" y="255"/>
      <point x="262" y="160" type="curve"/>
      <point x="250" y="146"/>
      <point x="237" y="131"/>
      <point x="222" y="112" type="curve"/>
      <point x="200" y="113"/>
      <point x="106" y="118"/>
      <point x="67" y="123" type="curve"/>
      <point x="94" y="70"/>
      <point x="128" y="27"/>
      <point x="168" y="-3" type="curve"/>
      <point x="185" y="-2"/>
      <point x="209" y="-1"/>
      <point x="237" y="0" type="curve" smooth="yes"/>
      <point x="255" y="0"/>
      <point x="290" y="1"/>
      <point x="324" y="2" type="curve" smooth="yes"/>
      <point x="388" y="4"/>
      <point x="456" y="30"/>
      <point x="509" y="70" type="curve" smooth="yes"/>
      <point x="568" y="113"/>
      <point x="600" y="168"/>
      <point x="600" y="224" type="curve" smooth="yes"/>
    </contour>
    <contour>
      <point x="516" y="155"/>
      <point x="500" y="141"/>
      <point x="471" y="129" type="curve" smooth="yes"/>
      <point x="445" y="119"/>
      <point x="414" y="112"/>
      <point x="377" y="112" type="curve" smooth="yes"/>
      <point x="279" y="112" type="line"/>
      <point x="293" y="128"/>
      <point x="307" y="143"/>
      <point x="321" y="158" type="curve" smooth="yes"/>
      <point x="358" y="194"/>
      <point x="405" y="229"/>
      <point x="444" y="229" type="curve" smooth="yes"/>
      <point x="495" y="229"/>
      <point x="518" y="207"/>
      <point x="534" y="173" type="curve"/>
    </contour>
    <contour>
      <point x="476" y="352" type="move" name="top"/>
    </contour>
    <contour>
      <point x="289" y="-26" type="move" name="bottom"/>
    </contour>
  </outline>
</glyph>
<glyph name="kaf-ar" format="1">
  <advance width="771"/>
  <unicode hex="0643"/>
  <outline>
    <contour>
      <point x="681" y="514"/>
      <point x="658" y="546"/>
      <point x="643" y="581" type="curve"/>
      <point x="579" y="492" type="line"/>
      <point x="594" y="452"/>
      <point x="610" y="390"/>
      <point x="622" y="336" type="curve" smooth="yes"/>
      <point x="632" y="287"/>
      <point x="643" y="225"/>
      <point x="651" y="160" type="curve"/>
      <point x="628" y="128"/>
      <point x="617" y="114"/>
      <point x="563" y="110" type="curve"/>
      <point x="530" y="107"/>
      <point x="482" y="106"/>
      <point x="425" y="106" type="curve" smooth="yes"/>
      <point x="360" y="106"/>
      <point x="284" y="108"/>
      <point x="234" y="115" type="curve" smooth="yes"/>
      <point x="187" y="122"/>
      <point x="147" y="133"/>
      <point x="122" y="167" type="curve" smooth="yes"/>
      <point x="111" y="182"/>
      <point x="102" y="204"/>
      <point x="98" y="232" type="curve"/>
      <point x="71" y="240" type="line"/>
      <point x="64" y="188"/>
      <point x="65" y="145"/>
      <point x="78" y="110" type="curve" smooth="yes"/>
      <point x="87" y="83"/>
      <point x="103" y="61"/>
      <point x="129" y="42" type="curve" smooth="yes"/>
      <point x="153" y="24"/>
      <point x="189" y="8"/>
      <point x="234" y="1" type="curve" smooth="yes"/>
      <point x="272" y="-4"/>
      <point x="333" y="-7"/>
      <point x="401" y="-7" type="curve" smooth="yes"/>
      <point x="474" y="-7"/>
      <point x="551" y="-4"/>
      <point x="587" y="0" type="curve" smooth="yes"/>
      <point x="618" y="5"/>
      <point x="651" y="18"/>
      <point x="676" y="51" type="curve" smooth="yes"/>
      <point x="697" y="79"/>
      <point x="709" y="117"/>
      <point x="711" y="164" type="curve" smooth="yes"/>
      <point x="710" y="205"/>
      <point x="708" y="218"/>
      <point x="693" y="324" type="curve" smooth="yes"/>
      <point x="687" y="364"/>
      <point x="685" y="380"/>
      <point x="682" y="399" type="curve"/>
      <point x="679" y="441"/>
      <point x="685" y="459"/>
      <point x="712" y="482" type="curve"/>
    </contour>
    <contour>
      <point x="467" y="262"/>
      <point x="446" y="264"/>
      <point x="414" y="264" type="curve" smooth="yes"/>
      <point x="392" y="264"/>
      <point x="371" y="268"/>
      <point x="371" y="283" type="curve"/>
      <point x="386" y="296"/>
      <point x="407" y="306"/>
      <point x="432" y="313" type="curve"/>
      <point x="442" y="326"/>
      <point x="448" y="336"/>
      <point x="456" y="353" type="curve"/>
      <point x="437" y="349"/>
      <point x="412" y="341"/>
      <point x="386" y="328" type="curve"/>
      <point x="352" y="310"/>
      <point x="335" y="288"/>
      <point x="335" y="263" type="curve" smooth="yes"/>
      <point x="335" y="243"/>
      <point x="353" y="232"/>
      <point x="386" y="230" type="curve" smooth="yes"/>
      <point x="410" y="229"/>
      <point x="421" y="227"/>
      <point x="421" y="221" type="curve"/>
      <point x="421" y="203"/>
      <point x="341" y="181"/>
      <point x="291" y="167" type="curve"/>
      <point x="327" y="162"/>
      <point x="363" y="161"/>
      <point x="402" y="167" type="curve" smooth="yes"/>
      <point x="449" y="194"/>
      <point x="467" y="215"/>
      <point x="467" y="239" type="curve" smooth="yes"/>
    </contour>
    <contour>
      <point x="397" y="372" type="move" name="top"/>
    </contour>
    <contour>
      <point x="398" y="-41" type="move" name="bottom"/>
    </contour>
  </outline>
</glyph>
<glyph name="lam-ar" format="1">
  <advance width="565"/>
  <unicode hex="0644"/>
  <outline>
    <contour>
      <point x="468" y="543"/>
      <point x="447" y="578"/>
      <point x="431" y="610" type="curve"/>
      <point x="366" y="522" type="line"/>
      <point x="386" y="452"/>
      <point x="409" y="363"/>
      <point x="436" y="199" type="curve" smooth="yes"/>
      <point x="448" y="129"/>
      <point x="454" y="80"/>
      <point x="454" y="56" type="curve" smooth="yes"/>
      <point x="454" y="24"/>
      <point x="444" y="1"/>
      <point x="420" y="-17" type="curve" smooth="yes"/>
      <point x="391" y="-37"/>
      <point x="346" y="-48"/>
      <point x="293" y="-48" type="curve" smooth="yes"/>
      <point x="255" y="-48"/>
      <point x="223" y="-42"/>
      <point x="200" y="-34" type="curve" smooth="yes"/>
      <point x="164" y="-22"/>
      <point x="145" y="-5"/>
      <point x="135" y="13" type="curve" smooth="yes"/>
      <point x="112" y="49"/>
      <point x="119" y="101"/>
      <point x="127" y="138" type="curve"/>
      <point x="100" y="147" type="line"/>
      <point x="81" y="100"/>
      <point x="70" y="63"/>
      <point x="67" y="26" type="curve" smooth="yes"/>
      <point x="65" y="-5"/>
      <point x="69" y="-36"/>
      <point x="80" y="-65" type="curve" smooth="yes"/>
      <point x="94" y="-99"/>
      <point x="119" y="-127"/>
      <point x="156" y="-147" type="curve" smooth="yes"/>
      <point x="192" y="-165"/>
      <point x="236" y="-175"/>
      <point x="288" y="-175" type="curve" smooth="yes"/>
      <point x="359" y="-175"/>
      <point x="415" y="-154"/>
      <point x="452" y="-111" type="curve" smooth="yes"/>
      <point x="475" y="-85"/>
      <point x="490" y="-52"/>
      <point x="499" y="-13" type="curve" smooth="yes"/>
      <point x="508" y="24"/>
      <point x="510" y="65"/>
      <point x="505" y="110" type="curve"/>
      <point x="491" y="259"/>
      <point x="481" y="346"/>
      <point x="471" y="432" type="curve"/>
      <point x="466" y="476"/>
      <point x="472" y="494"/>
      <point x="499" y="513" type="curve"/>
    </contour>
    <contour>
      <point x="332" y="602" type="move" name="top"/>
    </contour>
    <contour>
      <point x="288" y="-205" type="move" name="bottom"/>
    </contour>
  </outline>
</glyph>
<glyph name="meem-ar" format="1">
  <advance width="417"/>
  <unicode hex="0645"/>
  <outline>
    <contour>
      <point x="355" y="240"/>
      <point x="331" y="272"/>
      <point x="296" y="295" type="curve" smooth="yes"/>
      <point x="276" y="309"/>
      <point x="251" y="319"/>
      <point x="225" y="319" type="curve" smooth="yes"/>
      <point x="193" y="319"/>
      <point x="170" y="304"/>
      <point x="155" y="274" type="curve" smooth="yes"/>
      <point x="145" y="258"/>
      <point x="139" y="239"/>
      <point x="137" y="221" type="curve"/>
      <point x="169" y="237"/>
      <point x="214" y="237"/>
      <point x="252" y="205" type="curve"/>
      <point x="180" y="204"/>
      <point x="133" y="181"/>
      <point x="100" y="136" type="curve" smooth="yes"/>
      <point x="80" y="112"/>
      <point x="60" y="66"/>
      <point x="69" y="-1" type="curve" smooth="yes"/>
      <point x="73" y="-39"/>
      <point x="80" y="-84"/>
      <point x="88" y="-130" type="curve" smooth="yes"/>
      <point x="97" y="-182"/>
      <point x="110" y="-272"/>
      <point x="118" y="-349" type="curve"/>
      <point x="156" y="-335" type="line"/>
      <point x="157" y="-257"/>
      <point x="147" y="-151"/>
      <point x="132" y="-14" type="curve" smooth="yes"/>
      <point x="128" y="17"/>
      <point x="135" y="43"/>
      <point x="155" y="65" type="curve" smooth="yes"/>
      <point x="175" y="88"/>
      <point x="207" y="104"/>
      <point x="250" y="113" type="curve" smooth="yes"/>
      <point x="286" y="121"/>
      <point x="320" y="122"/>
      <point x="345" y="121" type="curve"/>
      <point x="353" y="163"/>
      <point x="358" y="200"/>
      <point x="360" y="235" type="curve"/>
    </contour>
    <contour>
      <point x="223" y="349" type="move" name="top"/>
    </contour>
    <contour>
      <point x="140" y="-371" type="move" name="bottom"/>
    </contour>
  </outline>
</glyph>
<glyph name="alefMaksura-ar" format="1">
  <advance width="670"/>
  <unicode hex="0649"/>
  <outline>
    <contour>
      <point x="428" y="143"/>
      <point x="401" y="155"/>
      <point x="401" y="173" type="curve"/>
      <point x="401" y="178"/>
      <point x="409" y="205"/>
      <point x="432" y="230" type="curve" smooth="yes"/>
      <point x="457" y="257"/>
      <point x="494" y="281"/>
      <point x="550" y="281" type="curve"/>
      <point x="551" y="279"/>
      <point x="570" y="259"/>
      <point x="586" y="229" type="curve"/>
      <point x="611" y="241" type="line"/>
      <point x="612" y="253"/>
      <point x="612" y="322"/>
      <point x="579" y="357" type="curve" smooth="yes"/>
      <point x="565" y="373"/>
      <point x="545" y="380"/>
      <point x="523" y="380" type="curve" smooth="yes"/>
      <point x="481" y="380"/>
      <point x="429" y="354"/>
      <point x="384" y="266" type="curve" smooth="yes"/>
      <point x="352" y="202"/>
      <point x="339" y="136"/>
      <point x="339" y="114" type="curve" smooth="yes"/>
      <point x="338" y="93"/>
      <point x="352" y="74"/>
      <point x="376" y="61" type="curve" smooth="yes"/>
      <point x="396" y="50"/>
      <point x="421" y="44"/>
      <point x="445" y="40" type="curve" smooth="yes"/>
      <point x="513" y="28"/>
      <point x="546" y="23"/>
      <point x="551" y="22" type="curve"/>
      <point x="546" y="18"/>
      <point x="518" y="-17"/>
      <point x="459" y="-42" type="curve" smooth="yes"/>
      <point x="423" y="-58"/>
      <point x="369" y="-72"/>
      <point x="298" y="-72" type="curve" smooth="yes"/>
      <point x="225" y="-72"/>
      <point x="171" y="-56"/>
      <point x="141" y="-20" type="curve" smooth="yes"/>
      <point x="109" y="19"/>
      <point x="120" y="86"/>
      <point x="127" y="124" type="curve"/>
      <point x="100" y="134" type="line"/>
      <point x="88" y="107"/>
      <point x="69" y="47"/>
      <point x="67" y="0" type="curve" smooth="yes"/>
      <point x="65" y="-48"/>
      <point x="77" y="-93"/>
      <point x="109" y="-125" type="curve" smooth="yes"/>
      <point x="140" y="-160"/>
      <point x="187" y="-181"/>
      <point x="241" y="-188" type="curve" smooth="yes"/>
      <point x="293" y="-195"/>
      <point x="349" y="-187"/>
      <point x="404" y="-169" type="curve" smooth="yes"/>
      <point x="454" y="-155"/>
      <point x="501" y="-130"/>
      <point x="533" y="-100" type="curve" smooth="yes"/>
      <point x="585" y="-52"/>
      <point x="613" y="10"/>
      <point x="613" y="63" type="curve" smooth="yes"/>
      <point x="613" y="87"/>
      <point x="603" y="123"/>
      <point x="488" y="136" type="curve" smooth="yes"/>
    </contour>
    <contour>
      <point x="200" y="135" type="move" name="top"/>
    </contour>
    <contour>
      <point x="299" y="-229" type="move" name="bottom"/>
    </contour>
  </outline>
</glyph>
<glyph name="dammatan-ar" format="1">
  <advance width="0"/>
  <unicode hex="064C"/>
  <outline>
    <contour>
      <point x="66" y="790" type="line"/>
      <point x="88" y="829"/>
      <point x="91" y="870"/>
      <point x="66" y="883" type="curve"/>
      <point x="46" y="894"/>
      <point x="20" y="885"/>
      <point x="-3" y="857" type="curve" smooth="yes"/>
      <point x="-16" y="842"/>
      <point x="-17" y="830"/>
      <point x="-13" y="816" type="curve" smooth="yes"/>
      <point x="-9" y="798"/>
      <point x="6" y="787"/>
      <point x="30" y="778" type="curve"/>
      <point x="15" y="758"/>
      <point x="-6" y="743"/>
      <point x="-32" y="738" type="curve"/>
      <point x="-14" y="765"/>
      <point x="-33" y="800"/>
      <point x="-50" y="799" type="curve" smooth="yes"/>
      <point x="-56" y="799"/>
      <point x="-71" y="794"/>
      <point x="-83" y="787" type="curve"/>
      <point x="-88" y="777"/>
      <point x="-88" y="775"/>
      <point x="-90" y="764" type="curve"/>
      <point x="-80" y="770"/>
      <point x="-57" y="779"/>
      <point x="-46" y="768" type="curve" smooth="yes"/>
      <point x="-38" y="761"/>
      <point x="-39" y="746"/>
      <point x="-52" y="735" type="curve"/>
      <point x="-60" y="735"/>
      <point x="-69" y="735"/>
      <point x="-78" y="735" type="curve"/>
      <point x="-82" y="728"/>
      <point x="-87" y="719"/>
      <point x="-92" y="704" type="curve"/>
      <point x="-55" y="700"/>
      <point x="-20" y="706"/>
      <point x="8" y="723" type="curve" smooth="yes"/>
      <point x="27" y="735"/>
      <point x="39" y="744"/>
      <point x="51" y="764" type="curve"/>
      <point x="84" y="750" type="line"/>
      <point x="84" y="765"/>
      <point x="83" y="771"/>
      <point x="81" y="782" type="curve"/>
    </contour>
    <contour>
      <point x="27" y="810" type="line" smooth="yes"/>
      <point x="10" y="820"/>
      <point x="7" y="830"/>
      <point x="8" y="837" type="curve"/>
      <point x="8" y="845"/>
      <point x="15" y="854"/>
      <point x="27" y="857" type="curve" smooth="yes"/>
      <point x="37" y="860"/>
      <point x="47" y="857"/>
      <point x="53" y="848" type="curve" smooth="yes"/>
      <point x="63" y="837"/>
      <point x="58" y="818"/>
      <point x="47" y="799" type="curve"/>
    </contour>
    <contour>
      <point x="-4" y="892" type="move" name="top"/>
    </contour>
    <contour>
      <point x="-4" y="671" type="move" name="_top"/>
    </contour>
  </outline>
</glyph>
<glyph name="fatha-ar" format="1">
  <advance width="0"/>
  <unicode hex="064E"/>
  <outline>
    <contour>
      <point x="35" y="783"/>
      <point x="-32" y="757"/>
      <point x="-81" y="732" type="curve"/>
      <point x="-84" y="724"/>
      <point x="-88" y="712"/>
      <point x="-90" y="700" type="curve"/>
      <point x="-77" y="706"/>
      <point x="26" y="751"/>
      <point x="79" y="768" type="curve"/>
      <point x="84" y="779"/>
      <point x="87" y="788"/>
      <point x="88" y="800" type="curve"/>
    </contour>
    <contour>
      <point x="-1" y="806" type="move" name="top"/>
    </contour>
    <contour>
      <point x="-1" y="670" type="move" name="_top"/>
    </contour>
  </outline>
</glyph>
<glyph name="damma-ar" format="1">
  <advance width="0"/>
  <unicode hex="064F"/>
  <outline>
    <contour>
      <point x="67" y="791" type="line"/>
      <point x="89" y="831"/>
      <point x="92" y="872"/>
      <point x="66" y="885" type="curve" smooth="yes"/>
      <point x="46" y="896"/>
      <point x="20" y="886"/>
      <point x="-3" y="857" type="curve" smooth="yes"/>
      <point x="-16" y="841"/>
      <point x="-21" y="826"/>
      <point x="-17" y="812" type="curve" smooth="yes"/>
      <point x="-13" y="794"/>
      <point x="2" y="782"/>
      <point x="25" y="773" type="curve"/>
      <point x="-2" y="746"/>
      <point x="-30" y="735"/>
      <point x="-78" y="738" type="curve"/>
      <point x="-82" y="732"/>
      <point x="-87" y="721"/>
      <point x="-92" y="705" type="curve"/>
      <point x="-41" y="701"/>
      <point x="-8" y="710"/>
      <point x="17" y="729" type="curve" smooth="yes"/>
      <point x="33" y="740"/>
      <point x="42" y="749"/>
      <point x="52" y="764" type="curve"/>
      <point x="84" y="750" type="line"/>
      <point x="84" y="765"/>
      <point x="84" y="772"/>
      <point x="81" y="784" type="curve"/>
    </contour>
    <contour>
      <point x="27" y="811" type="line" smooth="yes"/>
      <point x="10" y="820"/>
      <point x="7" y="831"/>
      <point x="8" y="837" type="curve" smooth="yes"/>
      <point x="8" y="846"/>
      <point x="15" y="855"/>
      <point x="27" y="858" type="curve" smooth="yes"/>
      <point x="36" y="860"/>
      <point x="45" y="858"/>
      <point x="53" y="850" type="curve" smooth="yes"/>
      <point x="62" y="839"/>
      <point x="59" y="819"/>
      <point x="47" y="800" type="curve"/>
    </contour>
    <contour>
      <point x="-3" y="891" type="move" name="top"/>
    </contour>
    <contour>
      <point x="-3" y="674" type="move" name="_top"/>
    </contour>
  </outline>
</glyph>
<glyph name="kasra-ar" format="1">
  <advance width="0"/>
  <unicode hex="0650"/>
  <outline>
    <contour>
      <point x="36" y="-222"/>
      <point x="-31" y="-248"/>
      <point x="-80" y="-273" type="curve"/>
      <point x="-84" y="-281"/>
      <point x="-87" y="-293"/>
      <point x="-89" y="-305" type="curve"/>
      <point x="-76" y="-299"/>
      <point x="27" y="-254"/>
      <point x="80" y="-237" type="curve"/>
      <point x="85" y="-227"/>
      <point x="88" y="-217"/>
      <point x="89" y="-205" type="curve"/>
    </contour>
    <contour>
      <point x="0" y="-179" type="move" name="_bottom"/>
    </contour>
    <contour>
      <point x="0" y="-308" type="move" name="bottom"/>
    </contour>
  </outline>
</glyph>
<glyph name="hamzaabove-ar" format="1">
  <advance width="0"/>
  <unicode hex="0654"/>
  <outline>
    <contour>
      <point x="79" y="791"/>
      <point x="68" y="790"/>
      <point x="57" y="788" type="curve" smooth="yes"/>
      <point x="37" y="785"/>
      <point x="22" y="785"/>
      <point x="3" y="789" type="curve" smooth="yes"/>
      <point x="-22" y="796"/>
      <point x="-31" y="804"/>
      <point x="-31" y="821" type="curve"/>
      <point x="-15" y="831"/>
      <point x="2" y="839"/>
      <point x="25" y="839" type="curve" smooth="yes"/>
      <point x="39" y="839"/>
      <point x="49" y="837"/>
      <point x="57" y="834" type="curve"/>
      <point x="65" y="843" type="line"/>
      <point x="64" y="856"/>
      <point x="52" y="874"/>
      <point x="21" y="874" type="curve" smooth="yes"/>
      <point x="1" y="874"/>
      <point x="-19" y="867"/>
      <point x="-39" y="851" type="curve" smooth="yes"/>
      <point x="-50" y="841"/>
      <point x="-63" y="825"/>
      <point x="-69" y="817" type="curve" smooth="yes"/>
      <point x="-72" y="812"/>
      <point x="-74" y="808"/>
      <point x="-74" y="803" type="curve" smooth="yes"/>
      <point x="-74" y="784"/>
      <point x="-58" y="768"/>
      <point x="-25" y="761" type="curve"/>
      <point x="-54" y="749"/>
      <point x="-72" y="737"/>
      <point x="-88" y="720" type="curve" smooth="yes"/>
      <point x="-91" y="717"/>
      <point x="-92" y="713"/>
      <point x="-92" y="709" type="curve" smooth="yes"/>
      <point x="-91" y="704"/>
      <point x="-87" y="700"/>
      <point x="-82" y="700" type="curve" smooth="yes"/>
      <point x="-69" y="708"/>
      <point x="-43" y="724"/>
      <point x="-3" y="737" type="curve" smooth="yes"/>
      <point x="23" y="746"/>
      <point x="42" y="751"/>
      <point x="69" y="753" type="curve"/>
      <point x="77" y="765"/>
      <point x="84" y="779"/>
      <point x="90" y="793" type="curve"/>
    </contour>
    <contour>
      <point x="-1" y="874" type="move" name="top"/>
    </contour>
    <contour>
      <point x="-1" y="677" type="move" name="_top"/>
    </contour>
  </outline>
</glyph>
<glyph name="hamzabelow-ar" format="1">
  <advance width="0"/>
  <unicode hex="0655"/>
  <outline>
    <contour>
      <point x="81" y="-289"/>
      <point x="70" y="-290"/>
      <point x="59" y="-292" type="curve" smooth="yes"/>
      <point x="39" y="-295"/>
      <point x="24" y="-295"/>
      <point x="5" y="-291" type="curve" smooth="yes"/>
      <point x="-20" y="-284"/>
      <point x="-29" y="-276"/>
      <point x="-29" y="-259" type="curve"/>
      <point x="-13" y="-249"/>
      <point x="4" y="-241"/>
      <point x="27" y="-241" type="curve" smooth="yes"/>
      <point x="41" y="-241"/>
      <point x="51" y="-243"/>
      <point x="59" y="-246" type="curve"/>
      <point x="67" y="-237" type="line"/>
      <point x="66" y="-224"/>
      <point x="54" y="-206"/>
      <point x="23" y="-206" type="curve" smooth="yes"/>
      <point x="3" y="-206"/>
      <point x="-17" y="-213"/>
      <point x="-37" y="-229" type="curve" smooth="yes"/>
      <point x="-48" y="-239"/>
      <point x="-61" y="-255"/>
      <point x="-67" y="-263" type="curve" smooth="yes"/>
      <point x="-70" y="-268"/>
      <point x="-72" y="-272"/>
      <point x="-72" y="-277" type="curve" smooth="yes"/>
      <point x="-72" y="-297"/>
      <point x="-56" y="-312"/>
      <point x="-23" y="-319" type="curve"/>
      <point x="-52" y="-331"/>
      <point x="-70" y="-343"/>
      <point x="-86" y="-360" type="curve" smooth="yes"/>
      <point x="-89" y="-363"/>
      <point x="-90" y="-367"/>
      <point x="-90" y="-371" type="curve" smooth="yes"/>
      <point x="-89" y="-376"/>
      <point x="-83" y="-380"/>
      <point x="-80" y="-380" type="curve" smooth="yes"/>
      <point x="-67" y="-372"/>
      <point x="-41" y="-356"/>
      <point x="-1" y="-343" type="curve" smooth="yes"/>
      <point x="25" y="-334"/>
      <point x="44" y="-329"/>
      <point x="71" y="-327" type="curve"/>
      <point x="79" y="-315"/>
      <point x="86" y="-301"/>
      <point x="92" y="-287" type="curve"/>
    </contour>
    <contour>
      <point x="1" y="-176" type="move" name="_bottom"/>
    </contour>
    <contour>
      <point x="1" y="-380" type="move" name="bottom"/>
    </contour>
  </outline>
</glyph>
<glyph name="fathatwodots-ar" format="1">
  <advance width="0"/>
  <unicode hex="065E"/>
  <outline>
    <contour>
      <point x="-68" y="820"/>
      <point x="-58" y="809"/>
      <point x="-49" y="798" type="curve"/>
      <point x="-38" y="808"/>
      <point x="-27" y="820"/>
      <point x="-21" y="827" type="curve"/>
      <point x="-27" y="837"/>
      <point x="-39" y="849"/>
      <point x="-52" y="858" type="curve"/>
      <point x="-58" y="850"/>
      <point x="-72" y="836"/>
      <point x="-80" y="828" type="curve"/>
    </contour>
    <contour>
      <point x="-76" y="725"/>
      <point x="-76" y="710"/>
      <point x="-75" y="699" type="curve"/>
      <point x="-62" y="709"/>
      <point x="30" y="783"/>
      <point x="78" y="814" type="curve"/>
      <point x="80" y="831"/>
      <point x="80" y="840"/>
      <point x="79" y="853" type="curve"/>
      <point x="29" y="823"/>
      <point x="-33" y="777"/>
      <point x="-75" y="739" type="curve"/>
    </contour>
    <contour>
      <point x="27" y="723"/>
      <point x="37" y="712"/>
      <point x="46" y="701" type="curve"/>
      <point x="57" y="711"/>
      <point x="68" y="723"/>
      <point x="74" y="730" type="curve"/>
      <point x="68" y="740"/>
      <point x="56" y="752"/>
      <point x="43" y="761" type="curve"/>
      <point x="37" y="753"/>
      <point x="23" y="739"/>
      <point x="15" y="731" type="curve"/>
    </contour>
    <contour>
      <point x="-1" y="878" type="move" name="_bottom"/>
    </contour>
    <contour>
      <point x="-1" y="699" type="move" name="bottom"/>
    </contour>
  </outline>
</glyph>
<glyph name="wavyhamzabelow-ar" format="1">
  <advance width="0"/>
  <unicode hex="065F"/>
  <outline>
    <contour>
      <point x="71" y="-282"/>
      <point x="52" y="-283"/>
      <point x="39" y="-283" type="curve" smooth="yes"/>
      <point x="8" y="-283"/>
      <point x="-10" y="-273"/>
      <point x="-16" y="-254" type="curve"/>
      <point x="-4" y="-244"/>
      <point x="15" y="-236"/>
      <point x="38" y="-236" type="curve" smooth="yes"/>
      <point x="52" y="-236"/>
      <point x="59" y="-238"/>
      <point x="66" y="-241" type="curve"/>
      <point x="76" y="-232" type="line"/>
      <point x="73" y="-222"/>
      <point x="65" y="-205"/>
      <point x="36" y="-205" type="curve" smooth="yes"/>
      <point x="17" y="-205"/>
      <point x="-8" y="-218"/>
      <point x="-26" y="-233" type="curve" smooth="yes"/>
      <point x="-40" y="-244"/>
      <point x="-50" y="-256"/>
      <point x="-50" y="-266" type="curve" smooth="yes"/>
      <point x="-50" y="-278"/>
      <point x="-41" y="-291"/>
      <point x="-26" y="-300" type="curve" smooth="yes"/>
      <point x="-14" y="-308"/>
      <point x="3" y="-312"/>
      <point x="22" y="-311" type="curve"/>
      <point x="18" y="-317"/>
      <point x="6" y="-332"/>
      <point x="-6" y="-332" type="curve" smooth="yes"/>
      <point x="-24" y="-332"/>
      <point x="-33" y="-324"/>
      <point x="-48" y="-324" type="curve" smooth="yes"/>
      <point x="-67" y="-324"/>
      <point x="-84" y="-334"/>
      <point x="-99" y="-351" type="curve"/>
      <point x="-93" y="-365" type="line"/>
      <point x="-84" y="-359"/>
      <point x="-76" y="-354"/>
      <point x="-68" y="-354" type="curve" smooth="yes"/>
      <point x="-52" y="-354"/>
      <point x="-44" y="-369"/>
      <point x="-23" y="-369" type="curve" smooth="yes"/>
      <point x="1" y="-369"/>
      <point x="13" y="-359"/>
      <point x="26" y="-347" type="curve" smooth="yes"/>
      <point x="48" y="-328"/>
      <point x="58" y="-318"/>
      <point x="81" y="-308" type="curve"/>
      <point x="88" y="-297"/>
      <point x="94" y="-288"/>
      <point x="99" y="-276" type="curve"/>
    </contour>
    <contour>
      <point x="0" y="-185" type="move" name="_bottom"/>
    </contour>
    <contour>
      <point x="0" y="-369" type="move" name="bottom"/>
    </contour>
  </outline>
</glyph>
<glyph name="zero-ar" format="1">
  <advance width="223"/>
  <unicode hex="0660"/>
  <outline>
    <contour>
      <point x="43" y="197" type="line"/>
      <point x="117" y="124" type="line"/>
      <point x="189" y="197" type="line"/>
      <point x="117" y="271" type="line"/>
    </contour>
  </outline>
</glyph>
<glyph name="one-ar" format="1">
  <advance width="232"/>
  <unicode hex="0661"/>
  <outline>
    <contour>
      <point x="75" y="513"/>
      <point x="59" y="487"/>
      <point x="43" y="455" type="curve"/>
      <point x="75" y="402"/>
      <point x="99" y="338"/>
      <point x="114" y="267" type="curve" smooth="yes"/>
      <point x="134" y="181"/>
      <point x="140" y="97"/>
      <point x="134" y="0" type="curve"/>
      <point x="170" y="0" type="line"/>
      <point x="195" y="106"/>
      <point x="205" y="198"/>
      <point x="193" y="294" type="curve" smooth="yes"/>
      <point x="182" y="380"/>
      <point x="153" y="462"/>
      <point x="98" y="542" type="curve"/>
    </contour>
  </outline>
</glyph>
<glyph name="five-ar" format="1">
  <advance width="383"/>
  <unicode hex="0665"/>
  <outline>
    <contour>
      <point x="350" y="302"/>
      <point x="335" y="361"/>
      <point x="311" y="405" type="curve" smooth="yes"/>
      <point x="284" y="457"/>
      <point x="245" y="486"/>
      <point x="203" y="486" type="curve" smooth="yes"/>
      <point x="183" y="486"/>
      <point x="164" y="473"/>
      <point x="145" y="454" type="curve" smooth="yes"/>
      <point x="113" y="419"/>
      <point x="86" y="361"/>
      <point x="70" y="313" type="curve" smooth="yes"/>
      <point x="60" y="277"/>
      <point x="51" y="240"/>
      <point x="47" y="204" type="curve" smooth="yes"/>
      <point x="44" y="174"/>
      <point x="42" y="144"/>
      <point x="44" y="116" type="curve"/>
      <point x="45" y="113"/>
      <point x="53" y="91"/>
      <point x="72" y="71" type="curve" smooth="yes"/>
      <point x="96" y="45"/>
      <point x="132" y="27"/>
      <point x="179" y="27" type="curve" smooth="yes"/>
      <point x="207" y="27"/>
      <point x="233" y="32"/>
      <point x="255" y="43" type="curve" smooth="yes"/>
      <point x="276" y="53"/>
      <point x="294" y="69"/>
      <point x="308" y="89" type="curve" smooth="yes"/>
      <point x="336" y="127"/>
      <point x="351" y="182"/>
      <point x="350" y="243" type="curve" smooth="yes"/>
    </contour>
    <contour>
      <point x="312" y="197"/>
      <point x="308" y="181"/>
      <point x="287" y="162" type="curve" smooth="yes"/>
      <point x="267" y="143"/>
      <point x="237" y="131"/>
      <point x="192" y="131" type="curve" smooth="yes"/>
      <point x="167" y="131"/>
      <point x="142" y="137"/>
      <point x="124" y="151" type="curve" smooth="yes"/>
      <point x="110" y="163"/>
      <point x="103" y="180"/>
      <point x="103" y="197" type="curve"/>
      <point x="103" y="199"/>
      <point x="105" y="240"/>
      <point x="117" y="283" type="curve" smooth="yes"/>
      <point x="124" y="312"/>
      <point x="135" y="340"/>
      <point x="152" y="360" type="curve" smooth="yes"/>
      <point x="166" y="377"/>
      <point x="183" y="387"/>
      <point x="205" y="387" type="curve" smooth="yes"/>
      <point x="224" y="387"/>
      <point x="240" y="378"/>
      <point x="254" y="365" type="curve" smooth="yes"/>
      <point x="272" y="347"/>
      <point x="284" y="320"/>
      <point x="292" y="302" type="curve" smooth="yes"/>
      <point x="304" y="271"/>
      <point x="310" y="246"/>
      <point x="316" y="218" type="curve"/>
    </contour>
  </outline>
</glyph>
<glyph name="eight-ar" format="1">
  <advance width="440"/>
  <unicode hex="0668"/>
  <outline>
    <contour>
      <point x="50" y="63"/>
      <point x="61" y="34"/>
      <point x="77" y="1" type="curve"/>
      <point x="120" y="66"/>
      <point x="150" y="125"/>
      <point x="172" y="177" type="curve" smooth="yes"/>
      <point x="186" y="210"/>
      <point x="197" y="240"/>
      <point x="205" y="266" type="curve" smooth="yes"/>
      <point x="218" y="308"/>
      <point x="222" y="337"/>
      <point x="225" y="347" type="curve"/>
      <point x="227" y="337"/>
      <point x="232" y="308"/>
      <point x="244" y="265" type="curve" smooth="yes"/>
      <point x="252" y="240"/>
      <point x="262" y="211"/>
      <point x="275" y="179" type="curve" smooth="yes"/>
      <point x="298" y="127"/>
      <point x="329" y="66"/>
      <point x="374" y="1" type="curve"/>
      <point x="388" y="29"/>
      <point x="398" y="56"/>
      <point x="407" y="94" type="curve"/>
      <point x="342" y="189"/>
      <point x="294" y="284"/>
      <point x="267" y="375" type="curve" smooth="yes"/>
      <point x="248" y="441"/>
      <point x="244" y="475"/>
      <point x="243" y="526" type="curve"/>
      <point x="209" y="526" type="line"/>
      <point x="205" y="475"/>
      <point x="198" y="421"/>
      <point x="183" y="371" type="curve" smooth="yes"/>
      <point x="155" y="280"/>
      <point x="108" y="188"/>
      <point x="43" y="94" type="curve"/>
    </contour>
  </outline>
</glyph>
<glyph name="nine-ar" format="1">
  <advance width="357"/>
  <unicode hex="0669"/>
  <outline>
    <contour>
      <point x="257" y="150"/>
      <point x="240" y="217"/>
      <point x="240" y="322" type="curve" smooth="yes"/>
      <point x="240" y="415"/>
      <point x="224" y="483"/>
      <point x="192" y="518" type="curve" smooth="yes"/>
      <point x="177" y="534"/>
      <point x="158" y="542"/>
      <point x="138" y="542" type="curve" smooth="yes"/>
      <point x="110" y="542"/>
      <point x="83" y="531"/>
      <point x="62" y="491" type="curve" smooth="yes"/>
      <point x="46" y="464"/>
      <point x="37" y="427"/>
      <point x="37" y="402" type="curve" smooth="yes"/>
      <point x="37" y="373"/>
      <point x="41" y="338"/>
      <point x="64" y="317" type="curve" smooth="yes"/>
      <point x="78" y="303"/>
      <point x="97" y="295"/>
      <point x="134" y="295" type="curve" smooth="yes"/>
      <point x="154" y="295"/>
      <point x="172" y="302"/>
      <point x="180" y="309" type="curve"/>
      <point x="180" y="217" type="line"/>
      <point x="180" y="160"/>
      <point x="192" y="117"/>
      <point x="210" y="82" type="curve" smooth="yes"/>
      <point x="229" y="45"/>
      <point x="257" y="18"/>
      <point x="301" y="0" type="curve"/>
      <point x="310" y="41"/>
      <point x="316" y="73"/>
      <point x="317" y="112" type="curve"/>
    </contour>
    <contour>
      <point x="171" y="395"/>
      <point x="155" y="385"/>
      <point x="129" y="385" type="curve" smooth="yes"/>
      <point x="89" y="385"/>
      <point x="75" y="403"/>
      <point x="75" y="429" type="curve" smooth="yes"/>
      <point x="75" y="449"/>
      <point x="92" y="474"/>
      <point x="123" y="474" type="curve" smooth="yes"/>
      <point x="141" y="474"/>
      <point x="160" y="463"/>
      <point x="170" y="441" type="curve" smooth="yes"/>
      <point x="176" y="426"/>
      <point x="176" y="422"/>
      <point x="180" y="407" type="curve"/>
    </contour>
  </outline>
</glyph>
<glyph name="decimalseparator-ar" format="1">
  <advance width="192"/>
  <unicode hex="066B"/>
  <outline>
    <contour>
      <point x="127" y="111" type="line"/>
      <point x="0" y="-200" type="line"/>
      <point x="65" y="-200" type="line"/>
      <point x="192" y="111" type="line"/>
    </contour>
  </outline>
</glyph>
<glyph name="thousandseparator-ar" format="1">
  <advance width="148"/>
  <unicode hex="066C"/>
  <outline>
    <contour>
      <point x="83" y="111" type="line"/>
      <point x="0" y="-92" type="line"/>
      <point x="65" y="-92" type="line"/>
      <point x="148" y="111" type="line"/>
    </contour>
  </outline>
</glyph>
<glyph name="dotlessfeh-ar" format="1">
  <advance width="829"/>
  <unicode hex="06A1"/>
  <outline>
    <contour>
      <point x="622" y="436"/>
      <point x="596" y="406"/>
      <point x="582" y="382" type="curve" smooth="yes"/>
      <point x="564" y="350"/>
      <point x="553" y="309"/>
      <point x="553" y="275" type="curve" smooth="yes"/>
      <point x="553" y="243"/>
      <point x="563" y="218"/>
      <point x="582" y="202" type="curve" smooth="yes"/>
      <point x="596" y="189"/>
      <point x="618" y="179"/>
      <point x="653" y="179" type="curve" smooth="yes"/>
      <point x="671" y="179"/>
      <point x="702" y="182"/>
      <point x="723" y="199" type="curve"/>
      <point x="722" y="177"/>
      <point x="710" y="156"/>
      <point x="693" y="141" type="curve" smooth="yes"/>
      <point x="672" y="119"/>
      <point x="640" y="106"/>
      <point x="579" y="106" type="curve" smooth="yes"/>
      <point x="558" y="106"/>
      <point x="459" y="105"/>
      <point x="411" y="105" type="curve"/>
      <point x="356" y="105"/>
      <point x="282" y="105"/>
      <point x="234" y="111" type="curve" smooth="yes"/>
      <point x="184" y="119"/>
      <point x="144" y="138"/>
      <point x="122" y="168" type="curve" smooth="yes"/>
      <point x="111" y="184"/>
      <point x="102" y="205"/>
      <point x="98" y="233" type="curve"/>
      <point x="71" y="241" type="line"/>
      <point x="64" y="189"/>
      <point x="65" y="146"/>
      <point x="78" y="111" type="curve" smooth="yes"/>
      <point x="97" y="52"/>
      <point x="146" y="16"/>
      <point x="235" y="2" type="curve"/>
      <point x="271" y="-4"/>
      <point x="311" y="-7"/>
      <point x="405" y="-7" type="curve" smooth="yes"/>
      <point x="563" y="-7"/>
      <point x="642" y="-2"/>
      <point x="695" y="39" type="curve" smooth="yes"/>
      <point x="727" y="64"/>
      <point x="746" y="98"/>
      <point x="758" y="141" type="curve" smooth="yes"/>
      <point x="770" y="182"/>
      <point x="775" y="231"/>
      <point x="771" y="275" type="curve" smooth="yes"/>
      <point x="763" y="355"/>
      <point x="726" y="436"/>
      <point x="661" y="436" type="curve" smooth="yes"/>
    </contour>
    <contour>
      <point x="701" y="275"/>
      <point x="683" y="262"/>
      <point x="651" y="262" type="curve" smooth="yes"/>
      <point x="599" y="262"/>
      <point x="593" y="294"/>
      <point x="593" y="306" type="curve" smooth="yes"/>
      <point x="593" y="325"/>
      <point x="607" y="359"/>
      <point x="644" y="359" type="curve" smooth="yes"/>
      <point x="684" y="359"/>
      <point x="702" y="318"/>
      <point x="710" y="283" type="curve"/>
    </contour>
    <contour>
      <point x="617" y="-105" type="move" name="center"/>
    </contour>
    <contour>
      <point x="400" y="-40" type="move" name="bottom"/>
    </contour>
    <contour>
      <point x="661" y="466" type="move" name="top"/>
    </contour>
  </outline>
</glyph>
<glyph name="keheh-ar" format="1">
  <advance width="785"/>
  <unicode hex="06A9"/>
  <outline>
    <contour>
      <point x="64" y="187"/>
      <point x="65" y="145"/>
      <point x="78" y="109" type="curve" smooth="yes"/>
      <point x="97" y="51"/>
      <point x="146" y="15"/>
      <point x="235" y="0" type="curve" smooth="yes"/>
      <point x="271" y="-6"/>
      <point x="311" y="-7"/>
      <point x="405" y="-7" type="curve"/>
      <point x="457" y="-6"/>
      <point x="509" y="-7"/>
      <point x="562" y="-4" type="curve"/>
      <point x="644" y="0"/>
      <point x="693" y="49"/>
      <point x="693" y="135" type="curve" smooth="yes"/>
      <point x="693" y="193"/>
      <point x="670" y="246"/>
      <point x="641" y="289" type="curve" smooth="yes"/>
      <point x="620" y="320"/>
      <point x="588" y="352"/>
      <point x="550" y="379" type="curve"/>
      <point x="618" y="418"/>
      <point x="693" y="453"/>
      <point x="746" y="477" type="curve"/>
      <point x="755" y="514"/>
      <point x="760" y="544"/>
      <point x="765" y="581" type="curve"/>
      <point x="676" y="540"/>
      <point x="554" y="477"/>
      <point x="479" y="416" type="curve"/>
      <point x="471" y="387"/>
      <point x="466" y="366"/>
      <point x="462" y="327" type="curve"/>
      <point x="498" y="287" type="line"/>
      <point x="507" y="307" type="line"/>
      <point x="561" y="264"/>
      <point x="635" y="188"/>
      <point x="635" y="148" type="curve"/>
      <point x="628" y="133"/>
      <point x="600" y="109"/>
      <point x="566" y="109" type="curve"/>
      <point x="513" y="105"/>
      <point x="463" y="107"/>
      <point x="411" y="106" type="curve"/>
      <point x="356" y="106"/>
      <point x="282" y="108"/>
      <point x="234" y="115" type="curve" smooth="yes"/>
      <point x="184" y="122"/>
      <point x="144" y="137"/>
      <point x="122" y="166" type="curve" smooth="yes"/>
      <point x="111" y="182"/>
      <point x="102" y="204"/>
      <point x="98" y="231" type="curve"/>
      <point x="71" y="240" type="line"/>
    </contour>
    <contour>
      <point x="591" y="535" type="move" name="top"/>
    </contour>
    <contour>
      <point x="394" y="-34" type="move" name="bottom"/>
    </contour>
  </outline>
</glyph>
<glyph name="noonghunna-ar" format="1">
  <advance width="598"/>
  <unicode hex="06BA"/>
  <outline>
    <contour>
      <point x="449" y="252"/>
      <point x="427" y="224"/>
      <point x="411" y="193" type="curve"/>
      <point x="429" y="169"/>
      <point x="491" y="82"/>
      <point x="491" y="39" type="curve" smooth="yes"/>
      <point x="491" y="8"/>
      <point x="463" y="-19"/>
      <point x="420" y="-37" type="curve" smooth="yes"/>
      <point x="388" y="-52"/>
      <point x="346" y="-61"/>
      <point x="296" y="-61" type="curve" smooth="yes"/>
      <point x="224" y="-61"/>
      <point x="169" y="-41"/>
      <point x="141" y="-7" type="curve" smooth="yes"/>
      <point x="115" y="26"/>
      <point x="116" y="70"/>
      <point x="127" y="125" type="curve"/>
      <point x="100" y="135" type="line"/>
      <point x="81" y="93"/>
      <point x="70" y="47"/>
      <point x="68" y="14" type="curve" smooth="yes"/>
      <point x="66" y="-16"/>
      <point x="69" y="-47"/>
      <point x="81" y="-77" type="curve" smooth="yes"/>
      <point x="96" y="-114"/>
      <point x="122" y="-141"/>
      <point x="159" y="-160" type="curve" smooth="yes"/>
      <point x="194" y="-178"/>
      <point x="237" y="-187"/>
      <point x="288" y="-187" type="curve" smooth="yes"/>
      <point x="327" y="-187"/>
      <point x="361" y="-183"/>
      <point x="392" y="-173" type="curve" smooth="yes"/>
      <point x="421" y="-164"/>
      <point x="447" y="-150"/>
      <point x="472" y="-127" type="curve" smooth="yes"/>
      <point x="510" y="-93"/>
      <point x="542" y="-31"/>
      <point x="542" y="57" type="curve" smooth="yes"/>
      <point x="542" y="109"/>
      <point x="531" y="158"/>
      <point x="512" y="202" type="curve" smooth="yes"/>
      <point x="494" y="246"/>
      <point x="473" y="266"/>
      <point x="467" y="273" type="curve"/>
    </contour>
    <contour>
      <point x="282" y="31" type="move" name="top"/>
    </contour>
    <contour>
      <point x="292" y="-219" type="move" name="bottom"/>
    </contour>
  </outline>
</glyph>
<glyph name="yehTail-ar" format="1">
  <advance width="666"/>
  <unicode hex="06CD"/>
  <outline>
    <contour>
      <point x="69" y="116"/>
      <point x="34" y="98"/>
      <point x="-8" y="87" type="curve"/>
      <point x="26" y="43" type="line"/>
      <point x="105" y="78" type="line"/>
      <point x="100" y="134" type="line"/>
    </contour>
    <component base="alefMaksura-ar"/>
  </outline>
</glyph>
<glyph name="yehbarree-ar" format="1">
  <advance width="961"/>
  <unicode hex="06D2"/>
  <outline>
    <contour>
      <point x="471" y="294"/>
      <point x="477" y="360"/>
      <point x="452" y="397" type="curve" smooth="yes"/>
      <point x="440" y="415"/>
      <point x="422" y="420"/>
      <point x="411" y="420" type="curve" smooth="yes"/>
      <point x="388" y="420"/>
      <point x="372" y="401"/>
      <point x="351" y="372" type="curve" smooth="yes"/>
      <point x="323" y="331"/>
      <point x="312" y="317"/>
      <point x="227" y="277" type="curve" smooth="yes"/>
      <point x="195" y="261"/>
      <point x="153" y="242"/>
      <point x="121" y="216" type="curve" smooth="yes"/>
      <point x="87" y="187"/>
      <point x="67" y="154"/>
      <point x="67" y="112" type="curve" smooth="yes"/>
      <point x="67" y="77"/>
      <point x="81" y="51"/>
      <point x="109" y="33" type="curve" smooth="yes"/>
      <point x="143" y="11"/>
      <point x="196" y="1"/>
      <point x="269" y="1" type="curve" smooth="yes"/>
      <point x="832" y="1" type="line"/>
      <point x="867" y="42"/>
      <point x="885" y="72"/>
      <point x="905" y="112" type="curve"/>
      <point x="274" y="112" type="line" smooth="yes"/>
      <point x="177" y="112"/>
      <point x="146" y="121"/>
      <point x="146" y="152" type="curve" smooth="yes"/>
      <point x="146" y="165"/>
      <point x="155" y="179"/>
      <point x="173" y="186" type="curve"/>
      <point x="269" y="222"/>
      <point x="287" y="245"/>
      <point x="327" y="285" type="curve" smooth="yes"/>
      <point x="337" y="295"/>
      <point x="366" y="336"/>
      <point x="399" y="336" type="curve" smooth="yes"/>
      <point x="440" y="336"/>
      <point x="437" y="284"/>
      <point x="431" y="238" type="curve"/>
      <point x="461" y="247" type="line"/>
    </contour>
    <contour>
      <point x="411" y="450" type="move" name="top"/>
    </contour>
    <contour>
      <point x="434" y="-28" type="move" name="bottom"/>
    </contour>
  </outline>
</glyph>
<glyph name="qafLamAlefMaksuraabove-ar" format="1">
  <advance width="0"/>
  <unicode hex="06D7"/>
  <outline>
    <contour>
      <point x="133" y="874"/>
      <point x="123" y="897"/>
      <point x="105" y="897" type="curve" smooth="yes"/>
      <point x="94" y="897"/>
      <point x="87" y="888"/>
      <point x="84" y="882" type="curve" smooth="yes"/>
      <point x="79" y="874"/>
      <point x="76" y="863"/>
      <point x="76" y="853" type="curve" smooth="yes"/>
      <point x="76" y="843"/>
      <point x="79" y="838"/>
      <point x="84" y="833" type="curve"/>
      <point x="88" y="829"/>
      <point x="93" y="827"/>
      <point x="102" y="827" type="curve" smooth="yes"/>
      <point x="108" y="827"/>
      <point x="117" y="828"/>
      <point x="122" y="833" type="curve"/>
      <point x="122" y="826"/>
      <point x="119" y="819"/>
      <point x="115" y="816" type="curve" smooth="yes"/>
      <point x="109" y="811"/>
      <point x="100" y="807"/>
      <point x="87" y="807" type="curve" smooth="yes"/>
      <point x="83" y="807"/>
      <point x="56" y="807"/>
      <point x="56" y="807" type="curve" smooth="yes"/>
      <point x="49" y="807"/>
      <point x="44" y="810"/>
      <point x="40" y="814" type="curve" smooth="yes"/>
      <point x="37" y="818"/>
      <point x="36" y="824"/>
      <point x="35" y="828" type="curve" smooth="yes"/>
      <point x="32" y="859"/>
      <point x="27" y="903"/>
      <point x="24" y="935" type="curve"/>
      <point x="16" y="928"/>
      <point x="11" y="922"/>
      <point x="4" y="911" type="curve"/>
      <point x="10" y="884"/>
      <point x="16" y="834"/>
      <point x="17" y="827" type="curve"/>
      <point x="17" y="822"/>
      <point x="16" y="818"/>
      <point x="13" y="814" type="curve" smooth="yes"/>
      <point x="9" y="810"/>
      <point x="3" y="807"/>
      <point x="-4" y="807" type="curve" smooth="yes"/>
      <point x="-38" y="807" type="line" smooth="yes"/>
      <point x="-49" y="807"/>
      <point x="-58" y="805"/>
      <point x="-66" y="801" type="curve" smooth="yes"/>
      <point x="-72" y="797"/>
      <point x="-76" y="794"/>
      <point x="-80" y="790" type="curve"/>
      <point x="-86" y="784"/>
      <point x="-96" y="779"/>
      <point x="-105" y="775" type="curve" smooth="yes"/>
      <point x="-114" y="770"/>
      <point x="-124" y="765"/>
      <point x="-133" y="759" type="curve" smooth="yes"/>
      <point x="-146" y="748"/>
      <point x="-148" y="738"/>
      <point x="-148" y="729" type="curve" smooth="yes"/>
      <point x="-148" y="726"/>
      <point x="-147" y="717"/>
      <point x="-137" y="710" type="curve" smooth="yes"/>
      <point x="-127" y="703"/>
      <point x="-113" y="699"/>
      <point x="-93" y="699" type="curve" smooth="yes"/>
      <point x="43" y="699" type="line"/>
      <point x="52" y="711"/>
      <point x="57" y="719"/>
      <point x="63" y="729" type="curve"/>
      <point x="-99" y="729" type="line" smooth="yes"/>
      <point x="-114" y="729"/>
      <point x="-127" y="731"/>
      <point x="-127" y="741" type="curve" smooth="yes"/>
      <point x="-127" y="745"/>
      <point x="-124" y="748"/>
      <point x="-120" y="750" type="curve"/>
      <point x="-114" y="752"/>
      <point x="-110" y="754"/>
      <point x="-104" y="757" type="curve" smooth="yes"/>
      <point x="-97" y="760"/>
      <point x="-91" y="765"/>
      <point x="-86" y="769" type="curve"/>
      <point x="-83" y="772"/>
      <point x="-77" y="777"/>
      <point x="-62" y="777" type="curve" smooth="yes"/>
      <point x="3" y="777" type="line" smooth="yes"/>
      <point x="21" y="777"/>
      <point x="31" y="786"/>
      <point x="32" y="797" type="curve"/>
      <point x="34" y="786"/>
      <point x="43" y="777"/>
      <point x="60" y="777" type="curve" smooth="yes"/>
      <point x="76" y="777" type="line" smooth="yes"/>
      <point x="89" y="777"/>
      <point x="104" y="779"/>
      <point x="114" y="788" type="curve" smooth="yes"/>
      <point x="122" y="794"/>
      <point x="129" y="804"/>
      <point x="132" y="816" type="curve" smooth="yes"/>
      <point x="135" y="828"/>
      <point x="136" y="841"/>
      <point x="135" y="853" type="curve" smooth="yes"/>
    </contour>
    <contour>
      <point x="117" y="853"/>
      <point x="111" y="849"/>
      <point x="102" y="849" type="curve" smooth="yes"/>
      <point x="88" y="849"/>
      <point x="87" y="859"/>
      <point x="87" y="861" type="curve" smooth="yes"/>
      <point x="87" y="867"/>
      <point x="91" y="876"/>
      <point x="101" y="876" type="curve" smooth="yes"/>
      <point x="112" y="876"/>
      <point x="117" y="865"/>
      <point x="118" y="855" type="curve"/>
    </contour>
    <contour>
      <point x="127" y="927"/>
      <point x="121" y="935"/>
      <point x="114" y="939" type="curve"/>
      <point x="112" y="935"/>
      <point x="107" y="930"/>
      <point x="103" y="926" type="curve"/>
      <point x="99" y="930"/>
      <point x="93" y="935"/>
      <point x="89" y="939" type="curve"/>
      <point x="85" y="935"/>
      <point x="78" y="927"/>
      <point x="74" y="923" type="curve"/>
      <point x="80" y="918"/>
      <point x="85" y="913"/>
      <point x="90" y="907" type="curve"/>
      <point x="95" y="912"/>
      <point x="100" y="916"/>
      <point x="103" y="920" type="curve"/>
      <point x="108" y="916"/>
      <point x="112" y="912"/>
      <point x="115" y="907" type="curve"/>
      <point x="122" y="913"/>
      <point x="127" y="918"/>
      <point x="131" y="922" type="curve"/>
    </contour>
    <contour>
      <point x="-7" y="939" type="move" name="top"/>
    </contour>
    <contour>
      <point x="-7" y="673" type="move" name="_top"/>
    </contour>
  </outline>
</glyph>
<glyph name="lamAlefabove-ar" format="1">
  <advance width="0"/>
  <unicode hex="06D9"/>
  <outline>
    <contour>
      <point x="32" y="747"/>
      <point x="30" y="752"/>
      <point x="25" y="759" type="curve"/>
      <point x="17" y="748"/>
      <point x="6" y="741"/>
      <point x="1" y="738" type="curve"/>
      <point x="9" y="738"/>
      <point x="24" y="738"/>
      <point x="36" y="740" type="curve"/>
    </contour>
    <contour>
      <point x="66" y="849" type="line"/>
      <point x="58" y="853" type="line"/>
      <point x="60" y="834"/>
      <point x="56" y="804"/>
      <point x="40" y="775" type="curve"/>
      <point x="46" y="763"/>
      <point x="53" y="745"/>
      <point x="52" y="730" type="curve"/>
      <point x="52" y="729"/>
      <point x="50" y="714"/>
      <point x="49" y="708" type="curve"/>
      <point x="27" y="703"/>
      <point x="2" y="700"/>
      <point x="-36" y="700" type="curve"/>
      <point x="-36" y="716"/>
      <point x="-36" y="727"/>
      <point x="-35" y="741" type="curve"/>
      <point x="-29" y="741" type="line"/>
      <point x="-12" y="744"/>
      <point x="5" y="759"/>
      <point x="14" y="774" type="curve"/>
      <point x="-7" y="809"/>
      <point x="-31" y="833"/>
      <point x="-42" y="843" type="curve"/>
      <point x="-47" y="836" type="line"/>
      <point x="-56" y="842"/>
      <point x="-65" y="849"/>
      <point x="-74" y="856" type="curve"/>
      <point x="-73" y="870"/>
      <point x="-69" y="883"/>
      <point x="-67" y="886" type="curve" smooth="yes"/>
      <point x="-65" y="891"/>
      <point x="-61" y="891"/>
      <point x="-59" y="889" type="curve" smooth="yes"/>
      <point x="-56" y="889"/>
      <point x="-52" y="887"/>
      <point x="-42" y="878" type="curve" smooth="yes"/>
      <point x="-29" y="868"/>
      <point x="-16" y="853"/>
      <point x="-4" y="838" type="curve" smooth="yes"/>
      <point x="9" y="824"/>
      <point x="20" y="809"/>
      <point x="26" y="797" type="curve"/>
      <point x="33" y="810"/>
      <point x="35" y="824"/>
      <point x="37" y="837" type="curve" smooth="yes"/>
      <point x="38" y="856"/>
      <point x="35" y="875"/>
      <point x="30" y="890" type="curve"/>
      <point x="36" y="894"/>
      <point x="44" y="900"/>
      <point x="51" y="909" type="curve"/>
      <point x="57" y="892"/>
      <point x="66" y="879"/>
      <point x="77" y="871" type="curve"/>
    </contour>
    <contour>
      <point x="1" y="909" type="move" name="top"/>
    </contour>
    <contour>
      <point x="1" y="673" type="move" name="_top"/>
    </contour>
  </outline>
</glyph>
<glyph name="threedotsabove-ar" format="1">
  <advance width="0"/>
  <unicode hex="06DB"/>
  <outline>
    <contour>
      <point x="-42" y="725"/>
      <point x="-33" y="715"/>
      <point x="-24" y="706" type="curve"/>
      <point x="-14" y="714"/>
      <point x="-6" y="723"/>
      <point x="0" y="731" type="curve"/>
      <point x="10" y="723"/>
      <point x="18" y="714"/>
      <point x="25" y="706" type="curve"/>
      <point x="36" y="715"/>
      <point x="46" y="725"/>
      <point x="52" y="732" type="curve"/>
      <point x="45" y="742"/>
      <point x="34" y="754"/>
      <point x="23" y="760" type="curve"/>
      <point x="18" y="754"/>
      <point x="8" y="743"/>
      <point x="-1" y="736" type="curve"/>
      <point x="-8" y="745"/>
      <point x="-18" y="755"/>
      <point x="-26" y="760" type="curve"/>
      <point x="-33" y="753"/>
      <point x="-45" y="741"/>
      <point x="-53" y="734" type="curve"/>
    </contour>
    <contour>
      <point x="-18" y="773"/>
      <point x="-9" y="763"/>
      <point x="0" y="754" type="curve"/>
      <point x="10" y="763"/>
      <point x="20" y="773"/>
      <point x="26" y="780" type="curve"/>
      <point x="20" y="789"/>
      <point x="9" y="801"/>
      <point x="-2" y="808" type="curve"/>
      <point x="-9" y="801"/>
      <point x="-21" y="788"/>
      <point x="-29" y="781" type="curve"/>
    </contour>
    <contour>
      <point x="-2" y="808" type="move" name="top"/>
    </contour>
    <contour>
      <point x="-1" y="682" type="move" name="_top"/>
    </contour>
  </outline>
</glyph>
<glyph name="seenabove-ar" format="1">
  <advance width="0"/>
  <unicode hex="06DC"/>
  <outline>
    <contour>
      <point x="106" y="897"/>
      <point x="100" y="889"/>
      <point x="96" y="880" type="curve"/>
      <point x="112" y="858" type="line"/>
      <point x="110" y="851"/>
      <point x="101" y="843"/>
      <point x="88" y="843" type="curve" smooth="yes"/>
      <point x="68" y="843"/>
      <point x="62" y="855"/>
      <point x="64" y="877" type="curve"/>
      <point x="54" y="873" type="line"/>
      <point x="53" y="859"/>
      <point x="48" y="843"/>
      <point x="27" y="843" type="curve" smooth="yes"/>
      <point x="11" y="843"/>
      <point x="-2" y="856"/>
      <point x="-8" y="867" type="curve"/>
      <point x="-14" y="859"/>
      <point x="-22" y="849"/>
      <point x="-27" y="838" type="curve"/>
      <point x="-17" y="825"/>
      <point x="1" y="799"/>
      <point x="1" y="783" type="curve" smooth="yes"/>
      <point x="1" y="774"/>
      <point x="-7" y="766"/>
      <point x="-18" y="759" type="curve" smooth="yes"/>
      <point x="-31" y="752"/>
      <point x="-48" y="748"/>
      <point x="-67" y="748" type="curve" smooth="yes"/>
      <point x="-93" y="748"/>
      <point x="-113" y="755"/>
      <point x="-123" y="767" type="curve" smooth="yes"/>
      <point x="-132" y="779"/>
      <point x="-132" y="794"/>
      <point x="-128" y="814" type="curve"/>
      <point x="-137" y="817" type="line"/>
      <point x="-144" y="803"/>
      <point x="-148" y="785"/>
      <point x="-149" y="774" type="curve" smooth="yes"/>
      <point x="-149" y="764"/>
      <point x="-149" y="753"/>
      <point x="-144" y="742" type="curve" smooth="yes"/>
      <point x="-139" y="729"/>
      <point x="-129" y="719"/>
      <point x="-117" y="712" type="curve" smooth="yes"/>
      <point x="-104" y="706"/>
      <point x="-88" y="703"/>
      <point x="-71" y="703" type="curve" smooth="yes"/>
      <point x="-58" y="703"/>
      <point x="-45" y="705"/>
      <point x="-34" y="708" type="curve" smooth="yes"/>
      <point x="-24" y="712"/>
      <point x="-15" y="716"/>
      <point x="-6" y="724" type="curve" smooth="yes"/>
      <point x="7" y="737"/>
      <point x="19" y="759"/>
      <point x="19" y="791" type="curve" smooth="yes"/>
      <point x="19" y="796"/>
      <point x="18" y="802"/>
      <point x="18" y="808" type="curve"/>
      <point x="29" y="804"/>
      <point x="38" y="805"/>
      <point x="44" y="809" type="curve" smooth="yes"/>
      <point x="51" y="813"/>
      <point x="55" y="820"/>
      <point x="58" y="829" type="curve"/>
      <point x="58" y="828"/>
      <point x="60" y="820"/>
      <point x="67" y="814" type="curve" smooth="yes"/>
      <point x="71" y="810"/>
      <point x="79" y="807"/>
      <point x="88" y="807" type="curve" smooth="yes"/>
      <point x="101" y="807"/>
      <point x="110" y="814"/>
      <point x="117" y="823" type="curve" smooth="yes"/>
      <point x="126" y="835"/>
      <point x="128" y="851"/>
      <point x="128" y="856" type="curve" smooth="yes"/>
      <point x="128" y="884"/>
      <point x="115" y="900"/>
      <point x="112" y="903" type="curve"/>
    </contour>
    <contour>
      <point x="2" y="902" type="move" name="top"/>
    </contour>
    <contour>
      <point x="2" y="673" type="move" name="_top"/>
    </contour>
  </outline>
</glyph>
<glyph name="asteriskArt-ar" format="1">
  <advance width="614"/>
  <unicode hex="06DE"/>
  <outline>
    <contour>
      <point x="540" y="265"/>
      <point x="524" y="271"/>
      <point x="490" y="276" type="curve"/>
      <point x="484" y="321"/>
      <point x="465" y="355"/>
      <point x="442" y="379" type="curve" smooth="yes"/>
      <point x="404" y="417"/>
      <point x="355" y="426"/>
      <point x="343" y="429" type="curve"/>
      <point x="338" y="463"/>
      <point x="334" y="481"/>
      <point x="313" y="504" type="curve" smooth="yes"/>
      <point x="294" y="484"/>
      <point x="288" y="467"/>
      <point x="283" y="429" type="curve"/>
      <point x="271" y="426"/>
      <point x="218" y="418"/>
      <point x="180" y="374" type="curve" smooth="yes"/>
      <point x="158" y="350"/>
      <point x="141" y="317"/>
      <point x="135" y="276" type="curve"/>
      <point x="110" y="272"/>
      <point x="86" y="266"/>
      <point x="67" y="252" type="curve" smooth="yes"/>
      <point x="80" y="242"/>
      <point x="105" y="234"/>
      <point x="135" y="229" type="curve"/>
      <point x="140" y="193"/>
      <point x="154" y="164"/>
      <point x="171" y="141" type="curve" smooth="yes"/>
      <point x="209" y="91"/>
      <point x="267" y="80"/>
      <point x="283" y="75" type="curve"/>
      <point x="287" y="44"/>
      <point x="293" y="22"/>
      <point x="313" y="0" type="curve" smooth="yes"/>
      <point x="329" y="18"/>
      <point x="338" y="40"/>
      <point x="343" y="75" type="curve"/>
      <point x="355" y="79"/>
      <point x="390" y="87"/>
      <point x="422" y="111" type="curve" smooth="yes"/>
      <point x="453" y="134"/>
      <point x="482" y="170"/>
      <point x="490" y="229" type="curve"/>
      <point x="515" y="232"/>
      <point x="539" y="239"/>
      <point x="558" y="252" type="curve" smooth="yes"/>
    </contour>
    <contour>
      <point x="405" y="229"/>
      <point x="428" y="201"/>
      <point x="437" y="149" type="curve"/>
      <point x="378" y="151"/>
      <point x="344" y="172"/>
      <point x="313" y="225" type="curve"/>
      <point x="283" y="173"/>
      <point x="247" y="150"/>
      <point x="189" y="149" type="curve" smooth="yes"/>
      <point x="196" y="194"/>
      <point x="218" y="229"/>
      <point x="270" y="252" type="curve"/>
      <point x="221" y="276"/>
      <point x="192" y="306"/>
      <point x="189" y="356" type="curve" smooth="yes"/>
      <point x="254" y="355"/>
      <point x="279" y="334"/>
      <point x="313" y="279" type="curve"/>
      <point x="343" y="333"/>
      <point x="373" y="353"/>
      <point x="437" y="356" type="curve" smooth="yes"/>
      <point x="431" y="309"/>
      <point x="411" y="281"/>
      <point x="356" y="252" type="curve"/>
    </contour>
  </outline>
</glyph>
<glyph name="meemStopabove-ar" format="1">
  <advance width="0"/>
  <unicode hex="06E2"/>
  <outline>
    <contour>
      <point x="47" y="892"/>
      <point x="39" y="903"/>
      <point x="27" y="910" type="curve" smooth="yes"/>
      <point x="22" y="915"/>
      <point x="13" y="918"/>
      <point x="4" y="918" type="curve" smooth="yes"/>
      <point x="-7" y="918"/>
      <point x="-15" y="912"/>
      <point x="-20" y="899" type="curve" smooth="yes"/>
      <point x="-22" y="895"/>
      <point x="-23" y="889"/>
      <point x="-23" y="885" type="curve"/>
      <point x="-13" y="891"/>
      <point x="-1" y="890"/>
      <point x="14" y="882" type="curve"/>
      <point x="-7" y="881"/>
      <point x="-24" y="874"/>
      <point x="-35" y="859" type="curve" smooth="yes"/>
      <point x="-42" y="851"/>
      <point x="-49" y="836"/>
      <point x="-46" y="814" type="curve" smooth="yes"/>
      <point x="-44" y="802"/>
      <point x="-42" y="788"/>
      <point x="-40" y="773" type="curve" smooth="yes"/>
      <point x="-36" y="755"/>
      <point x="-32" y="728"/>
      <point x="-30" y="704" type="curve"/>
      <point x="-18" y="707" type="line"/>
      <point x="-17" y="732"/>
      <point x="-20" y="767"/>
      <point x="-26" y="810" type="curve" smooth="yes"/>
      <point x="-27" y="820"/>
      <point x="-25" y="829"/>
      <point x="-18" y="836" type="curve" smooth="yes"/>
      <point x="-12" y="843"/>
      <point x="-1" y="848"/>
      <point x="13" y="851" type="curve" smooth="yes"/>
      <point x="24" y="854"/>
      <point x="35" y="854"/>
      <point x="44" y="854" type="curve"/>
      <point x="46" y="867"/>
      <point x="48" y="880"/>
      <point x="48" y="891" type="curve"/>
    </contour>
    <contour>
      <point x="4" y="918" type="move" name="top"/>
    </contour>
    <contour>
      <point x="2" y="677" type="move" name="_top"/>
    </contour>
  </outline>
</glyph>
<glyph name="yehabove-ar" format="1">
  <advance width="0"/>
  <unicode hex="06E7"/>
  <outline>
    <contour>
      <point x="-6" y="807"/>
      <point x="-3" y="830"/>
      <point x="-12" y="843" type="curve" smooth="yes"/>
      <point x="-17" y="850"/>
      <point x="-22" y="851"/>
      <point x="-26" y="851" type="curve" smooth="yes"/>
      <point x="-34" y="851"/>
      <point x="-41" y="844"/>
      <point x="-47" y="835" type="curve" smooth="yes"/>
      <point x="-57" y="819"/>
      <point x="-62" y="814"/>
      <point x="-92" y="800" type="curve" smooth="yes"/>
      <point x="-104" y="795"/>
      <point x="-119" y="788"/>
      <point x="-129" y="779" type="curve" smooth="yes"/>
      <point x="-143" y="768"/>
      <point x="-149" y="756"/>
      <point x="-149" y="742" type="curve" smooth="yes"/>
      <point x="-149" y="730"/>
      <point x="-145" y="720"/>
      <point x="-134" y="713" type="curve" smooth="yes"/>
      <point x="-122" y="705"/>
      <point x="-103" y="702"/>
      <point x="-77" y="702" type="curve" smooth="yes"/>
      <point x="124" y="702" type="line"/>
      <point x="136" y="716"/>
      <point x="144" y="727"/>
      <point x="150" y="741" type="curve"/>
      <point x="-75" y="741" type="line" smooth="yes"/>
      <point x="-111" y="741"/>
      <point x="-122" y="745"/>
      <point x="-122" y="756" type="curve" smooth="yes"/>
      <point x="-122" y="761"/>
      <point x="-119" y="766"/>
      <point x="-112" y="768" type="curve"/>
      <point x="-77" y="781"/>
      <point x="-70" y="789"/>
      <point x="-57" y="804" type="curve" smooth="yes"/>
      <point x="-53" y="807"/>
      <point x="-43" y="823"/>
      <point x="-31" y="823" type="curve" smooth="yes"/>
      <point x="-16" y="823"/>
      <point x="-17" y="804"/>
      <point x="-19" y="787" type="curve"/>
      <point x="-9" y="789" type="line"/>
    </contour>
    <contour>
      <point x="0" y="851" type="move" name="top"/>
    </contour>
    <contour>
      <point x="0" y="675" type="move" name="_top"/>
    </contour>
  </outline>
</glyph>
<glyph name="meembelow-ar" format="1">
  <advance width="0"/>
  <unicode hex="06ED"/>
  <outline>
    <contour>
      <point x="44" y="-226"/>
      <point x="36" y="-215"/>
      <point x="24" y="-208" type="curve" smooth="yes"/>
      <point x="18" y="-203"/>
      <point x="9" y="-200"/>
      <point x="3" y="-200" type="curve" smooth="yes"/>
      <point x="-11" y="-200"/>
      <point x="-18" y="-206"/>
      <point x="-23" y="-219" type="curve" smooth="yes"/>
      <point x="-25" y="-224"/>
      <point x="-27" y="-229"/>
      <point x="-27" y="-233" type="curve"/>
      <point x="-16" y="-227"/>
      <point x="-4" y="-228"/>
      <point x="11" y="-236" type="curve"/>
      <point x="-10" y="-237"/>
      <point x="-28" y="-244"/>
      <point x="-39" y="-259" type="curve" smooth="yes"/>
      <point x="-45" y="-267"/>
      <point x="-53" y="-282"/>
      <point x="-49" y="-304" type="curve" smooth="yes"/>
      <point x="-47" y="-316"/>
      <point x="-46" y="-331"/>
      <point x="-43" y="-346" type="curve" smooth="yes"/>
      <point x="-40" y="-363"/>
      <point x="-36" y="-390"/>
      <point x="-33" y="-414" type="curve"/>
      <point x="-21" y="-410" type="line"/>
      <point x="-21" y="-386"/>
      <point x="-23" y="-351"/>
      <point x="-29" y="-308" type="curve" smooth="yes"/>
      <point x="-30" y="-298"/>
      <point x="-28" y="-289"/>
      <point x="-21" y="-283" type="curve" smooth="yes"/>
      <point x="-15" y="-276"/>
      <point x="-4" y="-270"/>
      <point x="10" y="-267" type="curve" smooth="yes"/>
      <point x="20" y="-264"/>
      <point x="32" y="-264"/>
      <point x="40" y="-264" type="curve"/>
      <point x="43" y="-251"/>
      <point x="44" y="-238"/>
      <point x="44" y="-227" type="curve"/>
    </contour>
    <contour>
      <point x="-2" y="-180" type="move" name="_bottom"/>
    </contour>
    <contour>
      <point x="-2" y="-414" type="move" name="bottom"/>
    </contour>
  </outline>
</glyph>
<glyph name="zero-persian" format="1">
  <advance width="215"/>
  <unicode hex="06F0"/>
  <outline>
    <contour>
      <point x="43" y="197" type="line"/>
      <point x="113" y="128" type="line"/>
      <point x="181" y="197" type="line"/>
      <point x="113" y="267" type="line"/>
    </contour>
  </outline>
</glyph>
<glyph name="two-persian" format="1">
  <advance width="402"/>
  <unicode hex="06F2"/>
  <outline>
    <contour>
      <point x="337" y="527" type="line"/>
      <point x="328" y="479"/>
      <point x="292" y="450"/>
      <point x="223" y="450" type="curve" smooth="yes"/>
      <point x="189" y="450"/>
      <point x="164" y="461"/>
      <point x="143" y="481" type="curve" smooth="yes"/>
      <point x="126" y="497"/>
      <point x="112" y="518"/>
      <point x="98" y="542" type="curve"/>
      <point x="75" y="513"/>
      <point x="59" y="487"/>
      <point x="43" y="455" type="curve"/>
      <point x="75" y="402"/>
      <point x="99" y="338"/>
      <point x="114" y="267" type="curve" smooth="yes"/>
      <point x="134" y="181"/>
      <point x="140" y="97"/>
      <point x="134" y="0" type="curve"/>
      <point x="170" y="0" type="line"/>
      <point x="186" y="68"/>
      <point x="196" y="131"/>
      <point x="197" y="193" type="curve" smooth="yes"/>
      <point x="199" y="237"/>
      <point x="194" y="304"/>
      <point x="183" y="347" type="curve"/>
      <point x="225" y="343"/>
      <point x="265" y="346"/>
      <point x="305" y="379" type="curve" smooth="yes"/>
      <point x="341" y="409"/>
      <point x="366" y="460"/>
      <point x="368" y="541" type="curve"/>
    </contour>
  </outline>
</glyph>
<glyph name="three-persian" format="1">
  <advance width="476"/>
  <unicode hex="06F3"/>
  <outline>
    <contour>
      <point x="408" y="522" type="line"/>
      <point x="409" y="497"/>
      <point x="406" y="446"/>
      <point x="355" y="446" type="curve" smooth="yes"/>
      <point x="295" y="446"/>
      <point x="295" y="504"/>
      <point x="296" y="537" type="curve"/>
      <point x="265" y="523" type="line"/>
      <point x="266" y="488"/>
      <point x="263" y="452"/>
      <point x="215" y="452" type="curve" smooth="yes"/>
      <point x="145" y="452"/>
      <point x="112" y="521"/>
      <point x="98" y="542" type="curve"/>
      <point x="75" y="513"/>
      <point x="59" y="487"/>
      <point x="43" y="455" type="curve"/>
      <point x="75" y="402"/>
      <point x="99" y="338"/>
      <point x="114" y="267" type="curve" smooth="yes"/>
      <point x="134" y="181"/>
      <point x="140" y="97"/>
      <point x="134" y="0" type="curve"/>
      <point x="170" y="0" type="line"/>
      <point x="187" y="73"/>
      <point x="198" y="139"/>
      <point x="198" y="204" type="curve" smooth="yes"/>
      <point x="199" y="249"/>
      <point x="194" y="297"/>
      <point x="184" y="346" type="curve"/>
      <point x="229" y="343"/>
      <point x="252" y="352"/>
      <point x="274" y="384" type="curve"/>
      <point x="292" y="369"/>
      <point x="311" y="362"/>
      <point x="339" y="362" type="curve" smooth="yes"/>
      <point x="376" y="363"/>
      <point x="401" y="377"/>
      <point x="417" y="398" type="curve" smooth="yes"/>
      <point x="446" y="437"/>
      <point x="445" y="500"/>
      <point x="439" y="537" type="curve"/>
    </contour>
  </outline>
</glyph>
<glyph name="five-persian" format="1">
  <advance width="457"/>
  <unicode hex="06F5"/>
  <outline>
    <contour>
      <point x="421" y="173"/>
      <point x="395" y="243"/>
      <point x="357" y="313" type="curve" smooth="yes"/>
      <point x="314" y="406"/>
      <point x="239" y="501"/>
      <point x="207" y="542" type="curve"/>
      <point x="187" y="510"/>
      <point x="173" y="478"/>
      <point x="162" y="450" type="curve"/>
      <point x="183" y="424" type="line"/>
      <point x="148" y="372"/>
      <point x="91" y="267"/>
      <point x="61" y="194" type="curve" smooth="yes"/>
      <point x="41" y="145"/>
      <point x="33" y="79"/>
      <point x="62" y="37" type="curve" smooth="yes"/>
      <point x="80" y="13"/>
      <point x="105" y="0"/>
      <point x="139" y="0" type="curve" smooth="yes"/>
      <point x="198" y="0"/>
      <point x="221" y="29"/>
      <point x="228" y="49" type="curve"/>
      <point x="240" y="29"/>
      <point x="265" y="0"/>
      <point x="318" y="0" type="curve" smooth="yes"/>
      <point x="345" y="0"/>
      <point x="372" y="10"/>
      <point x="390" y="29" type="curve" smooth="yes"/>
      <point x="417" y="57"/>
      <point x="425" y="98"/>
      <point x="424" y="130" type="curve" smooth="yes"/>
    </contour>
    <contour>
      <point x="365" y="153"/>
      <point x="366" y="134"/>
      <point x="354" y="117" type="curve" smooth="yes"/>
      <point x="346" y="106"/>
      <point x="330" y="94"/>
      <point x="300" y="94" type="curve" smooth="yes"/>
      <point x="249" y="94"/>
      <point x="247" y="146"/>
      <point x="246" y="169" type="curve"/>
      <point x="217" y="157" type="line"/>
      <point x="215" y="140"/>
      <point x="214" y="95"/>
      <point x="162" y="94" type="curve" smooth="yes"/>
      <point x="139" y="94"/>
      <point x="124" y="104"/>
      <point x="116" y="115" type="curve" smooth="yes"/>
      <point x="102" y="136"/>
      <point x="106" y="169"/>
      <point x="127" y="213" type="curve" smooth="yes"/>
      <point x="138" y="236"/>
      <point x="180" y="304"/>
      <point x="222" y="368" type="curve"/>
      <point x="229" y="360"/>
      <point x="271" y="306"/>
      <point x="304" y="260" type="curve" smooth="yes"/>
      <point x="331" y="221"/>
      <point x="355" y="184"/>
      <point x="361" y="166" type="curve" smooth="yes"/>
    </contour>
  </outline>
</glyph>
<glyph name="dalVinvertedbelow-ar" format="1">
  <advance width="426"/>
  <unicode hex="075A"/>
  <outline>
    <component base="dal-ar"/>
    <component base="circumflex.below" xOffset="184" yOffset="143"/>
    <contour>
      <point x="210" y="-252" type="move" name="bottom"/>
    </contour>
  </outline>
</glyph>
<glyph name="behVbelow-ar" format="1">
  <advance width="841"/>
  <unicode hex="08A0"/>
  <outline>
    <component base="dotlessbeh-ar"/>
    <component base="vbelow-ar" xOffset="409" yOffset="136"/>
    <contour>
      <point x="410" y="-268" type="move" name="bottom"/>
    </contour>
  </outline>
</glyph>
<glyph name="rehLoop-ar" format="1">
  <advance width="435"/>
  <unicode hex="08AA"/>
  <outline>
    <contour>
      <point x="286" y="209"/>
      <point x="270" y="184"/>
      <point x="251" y="152" type="curve"/>
      <point x="262" y="142"/>
      <point x="280" y="123"/>
      <point x="296" y="100" type="curve" smooth="yes"/>
      <point x="312" y="78"/>
      <point x="323" y="54"/>
      <point x="323" y="23" type="curve" smooth="yes"/>
      <point x="323" y="-23"/>
      <point x="296" y="-61"/>
      <point x="255" y="-88" type="curve"/>
      <point x="238" y="-45"/>
      <point x="197" y="2"/>
      <point x="132" y="2" type="curve" smooth="yes"/>
      <point x="84" y="2"/>
      <point x="33" y="-37"/>
      <point x="33" y="-102" type="curve" smooth="yes"/>
      <point x="33" y="-140"/>
      <point x="48" y="-171"/>
      <point x="72" y="-192" type="curve" smooth="yes"/>
      <point x="97" y="-215"/>
      <point x="132" y="-227"/>
      <point x="168" y="-228" type="curve" smooth="yes"/>
      <point x="194" y="-228"/>
      <point x="220" y="-223"/>
      <point x="243" y="-212" type="curve"/>
      <point x="247" y="-228"/>
      <point x="250" y="-242"/>
      <point x="253" y="-262" type="curve"/>
      <point x="294" y="-226" type="line"/>
      <point x="291" y="-214"/>
      <point x="289" y="-201"/>
      <point x="286" y="-190" type="curve"/>
      <point x="304" y="-175"/>
      <point x="328" y="-153"/>
      <point x="343" y="-115" type="curve" smooth="yes"/>
      <point x="372" y="-57"/>
      <point x="378" y="12"/>
      <point x="378" y="50" type="curve" smooth="yes"/>
      <point x="378" y="120"/>
      <point x="358" y="165"/>
      <point x="339" y="196" type="curve" smooth="yes"/>
      <point x="329" y="213"/>
      <point x="317" y="228"/>
      <point x="309" y="235" type="curve"/>
    </contour>
    <contour>
      <point x="197" y="-127"/>
      <point x="169" y="-136"/>
      <point x="147" y="-136" type="curve" smooth="yes"/>
      <point x="97" y="-142"/>
      <point x="67" y="-120"/>
      <point x="71" y="-89" type="curve" smooth="yes"/>
      <point x="74" y="-70"/>
      <point x="95" y="-53"/>
      <point x="120" y="-53" type="curve" smooth="yes"/>
      <point x="155" y="-53"/>
      <point x="187" y="-73"/>
      <point x="208" y="-116" type="curve"/>
    </contour>
    <contour>
      <point x="252" y="271" type="move" name="top"/>
    </contour>
    <contour>
      <point x="169" y="-278" type="move" name="bottom"/>
    </contour>
  </outline>
</glyph>
<glyph name="fathatanCurly-ar" format="1">
  <advance width="0"/>
  <unicode hex="08E7"/>
  <outline>
    <contour>
      <point x="-55" y="784"/>
      <point x="-50" y="775"/>
      <point x="-31" y="761" type="curve"/>
      <point x="-34" y="754"/>
      <point x="-36" y="747"/>
      <point x="-36" y="740" type="curve" smooth="yes"/>
      <point x="-35" y="725"/>
      <point x="-28" y="715"/>
      <point x="-7" y="700" type="curve"/>
      <point x="-2" y="710" type="line"/>
      <point x="-7" y="715"/>
      <point x="-11" y="719"/>
      <point x="-12" y="725" type="curve"/>
      <point x="-16" y="737"/>
      <point x="-3" y="749"/>
      <point x="8" y="756" type="curve" smooth="yes"/>
      <point x="16" y="760"/>
      <point x="38" y="771"/>
      <point x="46" y="782" type="curve"/>
      <point x="52" y="790"/>
      <point x="56" y="801"/>
      <point x="56" y="812" type="curve" smooth="yes"/>
      <point x="55" y="827"/>
      <point x="50" y="834"/>
      <point x="31" y="849" type="curve"/>
      <point x="34" y="856"/>
      <point x="36" y="864"/>
      <point x="36" y="871" type="curve" smooth="yes"/>
      <point x="35" y="886"/>
      <point x="29" y="894"/>
      <point x="7" y="911" type="curve"/>
      <point x="2" y="900" type="line"/>
      <point x="6" y="896"/>
      <point x="11" y="890"/>
      <point x="12" y="886" type="curve"/>
      <point x="12" y="882"/>
      <point x="15" y="870"/>
      <point x="-9" y="855" type="curve" smooth="yes"/>
      <point x="-19" y="848"/>
      <point x="-37" y="840"/>
      <point x="-47" y="828" type="curve"/>
      <point x="-53" y="818"/>
      <point x="-56" y="808"/>
      <point x="-56" y="798" type="curve" smooth="yes"/>
    </contour>
    <contour>
      <point x="-37" y="796"/>
      <point x="-23" y="808"/>
      <point x="-12" y="814" type="curve" smooth="yes"/>
      <point x="-5" y="818"/>
      <point x="15" y="828"/>
      <point x="24" y="840" type="curve"/>
      <point x="27" y="835"/>
      <point x="31" y="831"/>
      <point x="32" y="827" type="curve"/>
      <point x="32" y="824"/>
      <point x="34" y="812"/>
      <point x="11" y="796" type="curve" smooth="yes"/>
      <point x="1" y="790"/>
      <point x="-15" y="783"/>
      <point x="-25" y="770" type="curve"/>
      <point x="-28" y="774"/>
      <point x="-32" y="778"/>
      <point x="-33" y="784" type="curve"/>
    </contour>
    <contour>
      <point x="3" y="911" type="move" name="top"/>
    </contour>
    <contour>
      <point x="3" y="680" type="move" name="_top"/>
    </contour>
  </outline>
</glyph>
<glyph name="kasratanCurly-ar" format="1">
  <advance width="0"/>
  <unicode hex="08E9"/>
  <outline>
    <contour>
      <point x="-55" y="-328"/>
      <point x="-50" y="-338"/>
      <point x="-32" y="-351" type="curve"/>
      <point x="-34" y="-358"/>
      <point x="-36" y="-366"/>
      <point x="-36" y="-373" type="curve" smooth="yes"/>
      <point x="-35" y="-388"/>
      <point x="-29" y="-397"/>
      <point x="-7" y="-413" type="curve"/>
      <point x="-3" y="-403" type="line"/>
      <point x="-7" y="-398"/>
      <point x="-12" y="-394"/>
      <point x="-13" y="-388" type="curve"/>
      <point x="-17" y="-376"/>
      <point x="-3" y="-363"/>
      <point x="8" y="-357" type="curve" smooth="yes"/>
      <point x="16" y="-352"/>
      <point x="37" y="-342"/>
      <point x="46" y="-331" type="curve"/>
      <point x="52" y="-323"/>
      <point x="56" y="-311"/>
      <point x="55" y="-300" type="curve" smooth="yes"/>
      <point x="55" y="-286"/>
      <point x="50" y="-278"/>
      <point x="31" y="-263" type="curve"/>
      <point x="34" y="-257"/>
      <point x="35" y="-249"/>
      <point x="35" y="-242" type="curve" smooth="yes"/>
      <point x="35" y="-226"/>
      <point x="29" y="-219"/>
      <point x="6" y="-202" type="curve"/>
      <point x="2" y="-213" type="line"/>
      <point x="5" y="-217"/>
      <point x="11" y="-222"/>
      <point x="12" y="-227" type="curve"/>
      <point x="12" y="-231"/>
      <point x="15" y="-242"/>
      <point x="-9" y="-258" type="curve" smooth="yes"/>
      <point x="-19" y="-265"/>
      <point x="-37" y="-273"/>
      <point x="-47" y="-285" type="curve"/>
      <point x="-53" y="-295"/>
      <point x="-57" y="-305"/>
      <point x="-56" y="-315" type="curve" smooth="yes"/>
    </contour>
    <contour>
      <point x="-36" y="-317"/>
      <point x="-23" y="-305"/>
      <point x="-11" y="-299" type="curve" smooth="yes"/>
      <point x="-4" y="-294"/>
      <point x="15" y="-285"/>
      <point x="24" y="-273" type="curve"/>
      <point x="28" y="-277"/>
      <point x="32" y="-281"/>
      <point x="33" y="-286" type="curve"/>
      <point x="33" y="-289"/>
      <point x="35" y="-301"/>
      <point x="12" y="-316" type="curve" smooth="yes"/>
      <point x="2" y="-322"/>
      <point x="-15" y="-329"/>
      <point x="-24" y="-342" type="curve"/>
      <point x="-28" y="-338"/>
      <point x="-31" y="-334"/>
      <point x="-32" y="-329" type="curve"/>
    </contour>
    <contour>
      <point x="0" y="-182" type="move" name="_bottom"/>
    </contour>
    <contour>
      <point x="0" y="-413" type="move" name="bottom"/>
    </contour>
  </outline>
</glyph>
<glyph name="opendammatan-ar" format="1">
  <advance width="0"/>
  <unicode hex="08F1"/>
  <outline>
    <contour>
      <point x="-10" y="765" type="line"/>
      <point x="5" y="792"/>
      <point x="7" y="821"/>
      <point x="-10" y="830" type="curve" smooth="yes"/>
      <point x="-25" y="837"/>
      <point x="-42" y="830"/>
      <point x="-59" y="810" type="curve" smooth="yes"/>
      <point x="-68" y="799"/>
      <point x="-71" y="789"/>
      <point x="-69" y="779" type="curve" smooth="yes"/>
      <point x="-66" y="767"/>
      <point x="-55" y="758"/>
      <point x="-39" y="752" type="curve"/>
      <point x="-58" y="734"/>
      <point x="-77" y="726"/>
      <point x="-111" y="728" type="curve"/>
      <point x="-113" y="723"/>
      <point x="-117" y="716"/>
      <point x="-120" y="705" type="curve"/>
      <point x="-85" y="701"/>
      <point x="-62" y="709"/>
      <point x="-44" y="721" type="curve" smooth="yes"/>
      <point x="-34" y="729"/>
      <point x="-27" y="735"/>
      <point x="-21" y="746" type="curve"/>
      <point x="2" y="736" type="line"/>
      <point x="2" y="747"/>
      <point x="2" y="751"/>
      <point x="0" y="759" type="curve"/>
    </contour>
    <contour>
      <point x="-38" y="778" type="line" smooth="yes"/>
      <point x="-50" y="785"/>
      <point x="-52" y="792"/>
      <point x="-51" y="797" type="curve" smooth="yes"/>
      <point x="-52" y="803"/>
      <point x="-46" y="808"/>
      <point x="-38" y="811" type="curve" smooth="yes"/>
      <point x="-33" y="813"/>
      <point x="-26" y="811"/>
      <point x="-20" y="805" type="curve" smooth="yes"/>
      <point x="-14" y="798"/>
      <point x="-16" y="785"/>
      <point x="-24" y="771" type="curve"/>
    </contour>
    <contour>
      <point x="98" y="765" type="line"/>
      <point x="113" y="792"/>
      <point x="115" y="821"/>
      <point x="97" y="830" type="curve" smooth="yes"/>
      <point x="84" y="837"/>
      <point x="66" y="830"/>
      <point x="49" y="810" type="curve" smooth="yes"/>
      <point x="40" y="799"/>
      <point x="37" y="789"/>
      <point x="39" y="779" type="curve" smooth="yes"/>
      <point x="42" y="767"/>
      <point x="53" y="758"/>
      <point x="69" y="752" type="curve"/>
      <point x="50" y="734"/>
      <point x="31" y="726"/>
      <point x="-3" y="728" type="curve"/>
      <point x="-5" y="723"/>
      <point x="-9" y="716"/>
      <point x="-13" y="705" type="curve"/>
      <point x="23" y="701"/>
      <point x="46" y="709"/>
      <point x="63" y="721" type="curve" smooth="yes"/>
      <point x="75" y="729"/>
      <point x="81" y="735"/>
      <point x="87" y="746" type="curve"/>
      <point x="110" y="736" type="line"/>
      <point x="110" y="747"/>
      <point x="110" y="751"/>
      <point x="108" y="759" type="curve"/>
    </contour>
    <contour>
      <point x="71" y="778" type="line" smooth="yes"/>
      <point x="59" y="785"/>
      <point x="57" y="792"/>
      <point x="57" y="797" type="curve" smooth="yes"/>
      <point x="57" y="803"/>
      <point x="63" y="808"/>
      <point x="70" y="811" type="curve" smooth="yes"/>
      <point x="77" y="813"/>
      <point x="83" y="811"/>
      <point x="89" y="805" type="curve" smooth="yes"/>
      <point x="95" y="798"/>
      <point x="93" y="785"/>
      <point x="85" y="771" type="curve"/>
    </contour>
    <contour>
      <point x="2" y="837" type="move" name="top"/>
    </contour>
    <contour>
      <point x="2" y="680" type="move" name="_top"/>
    </contour>
  </outline>
</glyph>
<glyph name="openkasratan-ar" format="1">
  <advance width="0"/>
  <unicode hex="08F2"/>
  <outline>
    <contour>
      <point x="0" y="-313"/>
      <point x="-67" y="-339"/>
      <point x="-116" y="-364" type="curve"/>
      <point x="-119" y="-372"/>
      <point x="-123" y="-384"/>
      <point x="-125" y="-396" type="curve"/>
      <point x="-112" y="-390"/>
      <point x="-9" y="-345"/>
      <point x="44" y="-328" type="curve"/>
      <point x="49" y="-317"/>
      <point x="52" y="-308"/>
      <point x="53" y="-296" type="curve"/>
    </contour>
    <contour>
      <point x="69" y="-222"/>
      <point x="2" y="-248"/>
      <point x="-47" y="-273" type="curve"/>
      <point x="-50" y="-281"/>
      <point x="-53" y="-293"/>
      <point x="-56" y="-305" type="curve"/>
      <point x="-42" y="-299"/>
      <point x="61" y="-254"/>
      <point x="113" y="-237" type="curve"/>
      <point x="118" y="-226"/>
      <point x="121" y="-217"/>
      <point x="123" y="-205" type="curve"/>
    </contour>
    <contour>
      <point x="0" y="-185" type="move" name="_bottom"/>
    </contour>
    <contour>
      <point x="0" y="-396" type="move" name="bottom"/>
    </contour>
  </outline>
</glyph>
<glyph name="highwaw-ar" format="1">
  <advance width="0"/>
  <unicode hex="08F3"/>
  <outline>
    <contour>
      <point x="37" y="833"/>
      <point x="36" y="840"/>
      <point x="33" y="845" type="curve" smooth="yes"/>
      <point x="29" y="851"/>
      <point x="24" y="856"/>
      <point x="16" y="856" type="curve" smooth="yes"/>
      <point x="5" y="856"/>
      <point x="-2" y="848"/>
      <point x="-2" y="838" type="curve" smooth="yes"/>
      <point x="-2" y="828"/>
      <point x="6" y="822"/>
      <point x="19" y="822" type="curve" smooth="yes"/>
      <point x="28" y="823"/>
      <point x="33" y="826"/>
      <point x="38" y="831" type="curve"/>
    </contour>
    <contour>
      <point x="56" y="796"/>
      <point x="56" y="781"/>
      <point x="53" y="765" type="curve" smooth="yes"/>
      <point x="50" y="753"/>
      <point x="47" y="742"/>
      <point x="42" y="730" type="curve" smooth="yes"/>
      <point x="37" y="720"/>
      <point x="29" y="713"/>
      <point x="22" y="707" type="curve" smooth="yes"/>
      <point x="13" y="702"/>
      <point x="6" y="700"/>
      <point x="-5" y="700" type="curve" smooth="yes"/>
      <point x="-13" y="700"/>
      <point x="-20" y="701"/>
      <point x="-26" y="701" type="curve" smooth="yes"/>
      <point x="-32" y="701"/>
      <point x="-41" y="700"/>
      <point x="-48" y="698" type="curve"/>
      <point x="-54" y="706" type="line"/>
      <point x="-48" y="709"/>
      <point x="-28" y="719"/>
      <point x="-8" y="731" type="curve" smooth="yes"/>
      <point x="10" y="741"/>
      <point x="28" y="756"/>
      <point x="35" y="776" type="curve" smooth="yes"/>
      <point x="38" y="785"/>
      <point x="40" y="796"/>
      <point x="40" y="805" type="curve"/>
      <point x="38" y="801"/>
      <point x="32" y="794"/>
      <point x="18" y="794" type="curve" smooth="yes"/>
      <point x="6" y="794"/>
      <point x="-2" y="796"/>
      <point x="-7" y="802" type="curve" smooth="yes"/>
      <point x="-14" y="809"/>
      <point x="-16" y="821"/>
      <point x="-15" y="833" type="curve" smooth="yes"/>
      <point x="-15" y="844"/>
      <point x="-12" y="857"/>
      <point x="-6" y="867" type="curve" smooth="yes"/>
      <point x="1" y="877"/>
      <point x="10" y="884"/>
      <point x="19" y="884" type="curve" smooth="yes"/>
      <point x="37" y="884"/>
      <point x="45" y="866"/>
      <point x="49" y="854" type="curve" smooth="yes"/>
      <point x="52" y="844"/>
      <point x="55" y="828"/>
      <point x="56" y="809" type="curve" smooth="yes"/>
    </contour>
    <contour>
      <point x="5" y="885" type="move" name="top"/>
    </contour>
    <contour>
      <point x="2" y="680" type="move" name="_top"/>
    </contour>
  </outline>
</glyph>
<glyph name="fathaRing-ar" format="1">
  <advance width="0"/>
  <unicode hex="08F4"/>
  <outline>
    <contour>
      <point x="31" y="798"/>
      <point x="-29" y="774"/>
      <point x="-77" y="750" type="curve"/>
      <point x="-81" y="745"/>
      <point x="-83" y="731"/>
      <point x="-85" y="721" type="curve"/>
      <point x="-73" y="727"/>
      <point x="26" y="768"/>
      <point x="77" y="785" type="curve"/>
      <point x="82" y="794"/>
      <point x="84" y="804"/>
      <point x="85" y="815" type="curve"/>
    </contour>
    <contour>
      <point x="-41" y="834"/>
      <point x="-58" y="790"/>
      <point x="-58" y="753" type="curve" smooth="yes"/>
      <point x="-58" y="738"/>
      <point x="-48" y="700"/>
      <point x="-2" y="700" type="curve" smooth="yes"/>
      <point x="22" y="700"/>
      <point x="40" y="708"/>
      <point x="48" y="723" type="curve" smooth="yes"/>
      <point x="57" y="736"/>
      <point x="58" y="751"/>
      <point x="58" y="760" type="curve" smooth="yes"/>
      <point x="58" y="794"/>
      <point x="39" y="834"/>
      <point x="-5" y="834" type="curve"/>
    </contour>
    <contour>
      <point x="28" y="803"/>
      <point x="39" y="783"/>
      <point x="39" y="767" type="curve" smooth="yes"/>
      <point x="39" y="743"/>
      <point x="6" y="741"/>
      <point x="-7" y="741" type="curve" smooth="yes"/>
      <point x="-31" y="741"/>
      <point x="-38" y="755"/>
      <point x="-38" y="771" type="curve" smooth="yes"/>
      <point x="-38" y="783"/>
      <point x="-31" y="803"/>
      <point x="-6" y="803" type="curve"/>
    </contour>
    <contour>
      <point x="2" y="835" type="move" name="top"/>
    </contour>
    <contour>
      <point x="2" y="681" type="move" name="_top"/>
    </contour>
  </outline>
</glyph>
<glyph name="fathaDotabove-ar" format="1">
  <advance width="0"/>
  <unicode hex="08F5"/>
  <outline>
    <contour>
      <point x="-76" y="706"/>
      <point x="27" y="751"/>
      <point x="80" y="768" type="curve"/>
      <point x="85" y="779"/>
      <point x="88" y="788"/>
      <point x="89" y="800" type="curve"/>
      <point x="36" y="783"/>
      <point x="-31" y="757"/>
      <point x="-80" y="732" type="curve"/>
      <point x="-83" y="724"/>
      <point x="-87" y="712"/>
      <point x="-89" y="700" type="curve"/>
    </contour>
    <contour>
      <point x="-17" y="812"/>
      <point x="-8" y="802"/>
      <point x="0" y="793" type="curve"/>
      <point x="10" y="802"/>
      <point x="19" y="812"/>
      <point x="25" y="818" type="curve"/>
      <point x="19" y="827"/>
      <point x="8" y="838"/>
      <point x="-2" y="844" type="curve"/>
      <point x="-8" y="838"/>
      <point x="-19" y="826"/>
      <point x="-27" y="819" type="curve"/>
    </contour>
    <contour>
      <point x="0" y="844" type="move" name="top"/>
    </contour>
    <contour>
      <point x="0" y="680" type="move" name="_top"/>
    </contour>
  </outline>
</glyph>
<glyph name="blackSquare" format="1">
  <advance width="428"/>
  <unicode hex="25A0"/>
  <outline>
    <contour>
      <point x="384" y="407" type="line"/>
      <point x="43" y="407" type="line"/>
      <point x="43" y="66" type="line"/>
      <point x="384" y="66" type="line"/>
    </contour>
  </outline>
</glyph>
<glyph name="whiteInBlackSquare" format="1">
  <advance width="360"/>
  <unicode hex="25A3"/>
  <outline>
    <contour>
      <point x="316" y="273" type="line"/>
      <point x="43" y="273" type="line"/>
      <point x="43" y="0" type="line"/>
      <point x="316" y="0" type="line"/>
    </contour>
    <contour>
      <point x="79" y="237" type="line"/>
      <point x="280" y="237" type="line"/>
      <point x="280" y="36" type="line"/>
      <point x="79" y="36" type="line"/>
    </contour>
    <contour>
      <point x="245" y="202" type="line"/>
      <point x="114" y="202" type="line"/>
      <point x="114" y="71" type="line"/>
      <point x="245" y="71" type="line"/>
    </contour>
  </outline>
</glyph>
<glyph name="whiteDiamond" format="1">
  <advance width="569"/>
  <unicode hex="25C7"/>
  <outline>
    <contour>
      <point x="525" y="63" type="line"/>
      <point x="284" y="304" type="line"/>
      <point x="43" y="63" type="line"/>
      <point x="285" y="-178" type="line"/>
    </contour>
    <contour>
      <point x="284" y="241" type="line"/>
      <point x="463" y="63" type="line"/>
      <point x="285" y="-115" type="line"/>
      <point x="107" y="63" type="line"/>
    </contour>
  </outline>
</glyph>
<glyph name="blackInWhiteDiamond" format="1">
  <advance width="569"/>
  <unicode hex="25C8"/>
  <outline>
    <contour>
      <point x="525" y="61" type="line"/>
      <point x="283" y="301" type="line"/>
      <point x="43" y="60" type="line"/>
      <point x="284" y="-181" type="line"/>
    </contour>
    <contour>
      <point x="284" y="238" type="line"/>
      <point x="462" y="61" type="line"/>
      <point x="284" y="-117" type="line"/>
      <point x="106" y="60" type="line"/>
    </contour>
    <contour>
      <point x="400" y="61" type="line"/>
      <point x="284" y="176" type="line"/>
      <point x="169" y="60" type="line"/>
      <point x="285" y="-56" type="line"/>
    </contour>
  </outline>
</glyph>
<glyph name="largeCircle" format="1">
  <advance width="399"/>
  <unicode hex="25EF"/>
  <outline>
    <contour>
      <point x="355" y="243"/>
      <point x="286" y="313"/>
      <point x="199" y="313" type="curve" smooth="yes"/>
      <point x="113" y="313"/>
      <point x="43" y="243"/>
      <point x="43" y="156" type="curve" smooth="yes"/>
      <point x="43" y="70"/>
      <point x="113" y="0"/>
      <point x="199" y="0" type="curve" smooth="yes"/>
      <point x="286" y="0"/>
      <point x="355" y="70"/>
      <point x="355" y="156" type="curve" smooth="yes"/>
    </contour>
  </outline>
</glyph>
<glyph name="keheh-ar.fina" format="1">
  <advance width="860"/>
  <unicode hex="FB8F"/>
  <outline>
    <contour>
      <point x="756" y="511"/>
      <point x="762" y="544"/>
      <point x="766" y="580" type="curve"/>
      <point x="672" y="535"/>
      <point x="551" y="473"/>
      <point x="479" y="414" type="curve"/>
      <point x="476" y="400"/>
      <point x="466" y="363"/>
      <point x="463" y="325" type="curve"/>
      <point x="499" y="284" type="line"/>
      <point x="507" y="299" type="line"/>
      <point x="521" y="282"/>
      <point x="537" y="264"/>
      <point x="550" y="247" type="curve"/>
      <point x="588" y="201"/>
      <point x="618" y="159"/>
      <point x="624" y="149" type="curve"/>
      <point x="622" y="146"/>
      <point x="603" y="111"/>
      <point x="557" y="108" type="curve" smooth="yes"/>
      <point x="504" y="105"/>
      <point x="462" y="107"/>
      <point x="411" y="107" type="curve" smooth="yes"/>
      <point x="356" y="107"/>
      <point x="282" y="107"/>
      <point x="234" y="114" type="curve" smooth="yes"/>
      <point x="187" y="120"/>
      <point x="144" y="138"/>
      <point x="122" y="168" type="curve" smooth="yes"/>
      <point x="110" y="184"/>
      <point x="102" y="204"/>
      <point x="98" y="232" type="curve"/>
      <point x="71" y="240" type="line"/>
      <point x="64" y="188"/>
      <point x="64" y="147"/>
      <point x="77" y="112" type="curve" smooth="yes"/>
      <point x="96" y="53"/>
      <point x="146" y="15"/>
      <point x="235" y="1" type="curve" smooth="yes"/>
      <point x="271" y="-5"/>
      <point x="311" y="-8"/>
      <point x="405" y="-7" type="curve" smooth="yes"/>
      <point x="458" y="-6"/>
      <point x="507" y="-8"/>
      <point x="565" y="-5" type="curve" smooth="yes"/>
      <point x="636" y="-1"/>
      <point x="673" y="46"/>
      <point x="672" y="97" type="curve"/>
      <point x="691" y="42"/>
      <point x="733" y="0"/>
      <point x="818" y="0" type="curve" smooth="yes"/>
      <point x="859" y="0" type="line"/>
      <point x="859" y="112" type="line"/>
      <point x="817" y="112" type="line" smooth="yes"/>
      <point x="758" y="112"/>
      <point x="728" y="149"/>
      <point x="701" y="184" type="curve" smooth="yes"/>
      <point x="680" y="212"/>
      <point x="647" y="252"/>
      <point x="616" y="286" type="curve" smooth="yes"/>
      <point x="579" y="326"/>
      <point x="545" y="361"/>
      <point x="537" y="369" type="curve"/>
      <point x="614" y="413"/>
      <point x="686" y="451"/>
      <point x="747" y="475" type="curve"/>
    </contour>
    <contour>
      <point x="594" y="539" type="move" name="top"/>
    </contour>
    <contour>
      <point x="382" y="-36" type="move" name="bottom"/>
    </contour>
  </outline>
</glyph>
<glyph name="hehgoal-ar.init" format="1">
  <advance width="230"/>
  <unicode hex="FBA8"/>
  <outline>
    <contour>
      <point x="173" y="239"/>
      <point x="137" y="292"/>
      <point x="115" y="316" type="curve"/>
      <point x="94" y="293"/>
      <point x="80" y="271"/>
      <point x="63" y="236" type="curve"/>
      <point x="88" y="207"/>
      <point x="106" y="189"/>
      <point x="127" y="164" type="curve"/>
      <point x="122" y="156"/>
      <point x="98" y="112"/>
      <point x="37" y="112" type="curve" smooth="yes"/>
      <point x="-18" y="112" type="line" smooth="yes"/>
      <point x="-48" y="112"/>
      <point x="-74" y="89"/>
      <point x="-74" y="57" type="curve" smooth="yes"/>
      <point x="-74" y="25"/>
      <point x="-49" y="0"/>
      <point x="-18" y="0" type="curve" smooth="yes"/>
      <point x="29" y="0" type="line" smooth="yes"/>
      <point x="79" y="0"/>
      <point x="116" y="20"/>
      <point x="141" y="59" type="curve" smooth="yes"/>
      <point x="162" y="93"/>
      <point x="173" y="127"/>
      <point x="173" y="171" type="curve" smooth="yes"/>
    </contour>
    <contour>
      <point x="99" y="-21" type="line"/>
      <point x="42" y="-43"/>
      <point x="-8" y="-76"/>
      <point x="-21" y="-133" type="curve" smooth="yes"/>
      <point x="-29" y="-169"/>
      <point x="-9" y="-194"/>
      <point x="15" y="-195" type="curve" smooth="yes"/>
      <point x="40" y="-196"/>
      <point x="50" y="-183"/>
      <point x="55" y="-163" type="curve"/>
      <point x="29" y="-158"/>
      <point x="15" y="-144"/>
      <point x="24" y="-113" type="curve" smooth="yes"/>
      <point x="31" y="-86"/>
      <point x="53" y="-68"/>
      <point x="99" y="-46" type="curve"/>
    </contour>
    <contour>
      <point x="2" y="288" type="move" name="top"/>
    </contour>
    <contour>
      <point x="14" y="-224" type="move" name="bottom"/>
    </contour>
  </outline>
</glyph>
<glyph name="hehDoachashmee-ar.fina" format="1">
  <advance width="641"/>
  <unicode hex="FBAB"/>
  <outline>
    <contour>
      <point x="587" y="112" type="line" smooth="yes"/>
      <point x="558" y="112"/>
      <point x="531" y="112"/>
      <point x="520" y="124" type="curve"/>
      <point x="523" y="175"/>
      <point x="502" y="212"/>
      <point x="483" y="236" type="curve" smooth="yes"/>
      <point x="461" y="265"/>
      <point x="431" y="289"/>
      <point x="392" y="313" type="curve" smooth="yes"/>
      <point x="373" y="324"/>
      <point x="352" y="335"/>
      <point x="332" y="345" type="curve" smooth="yes"/>
      <point x="309" y="356"/>
      <point x="296" y="363"/>
      <point x="280" y="374" type="curve"/>
      <point x="273" y="361"/>
      <point x="264" y="348"/>
      <point x="257" y="336" type="curve" smooth="yes"/>
      <point x="245" y="312"/>
      <point x="251" y="298"/>
      <point x="270" y="287" type="curve" smooth="yes"/>
      <point x="284" y="279" type="line"/>
      <point x="255" y="275"/>
      <point x="224" y="253"/>
      <point x="208" y="228" type="curve" smooth="yes"/>
      <point x="194" y="208"/>
      <point x="186" y="182"/>
      <point x="185" y="157" type="curve" smooth="yes"/>
      <point x="185" y="134"/>
      <point x="190" y="108"/>
      <point x="206" y="88" type="curve"/>
      <point x="186" y="70"/>
      <point x="142" y="47"/>
      <point x="77" y="26" type="curve"/>
      <point x="67" y="-6" type="line"/>
      <point x="122" y="-16"/>
      <point x="166" y="-13"/>
      <point x="206" y="-6" type="curve" smooth="yes"/>
      <point x="243" y="0"/>
      <point x="277" y="16"/>
      <point x="311" y="47" type="curve"/>
      <point x="351" y="33"/>
      <point x="398" y="10"/>
      <point x="434" y="-9" type="curve"/>
      <point x="462" y="20" type="line"/>
      <point x="474" y="34"/>
      <point x="484" y="43"/>
      <point x="489" y="54" type="curve"/>
      <point x="494" y="40"/>
      <point x="502" y="28"/>
      <point x="514" y="19" type="curve" smooth="yes"/>
      <point x="531" y="4"/>
      <point x="559" y="0"/>
      <point x="591" y="0" type="curve" smooth="yes"/>
      <point x="641" y="0" type="line"/>
      <point x="641" y="112" type="line"/>
    </contour>
    <contour>
      <point x="344" y="208"/>
      <point x="349" y="192"/>
      <point x="349" y="185" type="curve" smooth="yes"/>
      <point x="349" y="178"/>
      <point x="344" y="163"/>
      <point x="328" y="152" type="curve"/>
      <point x="315" y="143"/>
      <point x="302" y="140"/>
      <point x="293" y="140" type="curve" smooth="yes"/>
      <point x="287" y="140"/>
      <point x="275" y="141"/>
      <point x="255" y="153" type="curve"/>
      <point x="239" y="161"/>
      <point x="227" y="174"/>
      <point x="226" y="183" type="curve"/>
      <point x="227" y="190"/>
      <point x="237" y="205"/>
      <point x="257" y="223" type="curve"/>
      <point x="281" y="243"/>
      <point x="294" y="249"/>
      <point x="306" y="249" type="curve" smooth="yes"/>
      <point x="319" y="249"/>
      <point x="327" y="239"/>
      <point x="336" y="223" type="curve"/>
    </contour>
    <contour>
      <point x="456" y="149"/>
      <point x="462" y="123"/>
      <point x="463" y="94" type="curve"/>
      <point x="430" y="103"/>
      <point x="390" y="112"/>
      <point x="358" y="121" type="curve"/>
      <point x="372" y="137"/>
      <point x="381" y="156"/>
      <point x="384" y="174" type="curve" smooth="yes"/>
      <point x="387" y="196"/>
      <point x="384" y="218"/>
      <point x="376" y="239" type="curve"/>
      <point x="408" y="219"/>
      <point x="429" y="197"/>
      <point x="444" y="171" type="curve" smooth="yes"/>
    </contour>
    <contour>
      <point x="280" y="404" type="move" name="top"/>
    </contour>
    <contour>
      <point x="314" y="-18" type="move" name="bottom"/>
    </contour>
  </outline>
</glyph>
<glyph name="hehDoachashmee-ar.medi" format="1">
  <advance width="488"/>
  <unicode hex="FBAD"/>
  <outline>
    <contour>
      <point x="434" y="112" type="line" smooth="yes"/>
      <point x="404" y="112"/>
      <point x="378" y="112"/>
      <point x="366" y="124" type="curve"/>
      <point x="369" y="175"/>
      <point x="348" y="212"/>
      <point x="330" y="236" type="curve" smooth="yes"/>
      <point x="307" y="265"/>
      <point x="278" y="289"/>
      <point x="239" y="313" type="curve" smooth="yes"/>
      <point x="219" y="324"/>
      <point x="199" y="335"/>
      <point x="178" y="345" type="curve" smooth="yes"/>
      <point x="156" y="356"/>
      <point x="143" y="363"/>
      <point x="127" y="374" type="curve"/>
      <point x="119" y="361"/>
      <point x="111" y="348"/>
      <point x="104" y="336" type="curve" smooth="yes"/>
      <point x="91" y="312"/>
      <point x="97" y="298"/>
      <point x="116" y="287" type="curve" smooth="yes"/>
      <point x="131" y="279" type="line"/>
      <point x="102" y="275"/>
      <point x="71" y="253"/>
      <point x="55" y="228" type="curve" smooth="yes"/>
      <point x="37" y="203"/>
      <point x="33" y="176"/>
      <point x="34" y="152" type="curve"/>
      <point x="36" y="139"/>
      <point x="39" y="128"/>
      <point x="45" y="112" type="curve"/>
      <point x="-17" y="112" type="line" smooth="yes"/>
      <point x="-48" y="112"/>
      <point x="-74" y="86"/>
      <point x="-74" y="55" type="curve" smooth="yes"/>
      <point x="-74" y="27"/>
      <point x="-52" y="0"/>
      <point x="-17" y="0" type="curve" smooth="yes"/>
      <point x="36" y="0" type="line" smooth="yes"/>
      <point x="93" y="0"/>
      <point x="133" y="13"/>
      <point x="159" y="46" type="curve"/>
      <point x="199" y="33"/>
      <point x="248" y="10"/>
      <point x="281" y="-9" type="curve"/>
      <point x="309" y="22" type="line"/>
      <point x="324" y="38"/>
      <point x="331" y="45"/>
      <point x="336" y="54" type="curve"/>
      <point x="338" y="43"/>
      <point x="345" y="32"/>
      <point x="356" y="22" type="curve" smooth="yes"/>
      <point x="372" y="6"/>
      <point x="401" y="0"/>
      <point x="437" y="0" type="curve" smooth="yes"/>
      <point x="488" y="0" type="line"/>
      <point x="488" y="112" type="line"/>
    </contour>
    <contour>
      <point x="191" y="208"/>
      <point x="196" y="192"/>
      <point x="196" y="185" type="curve" smooth="yes"/>
      <point x="196" y="178"/>
      <point x="191" y="163"/>
      <point x="175" y="152" type="curve"/>
      <point x="162" y="143"/>
      <point x="149" y="140"/>
      <point x="140" y="140" type="curve" smooth="yes"/>
      <point x="134" y="140"/>
      <point x="122" y="141"/>
      <point x="102" y="153" type="curve"/>
      <point x="86" y="161"/>
      <point x="74" y="174"/>
      <point x="73" y="183" type="curve"/>
      <point x="74" y="190"/>
      <point x="84" y="205"/>
      <point x="104" y="223" type="curve"/>
      <point x="128" y="243"/>
      <point x="141" y="249"/>
      <point x="153" y="249" type="curve" smooth="yes"/>
      <point x="166" y="249"/>
      <point x="174" y="239"/>
      <point x="183" y="223" type="curve"/>
    </contour>
    <contour>
      <point x="304" y="148"/>
      <point x="310" y="123"/>
      <point x="311" y="93" type="curve"/>
      <point x="278" y="102"/>
      <point x="238" y="112"/>
      <point x="206" y="121" type="curve"/>
      <point x="220" y="137"/>
      <point x="229" y="155"/>
      <point x="232" y="174" type="curve" smooth="yes"/>
      <point x="235" y="195"/>
      <point x="232" y="218"/>
      <point x="223" y="239" type="curve"/>
      <point x="256" y="219"/>
      <point x="277" y="197"/>
      <point x="292" y="170" type="curve" smooth="yes"/>
    </contour>
    <contour>
      <point x="127" y="404" type="move" name="top"/>
    </contour>
    <contour>
      <point x="163" y="-28" type="move" name="bottom"/>
    </contour>
  </outline>
</glyph>
<glyph name="dotabove-ar" format="1">
  <advance width="0"/>
  <unicode hex="FBB2"/>
  <outline>
    <contour>
      <point x="-13" y="776"/>
      <point x="-40" y="749"/>
      <point x="-56" y="734" type="curve"/>
      <point x="-33" y="716"/>
      <point x="-14" y="696"/>
      <point x="4" y="675" type="curve"/>
      <point x="26" y="695"/>
      <point x="47" y="717"/>
      <point x="60" y="731" type="curve"/>
      <point x="48" y="751"/>
      <point x="23" y="775"/>
      <point x="-1" y="791" type="curve"/>
    </contour>
    <contour>
      <point x="2" y="792" type="move" name="top"/>
    </contour>
    <contour>
      <point x="2" y="653" type="move" name="_top"/>
    </contour>
  </outline>
</glyph>
<glyph name="dotbelow-ar" format="1">
  <advance width="0"/>
  <unicode hex="FBB3"/>
  <outline>
    <contour>
      <point x="-13" y="-186"/>
      <point x="-40" y="-213"/>
      <point x="-56" y="-228" type="curve"/>
      <point x="-33" y="-246"/>
      <point x="-14" y="-266"/>
      <point x="4" y="-287" type="curve"/>
      <point x="26" y="-268"/>
      <point x="47" y="-245"/>
      <point x="60" y="-231" type="curve"/>
      <point x="48" y="-211"/>
      <point x="23" y="-187"/>
      <point x="-1" y="-171" type="curve"/>
    </contour>
    <contour>
      <point x="2" y="-149" type="move" name="_bottom"/>
    </contour>
    <contour>
      <point x="2" y="-288" type="move" name="bottom"/>
    </contour>
  </outline>
</glyph>
<glyph name="threedotsupabove-ar" format="1">
  <advance width="0"/>
  <unicode hex="FBB6"/>
  <outline>
    <contour>
      <point x="32" y="804"/>
      <point x="14" y="785"/>
      <point x="-2" y="770" type="curve"/>
      <point x="-15" y="787"/>
      <point x="-34" y="805"/>
      <point x="-53" y="816" type="curve"/>
      <point x="-65" y="802"/>
      <point x="-92" y="775"/>
      <point x="-109" y="759" type="curve"/>
      <point x="-86" y="742"/>
      <point x="-66" y="722"/>
      <point x="-48" y="701" type="curve"/>
      <point x="-30" y="717"/>
      <point x="-12" y="735"/>
      <point x="0" y="748" type="curve"/>
      <point x="17" y="734"/>
      <point x="33" y="717"/>
      <point x="47" y="701" type="curve"/>
      <point x="70" y="721"/>
      <point x="90" y="742"/>
      <point x="102" y="757" type="curve"/>
      <point x="91" y="776"/>
      <point x="66" y="801"/>
      <point x="42" y="816" type="curve"/>
    </contour>
    <contour>
      <point x="23" y="835"/>
      <point x="43" y="857"/>
      <point x="55" y="871" type="curve"/>
      <point x="44" y="892"/>
      <point x="19" y="917"/>
      <point x="-4" y="931" type="curve"/>
      <point x="-17" y="916"/>
      <point x="-44" y="889"/>
      <point x="-60" y="874" type="curve"/>
      <point x="-37" y="856"/>
      <point x="-18" y="836"/>
      <point x="0" y="815" type="curve"/>
    </contour>
    <contour>
      <point x="-3" y="941" type="move" name="top"/>
    </contour>
    <contour>
      <point x="-3" y="680" type="move" name="_top"/>
    </contour>
  </outline>
</glyph>
<glyph name="threedotsupbelow-ar" format="1">
  <advance width="0"/>
  <unicode hex="FBB7"/>
  <outline>
    <contour>
      <point x="33" y="-221"/>
      <point x="14" y="-240"/>
      <point x="-2" y="-255" type="curve"/>
      <point x="-15" y="-238"/>
      <point x="-34" y="-220"/>
      <point x="-52" y="-209" type="curve"/>
      <point x="-65" y="-223"/>
      <point x="-92" y="-250"/>
      <point x="-108" y="-266" type="curve"/>
      <point x="-86" y="-284"/>
      <point x="-66" y="-303"/>
      <point x="-48" y="-324" type="curve"/>
      <point x="-29" y="-309"/>
      <point x="-11" y="-291"/>
      <point x="0" y="-277" type="curve"/>
      <point x="17" y="-291"/>
      <point x="33" y="-308"/>
      <point x="47" y="-324" type="curve"/>
      <point x="70" y="-304"/>
      <point x="90" y="-283"/>
      <point x="103" y="-269" type="curve"/>
      <point x="91" y="-249"/>
      <point x="66" y="-224"/>
      <point x="42" y="-209" type="curve"/>
    </contour>
    <contour>
      <point x="22" y="-190"/>
      <point x="42" y="-168"/>
      <point x="55" y="-154" type="curve"/>
      <point x="43" y="-133"/>
      <point x="18" y="-108"/>
      <point x="-5" y="-94" type="curve"/>
      <point x="-17" y="-109"/>
      <point x="-44" y="-136"/>
      <point x="-61" y="-151" type="curve"/>
      <point x="-38" y="-169"/>
      <point x="-19" y="-189"/>
      <point x="-1" y="-210" type="curve"/>
    </contour>
    <contour>
      <point x="-4" y="-64" type="move" name="_bottom"/>
    </contour>
    <contour>
      <point x="-4" y="-325" type="move" name="bottom"/>
    </contour>
  </outline>
</glyph>
<glyph name="twodotsverticalbelow-ar" format="1">
  <advance width="0"/>
  <unicode hex="FBBE"/>
  <outline>
    <contour>
      <point x="34" y="-162"/>
      <point x="49" y="-145"/>
      <point x="60" y="-132" type="curve"/>
      <point x="48" y="-112"/>
      <point x="24" y="-87"/>
      <point x="0" y="-73" type="curve"/>
      <point x="-12" y="-87"/>
      <point x="-39" y="-114"/>
      <point x="-56" y="-129" type="curve"/>
      <point x="-38" y="-144"/>
      <point x="-21" y="-159"/>
      <point x="-6" y="-176" type="curve"/>
      <point x="-20" y="-191"/>
      <point x="-42" y="-213"/>
      <point x="-56" y="-226" type="curve"/>
      <point x="-33" y="-244"/>
      <point x="-14" y="-263"/>
      <point x="4" y="-285" type="curve"/>
      <point x="27" y="-265"/>
      <point x="48" y="-243"/>
      <point x="60" y="-229" type="curve"/>
      <point x="51" y="-212"/>
      <point x="34" y="-194"/>
      <point x="15" y="-179" type="curve"/>
    </contour>
    <contour>
      <point x="2" y="-47" type="move" name="_bottom"/>
    </contour>
    <contour>
      <point x="2" y="-285" type="move" name="bottom"/>
    </contour>
  </outline>
</glyph>
<glyph name="tahbelow-ar" format="1">
  <advance width="0"/>
  <unicode hex="FBC1"/>
  <outline>
    <contour>
      <point x="-57" y="-253" type="line"/>
      <point x="-50" y="-265"/>
      <point x="-36" y="-304"/>
      <point x="-34" y="-352" type="curve"/>
      <point x="-43" y="-368" type="line"/>
      <point x="-73" y="-368" type="line"/>
      <point x="-62" y="-407" type="line"/>
      <point x="-18" y="-407" type="line"/>
      <point x="3" y="-407"/>
      <point x="26" y="-398"/>
      <point x="45" y="-385" type="curve" smooth="yes"/>
      <point x="64" y="-370"/>
      <point x="74" y="-351"/>
      <point x="74" y="-332" type="curve" smooth="yes"/>
      <point x="74" y="-314"/>
      <point x="52" y="-299"/>
      <point x="36" y="-299" type="curve" smooth="yes"/>
      <point x="22" y="-299"/>
      <point x="1" y="-309"/>
      <point x="-19" y="-338" type="curve"/>
      <point x="-18" y="-319"/>
      <point x="-18" y="-308"/>
      <point x="-24" y="-284" type="curve"/>
      <point x="-25" y="-266"/>
      <point x="-21" y="-263"/>
      <point x="-12" y="-257" type="curve"/>
      <point x="-22" y="-246"/>
      <point x="-30" y="-236"/>
      <point x="-36" y="-225" type="curve"/>
    </contour>
    <contour>
      <point x="46" y="-360"/>
      <point x="26" y="-370"/>
      <point x="5" y="-370" type="curve" smooth="yes"/>
      <point x="-21" y="-370" type="line"/>
      <point x="-12" y="-351"/>
      <point x="2" y="-330"/>
      <point x="23" y="-329" type="curve" smooth="yes"/>
      <point x="42" y="-329"/>
      <point x="50" y="-340"/>
      <point x="55" y="-349" type="curve"/>
    </contour>
    <contour>
      <point x="1" y="-205" type="move" name="_bottom"/>
    </contour>
    <contour>
      <point x="1" y="-407" type="move" name="bottom"/>
    </contour>
  </outline>
</glyph>
<glyph name="ain_meem-ar" format="1">
  <advance width="606"/>
  <unicode hex="FC2A"/>
  <outline>
    <contour>
      <point x="504" y="343"/>
      <point x="436" y="325"/>
      <point x="378" y="307" type="curve"/>
      <point x="337" y="328"/>
      <point x="303" y="357"/>
      <point x="296" y="406" type="curve"/>
      <point x="322" y="424"/>
      <point x="352" y="437"/>
      <point x="398" y="437" type="curve" smooth="yes"/>
      <point x="435" y="437"/>
      <point x="464" y="428"/>
      <point x="482" y="422" type="curve"/>
      <point x="510" y="448" type="line"/>
      <point x="489" y="479"/>
      <point x="441" y="516"/>
      <point x="393" y="516" type="curve" smooth="yes"/>
      <point x="356" y="516"/>
      <point x="318" y="497"/>
      <point x="287" y="469" type="curve" smooth="yes"/>
      <point x="255" y="439"/>
      <point x="233" y="399"/>
      <point x="233" y="355" type="curve" smooth="yes"/>
      <point x="233" y="319"/>
      <point x="247" y="289"/>
      <point x="285" y="259" type="curve"/>
      <point x="256" y="243"/>
      <point x="225" y="217"/>
      <point x="201" y="189" type="curve" smooth="yes"/>
      <point x="180" y="164"/>
      <point x="164" y="138"/>
      <point x="160" y="114" type="curve"/>
      <point x="122" y="98"/>
      <point x="98" y="84"/>
      <point x="78" y="49" type="curve" smooth="yes"/>
      <point x="59" y="19"/>
      <point x="52" y="-10"/>
      <point x="62" y="-68" type="curve" smooth="yes"/>
      <point x="71" y="-134"/>
      <point x="78" y="-185"/>
      <point x="84" y="-222" type="curve" smooth="yes"/>
      <point x="95" y="-301"/>
      <point x="101" y="-351"/>
      <point x="105" y="-390" type="curve"/>
      <point x="145" y="-377" type="line"/>
      <point x="144" y="-300"/>
      <point x="141" y="-229"/>
      <point x="134" y="-171" type="curve" smooth="yes"/>
      <point x="132" y="-138"/>
      <point x="121" y="-50"/>
      <point x="112" y="5" type="curve"/>
      <point x="124" y="24"/>
      <point x="170" y="35"/>
      <point x="231" y="35" type="curve" smooth="yes"/>
      <point x="270" y="35"/>
      <point x="297" y="29"/>
      <point x="329" y="19" type="curve"/>
      <point x="353" y="52"/>
      <point x="365" y="80"/>
      <point x="376" y="110" type="curve"/>
      <point x="342" y="142"/>
      <point x="289" y="158"/>
      <point x="260" y="165" type="curve"/>
      <point x="321" y="224"/>
      <point x="446" y="256"/>
      <point x="519" y="274" type="curve"/>
      <point x="533" y="300"/>
      <point x="540" y="321"/>
      <point x="549" y="350" type="curve"/>
    </contour>
    <contour>
      <point x="311" y="1" type="move" name="caret_1"/>
    </contour>
    <contour>
      <point x="319" y="-26" type="move" name="bottom_1"/>
    </contour>
    <contour>
      <point x="393" y="546" type="move" name="top_1"/>
    </contour>
    <contour>
      <point x="105" y="267" type="move" name="top_2"/>
    </contour>
    <contour>
      <point x="126" y="-413" type="move" name="bottom_2"/>
    </contour>
  </outline>
</glyph>
<glyph name="lam_hah-ar" format="1">
  <advance width="558"/>
  <unicode hex="FC40"/>
  <outline>
    <contour>
      <point x="513" y="260" type="line"/>
      <point x="453" y="260"/>
      <point x="365" y="268"/>
      <point x="304" y="282" type="curve"/>
      <point x="312" y="289"/>
      <point x="327" y="302"/>
      <point x="323" y="340" type="curve" smooth="yes"/>
      <point x="321" y="360"/>
      <point x="320" y="356"/>
      <point x="315" y="404" type="curve" smooth="yes"/>
      <point x="305" y="478"/>
      <point x="328" y="488"/>
      <point x="336" y="495" type="curve"/>
      <point x="309" y="518"/>
      <point x="282" y="559"/>
      <point x="274" y="582" type="curve"/>
      <point x="215" y="499" type="line"/>
      <point x="226" y="470"/>
      <point x="236" y="435"/>
      <point x="249" y="385" type="curve" smooth="yes"/>
      <point x="257" y="358"/>
      <point x="265" y="324"/>
      <point x="257" y="313" type="curve" smooth="yes"/>
      <point x="252" y="306"/>
      <point x="242" y="299"/>
      <point x="227" y="299" type="curve" smooth="yes"/>
      <point x="217" y="299"/>
      <point x="193" y="302"/>
      <point x="179" y="302" type="curve" smooth="yes"/>
      <point x="164" y="302"/>
      <point x="148" y="299"/>
      <point x="139" y="298" type="curve" smooth="yes"/>
      <point x="125" y="276"/>
      <point x="116" y="254"/>
      <point x="113" y="227" type="curve"/>
      <point x="127" y="227"/>
      <point x="158" y="226"/>
      <point x="181" y="225" type="curve" smooth="yes"/>
      <point x="210" y="223"/>
      <point x="246" y="218"/>
      <point x="285" y="208" type="curve"/>
      <point x="241" y="194"/>
      <point x="192" y="165"/>
      <point x="152" y="124" type="curve" smooth="yes"/>
      <point x="104" y="74"/>
      <point x="69" y="4"/>
      <point x="67" y="-74" type="curve" smooth="yes"/>
      <point x="65" y="-137"/>
      <point x="85" y="-194"/>
      <point x="124" y="-238" type="curve" smooth="yes"/>
      <point x="167" y="-285"/>
      <point x="230" y="-311"/>
      <point x="292" y="-311" type="curve" smooth="yes"/>
      <point x="336" y="-311"/>
      <point x="365" y="-298"/>
      <point x="391" y="-283" type="curve" smooth="yes"/>
      <point x="418" y="-269"/>
      <point x="445" y="-257"/>
      <point x="488" y="-256" type="curve"/>
      <point x="497" y="-228" type="line"/>
      <point x="459" y="-222"/>
      <point x="447" y="-222"/>
      <point x="407" y="-219" type="curve"/>
      <point x="373" y="-217"/>
      <point x="341" y="-214"/>
      <point x="316" y="-209" type="curve" smooth="yes"/>
      <point x="254" y="-199"/>
      <point x="204" y="-176"/>
      <point x="173" y="-141" type="curve" smooth="yes"/>
      <point x="146" y="-110"/>
      <point x="134" y="-69"/>
      <point x="134" y="-31" type="curve" smooth="yes"/>
      <point x="134" y="47"/>
      <point x="184" y="106"/>
      <point x="251" y="140" type="curve" smooth="yes"/>
      <point x="301" y="166"/>
      <point x="363" y="179"/>
      <point x="426" y="179" type="curve" smooth="yes"/>
      <point x="452" y="179"/>
      <point x="488" y="179"/>
      <point x="502" y="177" type="curve"/>
      <point x="516" y="205"/>
      <point x="524" y="227"/>
      <point x="531" y="260" type="curve"/>
    </contour>
    <contour>
      <point x="301" y="-3" type="move" name="caret_1"/>
    </contour>
    <contour>
      <point x="444" y="-299" type="move" name="bottom_1"/>
    </contour>
    <contour>
      <point x="231" y="601" type="move" name="top_1"/>
    </contour>
    <contour>
      <point x="190" y="-341" type="move" name="bottom_2"/>
    </contour>
    <contour>
      <point x="84" y="339" type="move" name="top_2"/>
    </contour>
    <contour>
      <point x="329" y="0" type="move" name="center"/>
    </contour>
  </outline>
</glyph>
<glyph name="meem_alefMaksura-ar" format="1">
  <advance width="803"/>
  <unicode hex="FC49"/>
  <outline>
    <contour>
      <point x="723" y="260"/>
      <point x="701" y="271"/>
      <point x="672" y="279" type="curve" smooth="yes"/>
      <point x="649" y="285"/>
      <point x="631" y="287"/>
      <point x="615" y="293" type="curve"/>
      <point x="603" y="279"/>
      <point x="594" y="256"/>
      <point x="589" y="240" type="curve" smooth="yes"/>
      <point x="581" y="212"/>
      <point x="582" y="187"/>
      <point x="593" y="165" type="curve"/>
      <point x="565" y="152"/>
      <point x="525" y="127"/>
      <point x="497" y="103" type="curve" smooth="yes"/>
      <point x="475" y="84"/>
      <point x="455" y="61"/>
      <point x="449" y="41" type="curve" smooth="yes"/>
      <point x="445" y="28"/>
      <point x="442" y="15"/>
      <point x="438" y="-10" type="curve"/>
      <point x="505" y="-17"/>
      <point x="542" y="-41"/>
      <point x="543" y="-61" type="curve"/>
      <point x="543" y="-82"/>
      <point x="498" y="-107"/>
      <point x="465" y="-121" type="curve" smooth="yes"/>
      <point x="431" y="-136"/>
      <point x="377" y="-155"/>
      <point x="294" y="-155" type="curve" smooth="yes"/>
      <point x="218" y="-155"/>
      <point x="168" y="-137"/>
      <point x="141" y="-103" type="curve" smooth="yes"/>
      <point x="115" y="-71"/>
      <point x="114" y="-11"/>
      <point x="126" y="42" type="curve"/>
      <point x="99" y="51" type="line"/>
      <point x="83" y="10"/>
      <point x="73" y="-35"/>
      <point x="68" y="-72" type="curve" smooth="yes"/>
      <point x="64" y="-110"/>
      <point x="67" y="-141"/>
      <point x="80" y="-171" type="curve" smooth="yes"/>
      <point x="95" y="-207"/>
      <point x="120" y="-234"/>
      <point x="158" y="-253" type="curve" smooth="yes"/>
      <point x="194" y="-272"/>
      <point x="236" y="-281"/>
      <point x="284" y="-281" type="curve" smooth="yes"/>
      <point x="347" y="-281"/>
      <point x="413" y="-266"/>
      <point x="467" y="-237" type="curve" smooth="yes"/>
      <point x="506" y="-216"/>
      <point x="546" y="-186"/>
      <point x="570" y="-152" type="curve" smooth="yes"/>
      <point x="591" y="-124"/>
      <point x="604" y="-91"/>
      <point x="604" y="-59" type="curve" smooth="yes"/>
      <point x="604" y="0"/>
      <point x="560" y="30"/>
      <point x="516" y="41" type="curve"/>
      <point x="546" y="69"/>
      <point x="612" y="118"/>
      <point x="686" y="124" type="curve"/>
      <point x="721" y="126"/>
      <point x="736" y="132"/>
      <point x="742" y="173" type="curve" smooth="yes"/>
      <point x="748" y="209"/>
      <point x="748" y="232"/>
      <point x="734" y="247" type="curve" smooth="yes"/>
    </contour>
    <contour>
      <point x="403" y="0" type="move" name="caret_1"/>
    </contour>
    <contour>
      <point x="638" y="-200" type="move" name="bottom_1"/>
    </contour>
    <contour>
      <point x="615" y="323" type="move" name="top_1"/>
    </contour>
    <contour>
      <point x="263" y="48" type="move" name="top_2"/>
    </contour>
    <contour>
      <point x="288" y="-311" type="move" name="bottom_2"/>
    </contour>
  </outline>
</glyph>
<glyph name="lam_alefMaksura-ar.fina" format="1">
  <advance width="731"/>
  <unicode hex="FC86"/>
  <outline>
    <contour>
      <point x="505" y="553"/>
      <point x="485" y="530"/>
      <point x="461" y="491" type="curve"/>
      <point x="473" y="417"/>
      <point x="488" y="334"/>
      <point x="499" y="251" type="curve" smooth="yes"/>
      <point x="503" y="215"/>
      <point x="510" y="163"/>
      <point x="516" y="116" type="curve"/>
      <point x="503" y="75"/>
      <point x="431" y="41"/>
      <point x="390" y="40" type="curve"/>
      <point x="385" y="21"/>
      <point x="381" y="-1"/>
      <point x="379" y="-31" type="curve"/>
      <point x="409" y="-34"/>
      <point x="447" y="-38"/>
      <point x="478" y="-47" type="curve" smooth="yes"/>
      <point x="520" y="-58"/>
      <point x="543" y="-73"/>
      <point x="543" y="-89" type="curve"/>
      <point x="543" y="-116"/>
      <point x="491" y="-142"/>
      <point x="450" y="-155" type="curve" smooth="yes"/>
      <point x="414" y="-167"/>
      <point x="360" y="-183"/>
      <point x="293" y="-183" type="curve" smooth="yes"/>
      <point x="218" y="-183"/>
      <point x="168" y="-164"/>
      <point x="141" y="-131" type="curve" smooth="yes"/>
      <point x="115" y="-98"/>
      <point x="116" y="-46"/>
      <point x="127" y="14" type="curve"/>
      <point x="100" y="23" type="line"/>
      <point x="81" y="-24"/>
      <point x="71" y="-72"/>
      <point x="68" y="-108" type="curve" smooth="yes"/>
      <point x="65" y="-142"/>
      <point x="69" y="-172"/>
      <point x="81" y="-199" type="curve" smooth="yes"/>
      <point x="96" y="-236"/>
      <point x="122" y="-262"/>
      <point x="159" y="-281" type="curve" smooth="yes"/>
      <point x="195" y="-300"/>
      <point x="238" y="-309"/>
      <point x="284" y="-309" type="curve" smooth="yes"/>
      <point x="343" y="-309"/>
      <point x="404" y="-296"/>
      <point x="457" y="-269" type="curve" smooth="yes"/>
      <point x="493" y="-252"/>
      <point x="531" y="-224"/>
      <point x="556" y="-194" type="curve" smooth="yes"/>
      <point x="580" y="-166"/>
      <point x="596" y="-130"/>
      <point x="596" y="-91" type="curve" smooth="yes"/>
      <point x="596" y="-37"/>
      <point x="561" y="-5"/>
      <point x="516" y="8" type="curve"/>
      <point x="530" y="16"/>
      <point x="552" y="40"/>
      <point x="560" y="72" type="curve"/>
      <point x="576" y="30"/>
      <point x="614" y="0"/>
      <point x="669" y="0" type="curve" smooth="yes"/>
      <point x="731" y="0" type="line"/>
      <point x="731" y="112" type="line"/>
      <point x="649" y="112" type="line" smooth="yes"/>
      <point x="624" y="112"/>
      <point x="604" y="121"/>
      <point x="593" y="135" type="curve" smooth="yes"/>
      <point x="581" y="149"/>
      <point x="576" y="171"/>
      <point x="574" y="185" type="curve" smooth="yes"/>
      <point x="550" y="406"/>
      <point x="542" y="489"/>
      <point x="533" y="581" type="curve"/>
    </contour>
    <contour>
      <point x="357" y="0" type="move" name="caret_1"/>
    </contour>
    <contour>
      <point x="572" y="-272" type="move" name="bottom_1"/>
    </contour>
    <contour>
      <point x="472" y="605" type="move" name="top_1"/>
    </contour>
    <contour>
      <point x="241" y="20" type="move" name="top_2"/>
    </contour>
    <contour>
      <point x="287" y="-339" type="move" name="bottom_2"/>
    </contour>
  </outline>
</glyph>
<glyph name="seen_meem-ar.init" format="1">
  <advance width="720"/>
  <unicode hex="FCB0"/>
  <outline>
    <contour>
      <point x="601" y="377"/>
      <point x="585" y="356"/>
      <point x="571" y="333" type="curve"/>
      <point x="617" y="269" type="line"/>
      <point x="602" y="233"/>
      <point x="588" y="224"/>
      <point x="555" y="224" type="curve" smooth="yes"/>
      <point x="536" y="224"/>
      <point x="514" y="227"/>
      <point x="499" y="244" type="curve"/>
      <point x="486" y="257"/>
      <point x="483" y="277"/>
      <point x="484" y="295" type="curve"/>
      <point x="484" y="305"/>
      <point x="485" y="315"/>
      <point x="486" y="323" type="curve"/>
      <point x="455" y="309" type="line"/>
      <point x="454" y="300"/>
      <point x="453" y="292"/>
      <point x="451" y="282" type="curve" smooth="yes"/>
      <point x="444" y="255"/>
      <point x="427" y="223"/>
      <point x="379" y="223" type="curve" smooth="yes"/>
      <point x="343" y="223"/>
      <point x="324" y="241"/>
      <point x="307" y="267" type="curve" smooth="yes"/>
      <point x="294" y="284"/>
      <point x="284" y="305"/>
      <point x="245" y="305" type="curve" smooth="yes"/>
      <point x="224" y="305"/>
      <point x="206" y="297"/>
      <point x="186" y="285" type="curve" smooth="yes"/>
      <point x="168" y="273"/>
      <point x="151" y="258"/>
      <point x="135" y="236" type="curve" smooth="yes"/>
      <point x="119" y="213"/>
      <point x="108" y="187"/>
      <point x="104" y="169" type="curve" smooth="yes"/>
      <point x="99" y="152"/>
      <point x="98" y="132"/>
      <point x="100" y="112" type="curve"/>
      <point x="86" y="108"/>
      <point x="46" y="110"/>
      <point x="12" y="112" type="curve"/>
      <point x="-17" y="112" type="line" smooth="yes"/>
      <point x="-52" y="112"/>
      <point x="-74" y="88"/>
      <point x="-74" y="55" type="curve" smooth="yes"/>
      <point x="-74" y="19"/>
      <point x="-48" y="0"/>
      <point x="-17" y="0" type="curve" smooth="yes"/>
      <point x="8" y="0" type="line" smooth="yes"/>
      <point x="73" y="0"/>
      <point x="85" y="10"/>
      <point x="130" y="10" type="curve" smooth="yes"/>
      <point x="163" y="10"/>
      <point x="194" y="1"/>
      <point x="232" y="-18" type="curve"/>
      <point x="247" y="21"/>
      <point x="254" y="71"/>
      <point x="253" y="108" type="curve"/>
      <point x="221" y="117"/>
      <point x="158" y="126"/>
      <point x="158" y="163" type="curve" smooth="yes"/>
      <point x="158" y="188"/>
      <point x="183" y="226"/>
      <point x="238" y="226" type="curve" smooth="yes"/>
      <point x="276" y="226"/>
      <point x="290" y="205"/>
      <point x="305" y="180" type="curve" smooth="yes"/>
      <point x="323" y="148"/>
      <point x="343" y="119"/>
      <point x="385" y="119" type="curve" smooth="yes"/>
      <point x="435" y="119"/>
      <point x="457" y="156"/>
      <point x="465" y="184" type="curve"/>
      <point x="468" y="161"/>
      <point x="494" y="125"/>
      <point x="549" y="125" type="curve" smooth="yes"/>
      <point x="588" y="125"/>
      <point x="616" y="144"/>
      <point x="635" y="173" type="curve" smooth="yes"/>
      <point x="659" y="210"/>
      <point x="663" y="255"/>
      <point x="663" y="274" type="curve" smooth="yes"/>
      <point x="663" y="322"/>
      <point x="640" y="372"/>
      <point x="618" y="395" type="curve"/>
    </contour>
    <contour>
      <point x="358" y="0" type="move" name="caret_1"/>
    </contour>
    <contour>
      <point x="456" y="75" type="move" name="bottom_1"/>
    </contour>
    <contour>
      <point x="466" y="363" type="move" name="top_1"/>
    </contour>
    <contour>
      <point x="121" y="312" type="move" name="top_2"/>
    </contour>
    <contour>
      <point x="163" y="-40" type="move" name="bottom_2"/>
    </contour>
  </outline>
</glyph>
<glyph name="kaf_lam-ar.init" format="1">
  <advance width="481"/>
  <unicode hex="FCC7"/>
  <outline>
    <contour>
      <point x="393" y="193"/>
      <point x="371" y="246"/>
      <point x="341" y="289" type="curve" smooth="yes"/>
      <point x="320" y="320"/>
      <point x="286" y="352"/>
      <point x="245" y="379" type="curve"/>
      <point x="314" y="418"/>
      <point x="388" y="453"/>
      <point x="441" y="477" type="curve"/>
      <point x="451" y="514"/>
      <point x="456" y="544"/>
      <point x="460" y="581" type="curve"/>
      <point x="374" y="541"/>
      <point x="224" y="467"/>
      <point x="149" y="398" type="curve"/>
      <point x="143" y="458"/>
      <point x="137" y="516"/>
      <point x="130" y="581" type="curve"/>
      <point x="102" y="553"/>
      <point x="82" y="530"/>
      <point x="58" y="491" type="curve"/>
      <point x="70" y="417"/>
      <point x="88" y="318"/>
      <point x="97" y="241" type="curve" smooth="yes"/>
      <point x="100" y="222"/>
      <point x="102" y="207"/>
      <point x="104" y="184" type="curve"/>
      <point x="105" y="167"/>
      <point x="101" y="150"/>
      <point x="89" y="136" type="curve" smooth="yes"/>
      <point x="74" y="120"/>
      <point x="53" y="112"/>
      <point x="29" y="112" type="curve" smooth="yes"/>
      <point x="-18" y="112" type="line" smooth="yes"/>
      <point x="-48" y="112"/>
      <point x="-74" y="86"/>
      <point x="-74" y="56" type="curve" smooth="yes"/>
      <point x="-74" y="26"/>
      <point x="-49" y="0"/>
      <point x="-18" y="0" type="curve" smooth="yes"/>
      <point x="47" y="0" type="line" smooth="yes"/>
      <point x="112" y="0"/>
      <point x="147" y="29"/>
      <point x="152" y="72" type="curve"/>
      <point x="168" y="16"/>
      <point x="214" y="0"/>
      <point x="261" y="0" type="curve" smooth="yes"/>
      <point x="334" y="0"/>
      <point x="393" y="48"/>
      <point x="393" y="135" type="curve" smooth="yes"/>
    </contour>
    <contour>
      <point x="322" y="123"/>
      <point x="293" y="109"/>
      <point x="252" y="109" type="curve"/>
      <point x="225" y="109"/>
      <point x="204" y="118"/>
      <point x="189" y="136" type="curve" smooth="yes"/>
      <point x="178" y="150"/>
      <point x="173" y="169"/>
      <point x="171" y="185" type="curve" smooth="yes"/>
      <point x="166" y="234"/>
      <point x="161" y="279"/>
      <point x="156" y="323" type="curve"/>
      <point x="195" y="310"/>
      <point x="242" y="279"/>
      <point x="275" y="245" type="curve" smooth="yes"/>
      <point x="312" y="208"/>
      <point x="336" y="169"/>
      <point x="336" y="148" type="curve"/>
    </contour>
    <contour>
      <point x="222" y="0" type="move" name="caret_1"/>
    </contour>
    <contour>
      <point x="267" y="-26" type="move" name="bottom_1"/>
    </contour>
    <contour>
      <point x="335" y="571" type="move" name="top_1"/>
    </contour>
    <contour>
      <point x="45" y="572" type="move" name="top_2"/>
    </contour>
    <contour>
      <point x="42" y="-26" type="move" name="bottom_2"/>
    </contour>
  </outline>
</glyph>
<glyph name="lam_hah-ar.init" format="1">
  <advance width="553"/>
  <unicode hex="FCCA"/>
  <outline>
    <contour>
      <point x="475" y="234" type="line" smooth="yes"/>
      <point x="390" y="235"/>
      <point x="356" y="243"/>
      <point x="311" y="257" type="curve" smooth="yes"/>
      <point x="301" y="260"/>
      <point x="294" y="263"/>
      <point x="256" y="274" type="curve"/>
      <point x="256" y="274"/>
      <point x="281" y="286"/>
      <point x="277" y="337" type="curve" smooth="yes"/>
      <point x="276" y="352"/>
      <point x="272" y="381"/>
      <point x="270" y="396" type="curve" smooth="yes"/>
      <point x="262" y="455"/>
      <point x="267" y="474"/>
      <point x="291" y="493" type="curve"/>
      <point x="263" y="519"/>
      <point x="244" y="549"/>
      <point x="229" y="580" type="curve"/>
      <point x="170" y="498" type="line"/>
      <point x="172" y="491"/>
      <point x="194" y="428"/>
      <point x="207" y="369" type="curve" smooth="yes"/>
      <point x="217" y="324"/>
      <point x="217" y="309"/>
      <point x="210" y="301" type="curve" smooth="yes"/>
      <point x="200" y="289"/>
      <point x="180" y="288"/>
      <point x="152" y="287" type="curve" smooth="yes"/>
      <point x="97" y="284"/>
      <point x="78" y="282"/>
      <point x="58" y="272" type="curve" smooth="yes"/>
      <point x="55" y="265"/>
      <point x="46" y="236"/>
      <point x="36" y="202" type="curve" smooth="yes"/>
      <point x="65" y="209"/>
      <point x="81" y="212"/>
      <point x="112" y="212" type="curve" smooth="yes"/>
      <point x="167" y="212"/>
      <point x="236" y="202"/>
      <point x="296" y="167" type="curve"/>
      <point x="291" y="163"/>
      <point x="230" y="142"/>
      <point x="211" y="137" type="curve" smooth="yes"/>
      <point x="170" y="125"/>
      <point x="118" y="112"/>
      <point x="29" y="112" type="curve" smooth="yes"/>
      <point x="-18" y="112" type="line" smooth="yes"/>
      <point x="-49" y="112"/>
      <point x="-74" y="87"/>
      <point x="-74" y="55" type="curve" smooth="yes"/>
      <point x="-74" y="24"/>
      <point x="-50" y="0"/>
      <point x="-18" y="0" type="curve" smooth="yes"/>
      <point x="34" y="0" type="line" smooth="yes"/>
      <point x="139" y="0"/>
      <point x="203" y="37"/>
      <point x="258" y="72" type="curve" smooth="yes"/>
      <point x="316" y="109"/>
      <point x="364" y="137"/>
      <point x="450" y="139" type="curve"/>
      <point x="470" y="173"/>
      <point x="483" y="199"/>
      <point x="496" y="234" type="curve"/>
    </contour>
    <contour>
      <point x="277" y="0" type="move" name="caret_1"/>
    </contour>
    <contour>
      <point x="326" y="48" type="move" name="bottom_1"/>
    </contour>
    <contour>
      <point x="155" y="597" type="move" name="top_1"/>
    </contour>
    <contour>
      <point x="42" y="335" type="move" name="top_2"/>
    </contour>
    <contour>
      <point x="82" y="-32" type="move" name="bottom_2"/>
    </contour>
  </outline>
</glyph>
<glyph name="meem_meem-ar.init" format="1">
  <advance width="379"/>
  <unicode hex="FCD1"/>
  <outline>
    <contour>
      <point x="332" y="364"/>
      <point x="336" y="400"/>
      <point x="326" y="419" type="curve" smooth="yes"/>
      <point x="317" y="436"/>
      <point x="294" y="449"/>
      <point x="261" y="458" type="curve" smooth="yes"/>
      <point x="246" y="464"/>
      <point x="226" y="466"/>
      <point x="202" y="475" type="curve"/>
      <point x="194" y="465"/>
      <point x="181" y="445"/>
      <point x="175" y="415" type="curve" smooth="yes"/>
      <point x="169" y="387"/>
      <point x="169" y="368"/>
      <point x="178" y="346" type="curve"/>
      <point x="174" y="343"/>
      <point x="142" y="329"/>
      <point x="118" y="306" type="curve" smooth="yes"/>
      <point x="92" y="282"/>
      <point x="66" y="248"/>
      <point x="66" y="204" type="curve" smooth="yes"/>
      <point x="66" y="174"/>
      <point x="79" y="153"/>
      <point x="97" y="131" type="curve"/>
      <point x="94" y="129"/>
      <point x="87" y="112"/>
      <point x="30" y="112" type="curve" smooth="yes"/>
      <point x="-18" y="112" type="line" smooth="yes"/>
      <point x="-61" y="112"/>
      <point x="-74" y="72"/>
      <point x="-74" y="57" type="curve" smooth="yes"/>
      <point x="-74" y="25"/>
      <point x="-49" y="0"/>
      <point x="-18" y="0" type="curve" smooth="yes"/>
      <point x="11" y="0" type="line" smooth="yes"/>
      <point x="65" y="0"/>
      <point x="92" y="15"/>
      <point x="131" y="15" type="curve" smooth="yes"/>
      <point x="166" y="15"/>
      <point x="204" y="2"/>
      <point x="239" y="-19" type="curve"/>
      <point x="255" y="17"/>
      <point x="263" y="85"/>
      <point x="259" y="123" type="curve"/>
      <point x="233" y="141"/>
      <point x="209" y="153"/>
      <point x="180" y="167" type="curve" smooth="yes"/>
      <point x="136" y="187"/>
      <point x="120" y="205"/>
      <point x="120" y="216" type="curve"/>
      <point x="134" y="241"/>
      <point x="170" y="270"/>
      <point x="219" y="290" type="curve" smooth="yes"/>
      <point x="246" y="301"/>
      <point x="285" y="314"/>
      <point x="317" y="322" type="curve" smooth="yes"/>
    </contour>
    <contour>
      <point x="185" y="0" type="move" name="caret_1"/>
    </contour>
    <contour>
      <point x="242" y="-104" type="move" name="bottom_1"/>
    </contour>
    <contour>
      <point x="261" y="512" type="move" name="top_1"/>
    </contour>
    <contour>
      <point x="41" y="367" type="move" name="top_2"/>
    </contour>
    <contour>
      <point x="36" y="-53" type="move" name="bottom_2"/>
    </contour>
  </outline>
</glyph>
<glyph name="tah_alefMaksura-ar" format="1">
  <advance width="990"/>
  <unicode hex="FCF5"/>
  <outline>
    <contour>
      <point x="869" y="359"/>
      <point x="844" y="368"/>
      <point x="818" y="368" type="curve" smooth="yes"/>
      <point x="784" y="368"/>
      <point x="750" y="352"/>
      <point x="716" y="327" type="curve" smooth="yes"/>
      <point x="689" y="308"/>
      <point x="663" y="283"/>
      <point x="640" y="256" type="curve"/>
      <point x="650" y="329"/>
      <point x="645" y="364"/>
      <point x="634" y="441" type="curve"/>
      <point x="629" y="480"/>
      <point x="643" y="507"/>
      <point x="665" y="526" type="curve"/>
      <point x="628" y="563"/>
      <point x="603" y="614"/>
      <point x="596" y="627" type="curve"/>
      <point x="538" y="538" type="line"/>
      <point x="544" y="525"/>
      <point x="556" y="496"/>
      <point x="565" y="462" type="curve" smooth="yes"/>
      <point x="583" y="395"/>
      <point x="593" y="292"/>
      <point x="598" y="208" type="curve"/>
      <point x="576" y="177"/>
      <point x="555" y="135"/>
      <point x="549" y="117" type="curve"/>
      <point x="490" y="97"/>
      <point x="464" y="84"/>
      <point x="452" y="73" type="curve" smooth="yes"/>
      <point x="435" y="56"/>
      <point x="424" y="17"/>
      <point x="420" y="-10" type="curve" smooth="yes"/>
      <point x="428" y="-10"/>
      <point x="453" y="-15"/>
      <point x="475" y="-21" type="curve" smooth="yes"/>
      <point x="516" y="-32"/>
      <point x="541" y="-45"/>
      <point x="541" y="-63" type="curve"/>
      <point x="540" y="-89"/>
      <point x="492" y="-114"/>
      <point x="450" y="-128" type="curve" smooth="yes"/>
      <point x="415" y="-140"/>
      <point x="361" y="-156"/>
      <point x="293" y="-156" type="curve" smooth="yes"/>
      <point x="221" y="-156"/>
      <point x="170" y="-139"/>
      <point x="141" y="-104" type="curve" smooth="yes"/>
      <point x="114" y="-71"/>
      <point x="117" y="-20"/>
      <point x="127" y="40" type="curve"/>
      <point x="100" y="50" type="line"/>
      <point x="83" y="5"/>
      <point x="71" y="-48"/>
      <point x="68" y="-81" type="curve" smooth="yes"/>
      <point x="65" y="-115"/>
      <point x="69" y="-146"/>
      <point x="81" y="-173" type="curve" smooth="yes"/>
      <point x="96" y="-209"/>
      <point x="122" y="-236"/>
      <point x="159" y="-255" type="curve" smooth="yes"/>
      <point x="195" y="-274"/>
      <point x="238" y="-283"/>
      <point x="285" y="-283" type="curve" smooth="yes"/>
      <point x="347" y="-283"/>
      <point x="413" y="-267"/>
      <point x="467" y="-239" type="curve" smooth="yes"/>
      <point x="505" y="-219"/>
      <point x="545" y="-187"/>
      <point x="569" y="-154" type="curve" smooth="yes"/>
      <point x="592" y="-122"/>
      <point x="606" y="-84"/>
      <point x="601" y="-49" type="curve" smooth="yes"/>
      <point x="598" y="-2"/>
      <point x="566" y="21"/>
      <point x="525" y="31" type="curve"/>
      <point x="724" y="85"/>
      <point x="819" y="113"/>
      <point x="870" y="149" type="curve" smooth="yes"/>
      <point x="918" y="184"/>
      <point x="934" y="232"/>
      <point x="934" y="261" type="curve" smooth="yes"/>
      <point x="934" y="278"/>
      <point x="924" y="317"/>
      <point x="891" y="342" type="curve" smooth="yes"/>
    </contour>
    <contour>
      <point x="673" y="158"/>
      <point x="630" y="150"/>
      <point x="626" y="152" type="curve" smooth="yes"/>
      <point x="638" y="166"/>
      <point x="659" y="200"/>
      <point x="696" y="227" type="curve" smooth="yes"/>
      <point x="732" y="254"/>
      <point x="770" y="272"/>
      <point x="812" y="268" type="curve"/>
      <point x="837" y="264"/>
      <point x="847" y="246"/>
      <point x="835" y="217" type="curve" smooth="yes"/>
      <point x="813" y="198"/>
      <point x="784" y="188"/>
      <point x="724" y="170" type="curve"/>
    </contour>
    <contour>
      <point x="497" y="0" type="move" name="caret_1"/>
    </contour>
    <contour>
      <point x="736" y="-16" type="move" name="bottom_1"/>
    </contour>
    <contour>
      <point x="806" y="398" type="move" name="top_1"/>
    </contour>
    <contour>
      <point x="261" y="39" type="move" name="top_2"/>
    </contour>
    <contour>
      <point x="288" y="-313" type="move" name="bottom_2"/>
    </contour>
  </outline>
</glyph>
<glyph name="seen_alefMaksura-ar" format="1">
  <advance width="1038"/>
  <unicode hex="FCFB"/>
  <outline>
    <contour>
      <point x="919" y="261"/>
      <point x="903" y="240"/>
      <point x="889" y="217" type="curve"/>
      <point x="935" y="153" type="line"/>
      <point x="920" y="117"/>
      <point x="906" y="108"/>
      <point x="873" y="108" type="curve" smooth="yes"/>
      <point x="854" y="108"/>
      <point x="832" y="111"/>
      <point x="817" y="127" type="curve" smooth="yes"/>
      <point x="804" y="141"/>
      <point x="801" y="161"/>
      <point x="802" y="179" type="curve" smooth="yes"/>
      <point x="802" y="188"/>
      <point x="803" y="199"/>
      <point x="804" y="207" type="curve"/>
      <point x="773" y="192" type="line"/>
      <point x="772" y="185"/>
      <point x="771" y="171"/>
      <point x="767" y="157" type="curve" smooth="yes"/>
      <point x="758" y="132"/>
      <point x="742" y="107"/>
      <point x="688" y="107" type="curve" smooth="yes"/>
      <point x="643" y="107"/>
      <point x="614" y="126"/>
      <point x="585" y="169" type="curve" smooth="yes"/>
      <point x="566" y="196"/>
      <point x="547" y="219"/>
      <point x="511" y="219" type="curve" smooth="yes"/>
      <point x="479" y="219"/>
      <point x="455" y="199"/>
      <point x="430" y="162" type="curve" smooth="yes"/>
      <point x="417" y="144"/>
      <point x="397" y="111"/>
      <point x="383" y="76" type="curve" smooth="yes"/>
      <point x="370" y="40"/>
      <point x="365" y="7"/>
      <point x="374" y="-13" type="curve" smooth="yes"/>
      <point x="383" y="-31"/>
      <point x="405" y="-45"/>
      <point x="440" y="-55" type="curve" smooth="yes"/>
      <point x="464" y="-62"/>
      <point x="497" y="-66"/>
      <point x="530" y="-69" type="curve"/>
      <point x="522" y="-100"/>
      <point x="489" y="-121"/>
      <point x="434" y="-137" type="curve" smooth="yes"/>
      <point x="393" y="-151"/>
      <point x="351" y="-157"/>
      <point x="304" y="-157" type="curve" smooth="yes"/>
      <point x="248" y="-157"/>
      <point x="190" y="-148"/>
      <point x="158" y="-115" type="curve" smooth="yes"/>
      <point x="129" y="-95"/>
      <point x="118" y="-64"/>
      <point x="117" y="-29" type="curve" smooth="yes"/>
      <point x="117" y="-8"/>
      <point x="120" y="17"/>
      <point x="126" y="40" type="curve"/>
      <point x="99" y="51" type="line"/>
      <point x="74" y="-3"/>
      <point x="65" y="-66"/>
      <point x="66" y="-109" type="curve" smooth="yes"/>
      <point x="67" y="-146"/>
      <point x="80" y="-194"/>
      <point x="117" y="-228" type="curve" smooth="yes"/>
      <point x="151" y="-260"/>
      <point x="206" y="-283"/>
      <point x="287" y="-283" type="curve" smooth="yes"/>
      <point x="379" y="-283"/>
      <point x="453" y="-256"/>
      <point x="508" y="-212" type="curve" smooth="yes"/>
      <point x="535" y="-191"/>
      <point x="558" y="-165"/>
      <point x="574" y="-136" type="curve" smooth="yes"/>
      <point x="589" y="-109"/>
      <point x="597" y="-82"/>
      <point x="597" y="-55" type="curve" smooth="yes"/>
      <point x="597" y="-15"/>
      <point x="572" y="8"/>
      <point x="533" y="12" type="curve" smooth="yes"/>
      <point x="501" y="15"/>
      <point x="489" y="16"/>
      <point x="462" y="22" type="curve" smooth="yes"/>
      <point x="447" y="26"/>
      <point x="434" y="38"/>
      <point x="436" y="58" type="curve" smooth="yes"/>
      <point x="437" y="76"/>
      <point x="458" y="117"/>
      <point x="498" y="117" type="curve" smooth="yes"/>
      <point x="537" y="117"/>
      <point x="563" y="92"/>
      <point x="584" y="66" type="curve" smooth="yes"/>
      <point x="606" y="37"/>
      <point x="632" y="3"/>
      <point x="689" y="3" type="curve" smooth="yes"/>
      <point x="749" y="3"/>
      <point x="775" y="40"/>
      <point x="783" y="68" type="curve"/>
      <point x="786" y="45"/>
      <point x="812" y="9"/>
      <point x="867" y="9" type="curve" smooth="yes"/>
      <point x="906" y="9"/>
      <point x="934" y="27"/>
      <point x="953" y="57" type="curve" smooth="yes"/>
      <point x="977" y="94"/>
      <point x="981" y="139"/>
      <point x="981" y="157" type="curve" smooth="yes"/>
      <point x="981" y="206"/>
      <point x="958" y="256"/>
      <point x="936" y="279" type="curve"/>
    </contour>
    <contour>
      <point x="516" y="0" type="move" name="caret_1"/>
    </contour>
    <contour>
      <point x="780" y="-26" type="move" name="bottom_1"/>
    </contour>
    <contour>
      <point x="777" y="248" type="move" name="top_1"/>
    </contour>
    <contour>
      <point x="235" y="47" type="move" name="top_2"/>
    </contour>
    <contour>
      <point x="297" y="-313" type="move" name="bottom_2"/>
    </contour>
  </outline>
</glyph>
